<?xml version="1.0" encoding="UTF-8"?>
<svg xmlns="http://www.w3.org/2000/svg" style="stroke-dasharray:none; shape-rendering:auto; font-family:'Arial'; text-rendering:auto; fill-opacity:1; color-interpolation:auto; color-rendering:auto; font-size:12; fill:black; stroke:black; image-rendering:auto; stroke-miterlimit:10; stroke-linecap:square; stroke-linejoin:miter; font-style:normal; stroke-width:1; stroke-dashoffset:0; font-weight:normal; stroke-opacity:1;" contentScriptType="text/ecmascript" preserveAspectRatio="xMidYMid meet" zoomAndPan="magnify" version="1.0" contentStyleType="text/css" xml:xlink="http://www.w3.org/1999/xlink" width="931" height="926"><rect x="0" y="420" width="931" height="491" ry="0" rx="0" style="stroke:#000000; fill:#DAE8FC" /><g componentSequence="50"><text x="-665" y="9" transform="rotate(270)" text-anchor="middle" style="font-weight:bold;font-size:10px;stroke:none; fill:#434343"><tspan dy="14" x="-665">Departamento Pessoal</tspan></text></g><rect x="0" y="10" width="931" height="411" ry="0" rx="0" style="stroke:#000000; fill:#F5F5F5" /><g componentSequence="49"><text x="-215" y="9" transform="rotate(270)" text-anchor="middle" style="font-weight:bold;font-size:10px;stroke:none; fill:#434343"><tspan dy="14" x="-215">Alteração de Horário</tspan></text></g><g sequence="7"><rect x="290" y="820" width="106" height="66" ry="5" rx="5" style="fill:url(#linearGradientF8FBFEEDF5FCDEEDFAD4E7F8E2E5E9_842001308);" stroke="191970" /></g><g componentSequence="7"><text x="343" y="842" text-anchor="middle" style="font-weight:bold;font-size:10px;stroke:none; fill:#333399"><tspan dy="14" x="343">Assinatura</tspan></text></g><rect x="810" y="80" width="111" height="108" ry="5" rx="5" style="stroke:none; fill:#FFFFE0" /><g componentSequence="8"><text x="820" y="103" text-anchor="left" style="font-weight:bold;font-size:10px;stroke:none; fill:#000000"><tspan dy="14" x="820">Solicitação</tspan><tspan dy="14" x="820">reprovada,</tspan><tspan dy="14" x="820">cancela</tspan><tspan dy="14" x="820">solicitação</tspan></text></g><path style="fill:none; stroke-width:1; stroke:#000000;" d="M830.0 80.0 L810.0 80.0 L810.0 188.0 L830.0 188.0" /><g sequence="9"><ellipse cx="217" cy="277" rx="17" ry="17" stroke-width="1" style="fill:url(#linearGradient66FF6696FF96B6FFB6_1021838249);" stroke="336633" /></g><g sequence="11"><rect x="380" y="500" width="106" height="66" ry="5" rx="5" style="fill:url(#linearGradientF8FBFEEDF5FCDEEDFAD4E7F8E2E5E9_953647340);" stroke="191970" /></g><g componentSequence="11"><text x="433" y="522" text-anchor="middle" style="font-weight:bold;font-size:10px;stroke:none; fill:#333399"><tspan dy="14" x="433">Esocial</tspan></text></g><g sequence="12"><rect x="350" y="240" width="106" height="85" ry="5" rx="5" style="fill:url(#linearGradientF8FBFEEDF5FCDEEDFAD4E7F8E2E5E9_2111113618);" stroke="191970" /></g><g componentSequence="12"><text x="403" y="255" text-anchor="middle" style="font-weight:bold;font-size:10px;stroke:none; fill:#333399"><tspan dy="14" x="403">Valida</tspan><tspan dy="14" x="403">Solicitação</tspan></text></g><g sequence="13"><rect x="620" y="480" width="106" height="104" ry="5" rx="5" style="fill:url(#linearGradientF8FBFEEDF5FCDEEDFAD4E7F8E2E5E9_812351167);" stroke="191970" /></g><g componentSequence="13"><text x="673" y="495" text-anchor="middle" style="font-weight:bold;font-size:10px;stroke:none; fill:#333399"><tspan dy="14" x="673">Inserir</tspan><tspan dy="14" x="673">alterações</tspan><tspan dy="14" x="673">no RM</tspan></text></g><g sequence="14"><ellipse cx="557" cy="857" rx="17" ry="17" stroke-width="3" style="fill:url(#linearGradientFF6666FF9696FFB6B6_1289934416);" stroke="993333" /></g><g sequence="15"><ellipse cx="857" cy="277" rx="17" ry="17" stroke-width="3" style="fill:url(#linearGradientFF6666FF9696FFB6B6_1219952576);" stroke="993333" /></g><g sequence="15"><polygon points=" 848 273 853 268 858 273 863 268 868 273 863 278 868 283 863 288 858 283 853 288 848 283 853 278" style="stroke:none; fill:#993333" /></g><g sequence="16"><rect x="80" y="470" width="106" height="123" ry="5" rx="5" style="fill:url(#linearGradientF8FBFEEDF5FCDEEDFAD4E7F8E2E5E9_502986461);" stroke="191970" /></g><g componentSequence="16"><text x="133" y="485" text-anchor="middle" style="font-weight:bold;font-size:10px;stroke:none; fill:#333399"><tspan dy="14" x="133">Emissão</tspan><tspan dy="14" x="133">do</tspan><tspan dy="14" x="133">Aditivo/Ter</tspan><tspan dy="14" x="133">mo</tspan></text></g><rect x="710" y="820" width="105" height="70" ry="5" rx="5" style="stroke:none; fill:#FFFFE0" /><g componentSequence="19"><text x="720" y="843" text-anchor="left" style="font-weight:bold;font-size:10px;stroke:none; fill:#000000"><tspan dy="14" x="720">Finaliza a</tspan><tspan dy="14" x="720">Solicitação</tspan></text></g><path style="fill:none; stroke-width:1; stroke:#000000;" d="M730.0 820.0 L710.0 820.0 L710.0 890.0 L730.0 890.0" /><rect x="170" y="110" width="105" height="55" ry="5" rx="5" style="stroke:none; fill:#FFFFE0" /><g componentSequence="20"><text x="180" y="123" text-anchor="left" style="font-weight:bold;font-size:10px;stroke:none; fill:#000000"><tspan dy="14" x="180">Início</tspan></text></g><path style="fill:none; stroke-width:1; stroke:#000000;" d="M190.0 110.0 L170.0 110.0 L170.0 165.0 L190.0 165.0" /><g sequence="21"><rect x="80" y="660" width="106" height="85" ry="5" rx="5" style="fill:url(#linearGradientF8FBFEEDF5FCDEEDFAD4E7F8E2E5E9_1989147995);" stroke="191970" /></g><g componentSequence="21"><text x="133" y="675" text-anchor="middle" style="font-weight:bold;font-size:10px;stroke:none; fill:#333399"><tspan dy="14" x="133">Envia para</tspan><tspan dy="14" x="133">filial</tspan></text></g><g sequence="39"><rect x="620" y="60" width="106" height="104" ry="5" rx="5" style="fill:url(#linearGradientF8FBFEEDF5FCDEEDFAD4E7F8E2E5E9_738588044);" stroke="191970" /></g><g componentSequence="39"><text x="673" y="75" text-anchor="middle" style="font-weight:bold;font-size:10px;stroke:none; fill:#333399"><tspan dy="14" x="673">Correção</tspan><tspan dy="14" x="673">de</tspan><tspan dy="14" x="673">Solicitação</tspan></text></g><g sequence="53"><polygon points=" 100 820 130 790 160 820 130 850 100 820" style="fill:url(#linearGradientFAFBFCFFFFCC_1404196659);" stroke="000000" /></g><g componentSequence="53"><text x="130" y="860" text-anchor="middle" style="font-weight:bold;font-size:10px;stroke:none; fill:#333399"><tspan dy="14" x="130">DP</tspan><tspan dy="14" x="130">Unida</tspan><tspan dy="14" x="130">de</tspan></text></g><g sequence="57"><polygon points=" 640 249 670 219 700 249 670 279 640 249" style="fill:url(#linearGradientFAFBFCFFFFCC_431230854);" stroke="000000" /></g><g componentSequence="57"><text x="670" y="289" text-anchor="middle" style="font-weight:bold;font-size:10px;stroke:none; fill:#333399"><tspan dy="14" x="670">Exclu</tspan><tspan dy="14" x="670">sivo</tspan></text></g><g componentSequence="23"><text x="478" y="856" style="font-size:10px;font-weight:none;stroke:none; fill:#333399" text-anchor="left" /></g><g componentSequence="24"><text x="870" y="224" style="font-size:10px;font-weight:none;stroke:none; fill:#333399" text-anchor="left" /></g><g componentSequence="27"><text x="293" y="532" style="font-size:10px;font-weight:none;stroke:none; fill:#333399" text-anchor="left" /></g><g componentSequence="31"><text x="563" y="532" style="font-size:10px;font-weight:none;stroke:none; fill:#333399" text-anchor="left" /></g><g componentSequence="35"><text x="652" y="856" style="font-size:10px;font-weight:none;stroke:none; fill:#333399" text-anchor="left" /></g><g componentSequence="36"><text x="230" y="212" style="font-size:10px;font-weight:none;stroke:none; fill:#333399" text-anchor="left" /></g><g componentSequence="51"><text x="302" y="279" style="font-size:10px;font-weight:none;stroke:none; fill:#333399" text-anchor="left" /></g><g componentSequence="54"><text x="143" y="626" style="font-size:10px;font-weight:none;stroke:none; fill:#333399" text-anchor="left" /></g><g componentSequence="55"><text x="142" y="767" style="font-size:10px;font-weight:none;stroke:none; fill:#333399" text-anchor="left" /></g><g componentSequence="56"><text x="235" y="856" style="font-size:10px;font-weight:none;stroke:none; fill:#333399" text-anchor="left" /></g><g componentSequence="58"><text x="558" y="280" style="font-size:10px;font-weight:none;stroke:none; fill:#333399" text-anchor="left" /></g><g componentSequence="59"><text x="682" y="191" style="font-size:10px;font-weight:none;stroke:none; fill:#333399" text-anchor="left" /></g><g componentSequence="60"><text x="457" y="112" style="font-size:10px;font-weight:none;stroke:none; fill:#333399" text-anchor="left" /></g><g componentSequence="61"><text x="780" y="277" style="font-size:10px;font-weight:none;stroke:none; fill:#333399" text-anchor="left" /></g><g componentSequence="62"><text x="681" y="408" style="font-size:10px;font-weight:none;stroke:none; fill:#333399" text-anchor="left" /></g><path style="fill:none; stroke:#000000;stroke-width:1" d="M396.0 854.0 L540.0 857.0" /><polygon style="fill:#000000; stroke:#000000;" points=" 530 852 540 857 530 862 532 857" /><path style="fill:none; stroke:#000000;stroke-width:1" d="M160.0 857.0 L289.0 854.0" /><polygon style="fill:#000000; stroke:#000000;" points=" 279 849 289 854 279 859 281 854" /><path style="fill:none; stroke:#000000;stroke-dasharray:2" d="M862.0 188.0 L858.0 260.0" /><path style="fill:none; stroke:#000000;stroke-width:1" d="M234.0 277.0 L349.0 281.0" /><polygon style="fill:#000000; stroke:#000000;" points=" 339 276 349 281 339 286 341 281" /><path style="fill:none; stroke:#000000;stroke-dasharray:2" d="M221.0 165.0 L217.0 260.0" /><path style="fill:none; stroke:#000000;stroke-width:1" d="M379.0 532.0 L186.0 531.0" /><polygon style="fill:#000000; stroke:#000000;" points=" 196 536 186 531 196 526 194 531" /><path style="fill:none; stroke:#000000;stroke-width:1" d="M619.0 532.0 L486.0 532.0" /><polygon style="fill:#000000; stroke:#000000;" points=" 496 537 486 532 496 527 494 532" /><path style="fill:none; stroke:#000000;stroke-width:1" d="M456.0 281.0 L639.0 278.0" /><polygon style="fill:#000000; stroke:#000000;" points=" 629 273 639 278 629 283 631 278" /><path style="fill:none; stroke:#000000;stroke-width:1" d="M619.0 112.0 L402.0 112.0 L402.0 239.0" /><polygon style="fill:#000000; stroke:#000000;" points=" 407 229 402 239 397 229 402 231" /><path style="fill:none; stroke:#000000;stroke-width:1" d="M670.0 336.0 L672.0 479.0" /><polygon style="fill:#000000; stroke:#000000;" points=" 677 469 672 479 667 469 672 471" /><path style="fill:none; stroke:#000000;stroke-dasharray:2" d="M709.0 855.0 L574.0 857.0" /><path style="fill:none; stroke:#000000;stroke-width:1" d="M700.0 277.0 L839.0 277.0" /><polygon style="fill:#000000; stroke:#000000;" points=" 829 272 839 277 829 282 831 277" /><path style="fill:none; stroke:#000000;stroke-width:1" d="M133.0 593.0 L133.0 659.0" /><polygon style="fill:#000000; stroke:#000000;" points=" 138 649 133 659 128 649 133 651" /><path style="fill:none; stroke:#000000;stroke-width:1" d="M132.0 745.0 L131.0 789.0" /><polygon style="fill:#000000; stroke:#000000;" points=" 136 779 131 789 126 779 131 781" /><path style="fill:none; stroke:#000000;stroke-width:1" d="M671.0 218.0 L672.0 164.0" /><polygon style="fill:#000000; stroke:#000000;" points=" 667 174 672 164 677 174 672 172" /><defs><linearGradient xmlns:xlink="http://www.w3.org/1999/xlink" xlink:href="#linearGradientF8FBFEEDF5FCDEEDFAD4E7F8E2E5E9" id="linearGradientF8FBFEEDF5FCDEEDFAD4E7F8E2E5E9_842001308" x1="0" y1="820.0" x2="0" y2="926.0" gradientUnits="userSpaceOnUse" xlink:type="simple" xlink:actuate="onLoad" xlink:show="other" /><linearGradient id="linearGradientF8FBFEEDF5FCDEEDFAD4E7F8E2E5E9"><stop style="stop-color:#F8FBFE;stop-opacity:1;" offset="0.0" id="stopF8FBFE" /><stop style="stop-color:#EDF5FC;stop-opacity:1;" offset="0.25" id="stopEDF5FC" /><stop style="stop-color:#DEEDFA;stop-opacity:1;" offset="0.5" id="stopDEEDFA" /><stop style="stop-color:#D4E7F8;stop-opacity:1;" offset="0.75" id="stopD4E7F8" /><stop style="stop-color:#E2E5E9;stop-opacity:1;" offset="1.0" id="stopE2E5E9" /></linearGradient><linearGradient xmlns:xlink="http://www.w3.org/1999/xlink" xlink:href="#linearGradient66FF6696FF96B6FFB6" id="linearGradient66FF6696FF96B6FFB6_1021838249" x1="0" y1="260.0" x2="0" y2="295.0" gradientUnits="userSpaceOnUse" xlink:type="simple" xlink:actuate="onLoad" xlink:show="other" /><linearGradient id="linearGradient66FF6696FF96B6FFB6"><stop style="stop-color:#66FF66;stop-opacity:1;" offset="0.0" id="stop66FF66" /><stop style="stop-color:#96FF96;stop-opacity:1;" offset="0.5" id="stop96FF96" /><stop style="stop-color:#B6FFB6;stop-opacity:1;" offset="1.0" id="stopB6FFB6" /></linearGradient><linearGradient xmlns:xlink="http://www.w3.org/1999/xlink" xlink:href="#linearGradientF8FBFEEDF5FCDEEDFAD4E7F8E2E5E9" id="linearGradientF8FBFEEDF5FCDEEDFAD4E7F8E2E5E9_953647340" x1="0" y1="500.0" x2="0" y2="606.0" gradientUnits="userSpaceOnUse" xlink:type="simple" xlink:actuate="onLoad" xlink:show="other" /><linearGradient xmlns:xlink="http://www.w3.org/1999/xlink" xlink:href="#linearGradientF8FBFEEDF5FCDEEDFAD4E7F8E2E5E9" id="linearGradientF8FBFEEDF5FCDEEDFAD4E7F8E2E5E9_2111113618" x1="0" y1="240.0" x2="0" y2="346.0" gradientUnits="userSpaceOnUse" xlink:type="simple" xlink:actuate="onLoad" xlink:show="other" /><linearGradient xmlns:xlink="http://www.w3.org/1999/xlink" xlink:href="#linearGradientF8FBFEEDF5FCDEEDFAD4E7F8E2E5E9" id="linearGradientF8FBFEEDF5FCDEEDFAD4E7F8E2E5E9_812351167" x1="0" y1="480.0" x2="0" y2="586.0" gradientUnits="userSpaceOnUse" xlink:type="simple" xlink:actuate="onLoad" xlink:show="other" /><linearGradient xmlns:xlink="http://www.w3.org/1999/xlink" xlink:href="#linearGradientFF6666FF9696FFB6B6" id="linearGradientFF6666FF9696FFB6B6_1289934416" x1="0" y1="840.0" x2="0" y2="875.0" gradientUnits="userSpaceOnUse" xlink:type="simple" xlink:actuate="onLoad" xlink:show="other" /><linearGradient id="linearGradientFF6666FF9696FFB6B6"><stop style="stop-color:#FF6666;stop-opacity:1;" offset="0.0" id="stopFF6666" /><stop style="stop-color:#FF9696;stop-opacity:1;" offset="0.5" id="stopFF9696" /><stop style="stop-color:#FFB6B6;stop-opacity:1;" offset="1.0" id="stopFFB6B6" /></linearGradient><linearGradient xmlns:xlink="http://www.w3.org/1999/xlink" xlink:href="#linearGradientFF6666FF9696FFB6B6" id="linearGradientFF6666FF9696FFB6B6_1219952576" x1="0" y1="260.0" x2="0" y2="295.0" gradientUnits="userSpaceOnUse" xlink:type="simple" xlink:actuate="onLoad" xlink:show="other" /><linearGradient xmlns:xlink="http://www.w3.org/1999/xlink" xlink:href="#linearGradientF8FBFEEDF5FCDEEDFAD4E7F8E2E5E9" id="linearGradientF8FBFEEDF5FCDEEDFAD4E7F8E2E5E9_502986461" x1="0" y1="470.0" x2="0" y2="576.0" gradientUnits="userSpaceOnUse" xlink:type="simple" xlink:actuate="onLoad" xlink:show="other" /><linearGradient xmlns:xlink="http://www.w3.org/1999/xlink" xlink:href="#linearGradientF8FBFEEDF5FCDEEDFAD4E7F8E2E5E9" id="linearGradientF8FBFEEDF5FCDEEDFAD4E7F8E2E5E9_1989147995" x1="0" y1="660.0" x2="0" y2="766.0" gradientUnits="userSpaceOnUse" xlink:type="simple" xlink:actuate="onLoad" xlink:show="other" /><linearGradient xmlns:xlink="http://www.w3.org/1999/xlink" xlink:href="#linearGradientF8FBFEEDF5FCDEEDFAD4E7F8E2E5E9" id="linearGradientF8FBFEEDF5FCDEEDFAD4E7F8E2E5E9_738588044" x1="0" y1="60.0" x2="0" y2="166.0" gradientUnits="userSpaceOnUse" xlink:type="simple" xlink:actuate="onLoad" xlink:show="other" /><linearGradient xmlns:xlink="http://www.w3.org/1999/xlink" xlink:href="#linearGradientFAFBFCFFFFCC" id="linearGradientFAFBFCFFFFCC_1404196659" x1="0" y1="790.0" x2="0" y2="850.0" gradientUnits="userSpaceOnUse" xlink:type="simple" xlink:actuate="onLoad" xlink:show="other" /><linearGradient id="linearGradientFAFBFCFFFFCC"><stop style="stop-color:#FAFBFC;stop-opacity:1;" offset="0.0" id="stopFAFBFC" /><stop style="stop-color:#FFFFCC;stop-opacity:1;" offset="1.0" id="stopFFFFCC" /></linearGradient><linearGradient xmlns:xlink="http://www.w3.org/1999/xlink" xlink:href="#linearGradientFAFBFCFFFFCC" id="linearGradientFAFBFCFFFFCC_431230854" x1="0" y1="219.0" x2="0" y2="279.0" gradientUnits="userSpaceOnUse" xlink:type="simple" xlink:actuate="onLoad" xlink:show="other" /></defs></svg>
