<?xml version="1.0" encoding="UTF-8"?>
<svg xmlns="http://www.w3.org/2000/svg" style="stroke-dasharray:none; shape-rendering:auto; font-family:'Arial'; text-rendering:auto; fill-opacity:1; color-interpolation:auto; color-rendering:auto; font-size:12; fill:black; stroke:black; image-rendering:auto; stroke-miterlimit:10; stroke-linecap:square; stroke-linejoin:miter; font-style:normal; stroke-width:1; stroke-dashoffset:0; font-weight:normal; stroke-opacity:1;" contentScriptType="text/ecmascript" preserveAspectRatio="xMidYMid meet" zoomAndPan="magnify" version="1.0" contentStyleType="text/css" xml:xlink="http://www.w3.org/1999/xlink" width="921" height="911"><rect x="1" y="910" width="1320" height="541" ry="0" rx="0" style="stroke:#000000; fill:#82B0B7" /><rect x="1" y="610" width="1320" height="301" ry="0" rx="0" style="stroke:#000000; fill:#9FCFFF" /><rect x="1" y="0" width="1320" height="611" ry="0" rx="0" style="stroke:#000000; fill:#DBDBDB" /><g sequence="4"><ellipse cx="987" cy="73" rx="17" ry="17" stroke-width="1" style="fill:url(#linearGradient66FF6696FF96B6FFB6_151797772);" stroke="336633" /></g><g sequence="5"><rect x="921" y="431" width="106" height="85" ry="5" rx="5" style="fill:url(#linearGradientF8FBFEEDF5FCDEEDFAD4E7F8E2E5E9_130789213);" stroke="191970" /></g><g componentSequence="5"><text x="974" y="446" text-anchor="middle" style="font-weight:bold;font-size:10px;stroke:none; fill:#333399"><tspan dy="14" x="974">Valida</tspan><tspan dy="14" x="974">Solicitação</tspan></text></g><rect x="1060" y="46" width="105" height="55" ry="5" rx="5" style="stroke:none; fill:#FFFFE0" /><g componentSequence="7"><text x="1070" y="59" text-anchor="left" style="font-weight:bold;font-size:10px;stroke:none; fill:#000000"><tspan dy="14" x="1070">Início</tspan></text></g><path style="fill:none; stroke-width:1; stroke:#000000;" d="M1080.0 46.0 L1060.0 46.0 L1060.0 101.0 L1080.0 101.0" /><g sequence="13"><rect x="695" y="422" width="106" height="104" ry="5" rx="5" style="fill:url(#linearGradientF8FBFEEDF5FCDEEDFAD4E7F8E2E5E9_66333564);" stroke="191970" /></g><g componentSequence="13"><text x="748" y="437" text-anchor="middle" style="font-weight:bold;font-size:10px;stroke:none; fill:#333399"><tspan dy="14" x="748">Correção</tspan><tspan dy="14" x="748">de</tspan><tspan dy="14" x="748">Solicitação</tspan></text></g><g sequence="18"><ellipse cx="1112" cy="471" rx="17" ry="17" stroke-width="3" style="fill:url(#linearGradientFF6666FF9696FFB6B6_1190569318);" stroke="993333" /></g><g sequence="18"><polygon points=" 1103 467 1108 462 1113 467 1118 462 1123 467 1118 472 1123 477 1118 482 1113 477 1108 482 1103 477 1108 472" style="stroke:none; fill:#993333" /></g><rect x="1060" y="300" width="105" height="108" ry="5" rx="5" style="stroke:none; fill:#FFFFE0" /><g componentSequence="19"><text x="1070" y="323" text-anchor="left" style="font-weight:bold;font-size:10px;stroke:none; fill:#000000"><tspan dy="14" x="1070">Solicitação</tspan><tspan dy="14" x="1070">reprovada</tspan><tspan dy="14" x="1070">, cancela</tspan><tspan dy="14" x="1070">solicitação</tspan></text></g><path style="fill:none; stroke-width:1; stroke:#000000;" d="M1080.0 300.0 L1060.0 300.0 L1060.0 408.0 L1080.0 408.0" /><g sequence="21"><rect x="921" y="722" width="106" height="104" ry="5" rx="5" style="fill:url(#linearGradientF8FBFEEDF5FCDEEDFAD4E7F8E2E5E9_756122004);" stroke="191970" /></g><g componentSequence="21"><text x="974" y="737" text-anchor="middle" style="font-weight:bold;font-size:10px;stroke:none; fill:#333399"><tspan dy="14" x="974">Exame de</tspan><tspan dy="14" x="974">Mudança</tspan><tspan dy="14" x="974">de Função</tspan></text></g><g sequence="23"><rect x="160" y="1091" width="106" height="104" ry="5" rx="5" style="fill:url(#linearGradientF8FBFEEDF5FCDEEDFAD4E7F8E2E5E9_2012897836);" stroke="191970" /></g><g componentSequence="23"><text x="213" y="1106" text-anchor="middle" style="font-weight:bold;font-size:10px;stroke:none; fill:#333399"><tspan dy="14" x="213">Inserir</tspan><tspan dy="14" x="213">alterações</tspan><tspan dy="14" x="213">no RM</tspan></text></g><g sequence="29"><rect x="460" y="1110" width="106" height="66" ry="5" rx="5" style="fill:url(#linearGradientF8FBFEEDF5FCDEEDFAD4E7F8E2E5E9_1442256996);" stroke="191970" /></g><g componentSequence="29"><text x="513" y="1132" text-anchor="middle" style="font-weight:bold;font-size:10px;stroke:none; fill:#333399"><tspan dy="14" x="513">Esocial</tspan></text></g><g sequence="31"><rect x="670" y="1081" width="106" height="123" ry="5" rx="5" style="fill:url(#linearGradientF8FBFEEDF5FCDEEDFAD4E7F8E2E5E9_651778601);" stroke="191970" /></g><g componentSequence="31"><text x="723" y="1096" text-anchor="middle" style="font-weight:bold;font-size:10px;stroke:none; fill:#333399"><tspan dy="14" x="723">Emissão</tspan><tspan dy="14" x="723">do</tspan><tspan dy="14" x="723">Aditivo/Ter</tspan><tspan dy="14" x="723">mo</tspan></text></g><g sequence="33"><rect x="916" y="1091" width="106" height="104" ry="5" rx="5" style="fill:url(#linearGradientF8FBFEEDF5FCDEEDFAD4E7F8E2E5E9_132477511);" stroke="191970" /></g><g componentSequence="33"><text x="969" y="1106" text-anchor="middle" style="font-weight:bold;font-size:10px;stroke:none; fill:#333399"><tspan dy="14" x="969">Enviar</tspan><tspan dy="14" x="969">Termo Para</tspan><tspan dy="14" x="969">Filial</tspan></text></g><g sequence="35"><rect x="670" y="1319" width="106" height="66" ry="5" rx="5" style="fill:url(#linearGradientF8FBFEEDF5FCDEEDFAD4E7F8E2E5E9_589990805);" stroke="191970" /></g><g componentSequence="35"><text x="723" y="1341" text-anchor="middle" style="font-weight:bold;font-size:10px;stroke:none; fill:#333399"><tspan dy="14" x="723">Assinatura</tspan></text></g><g sequence="49"><polygon points=" 958 160 988 130 1018 160 988 190 958 160" style="fill:url(#linearGradientFAFBFCFFFFCC_1324585900);" stroke="000000" /></g><g componentSequence="49"><text x="988" y="200" text-anchor="middle" style="font-weight:bold;font-size:10px;stroke:none; fill:#333399"><tspan dy="14" x="988">Verific</tspan><tspan dy="14" x="988">ar</tspan><tspan dy="14" x="988">Cargo</tspan></text></g><g sequence="51"><rect x="717" y="155" width="106" height="85" ry="5" rx="5" style="fill:url(#linearGradientF8FBFEEDF5FCDEEDFAD4E7F8E2E5E9_580354121);" stroke="191970" /></g><g componentSequence="51"><text x="770" y="170" text-anchor="middle" style="font-weight:bold;font-size:10px;stroke:none; fill:#333399"><tspan dy="14" x="770">Validação</tspan><tspan dy="14" x="770">do Cargo</tspan></text></g><g sequence="52"><rect x="347" y="155" width="106" height="85" ry="5" rx="5" style="fill:url(#linearGradientF8FBFEEDF5FCDEEDFAD4E7F8E2E5E9_239909142);" stroke="191970" /></g><g componentSequence="52"><text x="400" y="170" text-anchor="middle" style="font-weight:bold;font-size:10px;stroke:none; fill:#333399"><tspan dy="14" x="400">Correção</tspan><tspan dy="14" x="400">do Cargo</tspan></text></g><g sequence="53"><rect x="347" y="265" width="106" height="85" ry="5" rx="5" style="fill:url(#linearGradientF8FBFEEDF5FCDEEDFAD4E7F8E2E5E9_2043542889);" stroke="191970" /></g><g componentSequence="53"><text x="400" y="280" text-anchor="middle" style="font-weight:bold;font-size:10px;stroke:none; fill:#333399"><tspan dy="14" x="400">PPRA do</tspan><tspan dy="14" x="400">Cargo</tspan></text></g><g sequence="54"><polygon points=" 567 272 597 242 627 272 597 302 567 272" style="fill:url(#linearGradientFAFBFCFFFFCC_728854287);" stroke="000000" /></g><g componentSequence="54"><text x="597" y="312" text-anchor="middle" style="font-weight:bold;font-size:10px;stroke:none; fill:#333399"><tspan dy="14" x="597">Verific</tspan><tspan dy="14" x="597">ar</tspan><tspan dy="14" x="597">PPRA</tspan></text></g><g sequence="64"><polygon points=" 944 610 974 580 1004 610 974 640 944 610" style="fill:url(#linearGradientFAFBFCFFFFCC_897198048);" stroke="000000" /></g><g componentSequence="64"><text x="974" y="650" text-anchor="middle" style="font-weight:bold;font-size:10px;stroke:none; fill:#333399"><tspan dy="14" x="974">Aprov</tspan><tspan dy="14" x="974">ado</tspan></text></g><g sequence="67"><rect x="670" y="731" width="106" height="85" ry="5" rx="5" style="fill:url(#linearGradientF8FBFEEDF5FCDEEDFAD4E7F8E2E5E9_1578478672);" stroke="191970" /></g><g componentSequence="67"><text x="723" y="746" text-anchor="middle" style="font-weight:bold;font-size:10px;stroke:none; fill:#333399"><tspan dy="14" x="723">Receber</tspan><tspan dy="14" x="723">Exame</tspan></text></g><g sequence="68"><rect x="670" y="951" width="106" height="85" ry="5" rx="5" style="fill:url(#linearGradientF8FBFEEDF5FCDEEDFAD4E7F8E2E5E9_1210393678);" stroke="191970" /></g><g componentSequence="68"><text x="723" y="966" text-anchor="middle" style="font-weight:bold;font-size:10px;stroke:none; fill:#333399"><tspan dy="14" x="723">Validar</tspan><tspan dy="14" x="723">Exame</tspan></text></g><g sequence="69"><polygon points=" 483 913 513 883 543 913 513 943 483 913" style="fill:url(#linearGradientFAFBFCFFFFCC_1745625938);" stroke="000000" /></g><g componentSequence="69"><text x="513" y="953" text-anchor="middle" style="font-weight:bold;font-size:10px;stroke:none; fill:#333399"><tspan dy="14" x="513">Exam</tspan><tspan dy="14" x="513">e OK</tspan></text></g><g sequence="70"><rect x="460" y="731" width="106" height="104" ry="5" rx="5" style="fill:url(#linearGradientF8FBFEEDF5FCDEEDFAD4E7F8E2E5E9_212688020);" stroke="191970" /></g><g componentSequence="70"><text x="513" y="746" text-anchor="middle" style="font-weight:bold;font-size:10px;stroke:none; fill:#333399"><tspan dy="14" x="513">Inserir</tspan><tspan dy="14" x="513">Exame no</tspan><tspan dy="14" x="513">RM</tspan></text></g><g sequence="71"><polygon points=" 330 751 360 721 390 751 360 781 330 751" style="fill:url(#linearGradientFAFBFCFFFFCC_2141783677);" stroke="000000" /></g><g componentSequence="71"><text x="360" y="791" text-anchor="middle" style="font-weight:bold;font-size:10px;stroke:none; fill:#333399"><tspan dy="14" x="360">Exclu</tspan><tspan dy="14" x="360">sivo</tspan></text></g><g sequence="72"><ellipse cx="357" cy="658" rx="17" ry="17" stroke-width="3" style="fill:url(#linearGradientFF6666FF9696FFB6B6_508517010);" stroke="993333" /></g><g sequence="73"><rect x="160" y="741" width="106" height="85" ry="5" rx="5" style="fill:url(#linearGradientF8FBFEEDF5FCDEEDFAD4E7F8E2E5E9_399568058);" stroke="191970" /></g><g componentSequence="73"><text x="213" y="756" text-anchor="middle" style="font-weight:bold;font-size:10px;stroke:none; fill:#333399"><tspan dy="14" x="213">Abrir</tspan><tspan dy="14" x="213">chamado</tspan></text></g><g sequence="84"><polygon points=" 939 1310 969 1280 999 1310 969 1340 939 1310" style="fill:url(#linearGradientFAFBFCFFFFCC_1912560424);" stroke="000000" /></g><g componentSequence="84"><text x="969" y="1350" text-anchor="middle" style="font-weight:bold;font-size:10px;stroke:none; fill:#333399"><tspan dy="14" x="969">Enca</tspan><tspan dy="14" x="969">minha</tspan><tspan dy="14" x="969">r P...</tspan></text></g><g sequence="86"><rect x="460" y="1300" width="106" height="104" ry="5" rx="5" style="fill:url(#linearGradientF8FBFEEDF5FCDEEDFAD4E7F8E2E5E9_1179787652);" stroke="191970" /></g><g componentSequence="86"><text x="513" y="1315" text-anchor="middle" style="font-weight:bold;font-size:10px;stroke:none; fill:#333399"><tspan dy="14" x="513">Arquivame</tspan><tspan dy="14" x="513">nto do</tspan><tspan dy="14" x="513">Termo</tspan></text></g><g sequence="87"><ellipse cx="212" cy="1351" rx="17" ry="17" stroke-width="3" style="fill:url(#linearGradientFF6666FF9696FFB6B6_573405206);" stroke="993333" /></g><rect x="160" y="1265" width="105" height="70" ry="5" rx="5" style="stroke:none; fill:#FFFFE0" /><g componentSequence="88"><text x="170" y="1288" text-anchor="left" style="font-weight:bold;font-size:10px;stroke:none; fill:#000000"><tspan dy="14" x="170">Finaliza a</tspan><tspan dy="14" x="170">Solicitação</tspan></text></g><path style="fill:none; stroke-width:1; stroke:#000000;" d="M180.0 1265.0 L160.0 1265.0 L160.0 1335.0 L180.0 1335.0" /><g sequence="98"><polygon points=" 940 910 970 880 1000 910 970 940 940 910" style="fill:url(#linearGradientFAFBFCFFFFCC_839443925);" stroke="000000" /></g><g componentSequence="98"><text x="970" y="950" text-anchor="middle" style="font-weight:bold;font-size:10px;stroke:none; fill:#333399"><tspan dy="14" x="970">Exam</tspan><tspan dy="14" x="970">e com</tspan><tspan dy="14" x="970">d...</tspan></text></g><g componentSequence="19"><text x="253" y="532" style="font-size:10px;font-weight:none;stroke:none; fill:#333399" text-anchor="left" /></g><g componentSequence="20"><text x="632" y="846" style="font-size:10px;font-weight:none;stroke:none; fill:#333399" text-anchor="left" /></g><g componentSequence="21"><text x="205" y="222" style="font-size:10px;font-weight:none;stroke:none; fill:#333399" text-anchor="left" /></g><g componentSequence="22"><text x="678" y="289" style="font-size:10px;font-weight:none;stroke:none; fill:#333399" text-anchor="left" /></g><g componentSequence="25"><text x="458" y="532" style="font-size:10px;font-weight:none;stroke:none; fill:#333399" text-anchor="left" /></g><g componentSequence="27"><text x="253" y="842" style="font-size:10px;font-weight:none;stroke:none; fill:#333399" text-anchor="left" /></g><g componentSequence="28"><text x="483" y="846" style="font-size:10px;font-weight:none;stroke:none; fill:#333399" text-anchor="left" /></g><g componentSequence="29"><text x="769" y="244" style="font-size:10px;font-weight:none;stroke:none; fill:#333399" text-anchor="left" /></g><g componentSequence="31"><text x="553" y="212" style="font-size:10px;font-weight:none;stroke:none; fill:#333399" text-anchor="left" /></g><g componentSequence="32"><text x="553" y="212" style="font-size:10px;font-weight:none;stroke:none; fill:#333399" text-anchor="left" /></g><g componentSequence="37"><text x="553" y="407" style="font-size:10px;font-weight:none;stroke:none; fill:#333399" text-anchor="left" /></g><g componentSequence="42"><text x="362" y="289" style="font-size:10px;font-weight:none;stroke:none; fill:#333399" text-anchor="left" /></g><g componentSequence="44"><text x="142" y="621" style="font-size:10px;font-weight:none;stroke:none; fill:#333399" text-anchor="left" /></g><g componentSequence="45"><text x="141" y="793" style="font-size:10px;font-weight:none;stroke:none; fill:#333399" text-anchor="left" /></g><path style="fill:none; stroke:#000000;stroke-width:1" d="M596.0 291.0 L740.0 287.0" /><polygon style="fill:#000000; stroke:#000000;" points=" 730 282 740 287 730 292 732 287" /><path style="fill:none; stroke:#000000;stroke-dasharray:2" d="M759.0 219.0 L757.0 270.0" /><path style="fill:none; stroke:#000000;stroke-width:1" d="M132.0 593.0 L131.0 649.0" /><polygon style="fill:#000000; stroke:#000000;" points=" 136 639 131 649 126 639 131 641" /><path style="fill:none; stroke:#000000;stroke-width:1" d="M299.0 532.0 L186.0 531.0" /><polygon style="fill:#000000; stroke:#000000;" points=" 196 536 186 531 196 526 194 531" /><path style="fill:none; stroke:#000000;stroke-width:1" d="M489.0 532.0 L406.0 532.0" /><polygon style="fill:#000000; stroke:#000000;" points=" 416 537 406 532 416 527 414 532" /><path style="fill:none; stroke:#000000;stroke-dasharray:2" d="M669.0 845.0 L574.0 847.0" /><path style="fill:none; stroke:#000000;stroke-dasharray:2" d="M193.0 175.0 L197.0 270.0" /><path style="fill:none; stroke:#000000;stroke-width:1" d="M543.0 249.0 L543.0 174.0" /><polygon style="fill:#000000; stroke:#000000;" points=" 538 184 543 174 548 184 543 182" /><path style="fill:none; stroke:#000000;stroke-width:1" d="M543.0 335.0 L543.0 479.0" /><polygon style="fill:#000000; stroke:#000000;" points=" 548 469 543 479 538 469 543 471" /><path style="fill:none; stroke:#000000;stroke-width:1" d="M543.0 174.0 L543.0 249.0" /><polygon style="fill:#000000; stroke:#000000;" points=" 548 239 543 249 538 239 543 241" /><path style="fill:none; stroke:#000000;stroke-width:1" d="M214.0 287.0 L489.0 291.0" /><polygon style="fill:#000000; stroke:#000000;" points=" 479 286 489 291 479 296 481 291" /><path style="fill:none; stroke:#000000;stroke-width:1" d="M406.0 844.0 L540.0 847.0" /><polygon style="fill:#000000; stroke:#000000;" points=" 530 842 540 847 530 852 532 847" /><path style="fill:none; stroke:#000000;stroke-width:1" d="M186.0 842.0 L299.0 842.0" /><polygon style="fill:#000000; stroke:#000000;" points=" 289 837 299 842 289 847 291 842" /><path style="fill:none; stroke:#000000;stroke-width:1" d="M131.0 786.0 L132.0 799.0" /><polygon style="fill:#000000; stroke:#000000;" points=" 136 789 132 799 126 789 131 791" /><defs><linearGradient xmlns:xlink="http://www.w3.org/1999/xlink" xlink:href="#linearGradient66FF6696FF96B6FFB6" id="linearGradient66FF6696FF96B6FFB6_151797772" x1="0" y1="56.0" x2="0" y2="91.0" gradientUnits="userSpaceOnUse" xlink:type="simple" xlink:actuate="onLoad" xlink:show="other" /><linearGradient id="linearGradient66FF6696FF96B6FFB6"><stop style="stop-color:#66FF66;stop-opacity:1;" offset="0.0" id="stop66FF66" /><stop style="stop-color:#96FF96;stop-opacity:1;" offset="0.5" id="stop96FF96" /><stop style="stop-color:#B6FFB6;stop-opacity:1;" offset="1.0" id="stopB6FFB6" /></linearGradient><linearGradient xmlns:xlink="http://www.w3.org/1999/xlink" xlink:href="#linearGradientF8FBFEEDF5FCDEEDFAD4E7F8E2E5E9" id="linearGradientF8FBFEEDF5FCDEEDFAD4E7F8E2E5E9_130789213" x1="0" y1="431.0" x2="0" y2="537.0" gradientUnits="userSpaceOnUse" xlink:type="simple" xlink:actuate="onLoad" xlink:show="other" /><linearGradient id="linearGradientF8FBFEEDF5FCDEEDFAD4E7F8E2E5E9"><stop style="stop-color:#F8FBFE;stop-opacity:1;" offset="0.0" id="stopF8FBFE" /><stop style="stop-color:#EDF5FC;stop-opacity:1;" offset="0.25" id="stopEDF5FC" /><stop style="stop-color:#DEEDFA;stop-opacity:1;" offset="0.5" id="stopDEEDFA" /><stop style="stop-color:#D4E7F8;stop-opacity:1;" offset="0.75" id="stopD4E7F8" /><stop style="stop-color:#E2E5E9;stop-opacity:1;" offset="1.0" id="stopE2E5E9" /></linearGradient><linearGradient xmlns:xlink="http://www.w3.org/1999/xlink" xlink:href="#linearGradientF8FBFEEDF5FCDEEDFAD4E7F8E2E5E9" id="linearGradientF8FBFEEDF5FCDEEDFAD4E7F8E2E5E9_66333564" x1="0" y1="422.0" x2="0" y2="528.0" gradientUnits="userSpaceOnUse" xlink:type="simple" xlink:actuate="onLoad" xlink:show="other" /><linearGradient xmlns:xlink="http://www.w3.org/1999/xlink" xlink:href="#linearGradientFF6666FF9696FFB6B6" id="linearGradientFF6666FF9696FFB6B6_1190569318" x1="0" y1="454.0" x2="0" y2="489.0" gradientUnits="userSpaceOnUse" xlink:type="simple" xlink:actuate="onLoad" xlink:show="other" /><linearGradient id="linearGradientFF6666FF9696FFB6B6"><stop style="stop-color:#FF6666;stop-opacity:1;" offset="0.0" id="stopFF6666" /><stop style="stop-color:#FF9696;stop-opacity:1;" offset="0.5" id="stopFF9696" /><stop style="stop-color:#FFB6B6;stop-opacity:1;" offset="1.0" id="stopFFB6B6" /></linearGradient><linearGradient xmlns:xlink="http://www.w3.org/1999/xlink" xlink:href="#linearGradientF8FBFEEDF5FCDEEDFAD4E7F8E2E5E9" id="linearGradientF8FBFEEDF5FCDEEDFAD4E7F8E2E5E9_756122004" x1="0" y1="722.0" x2="0" y2="828.0" gradientUnits="userSpaceOnUse" xlink:type="simple" xlink:actuate="onLoad" xlink:show="other" /><linearGradient xmlns:xlink="http://www.w3.org/1999/xlink" xlink:href="#linearGradientF8FBFEEDF5FCDEEDFAD4E7F8E2E5E9" id="linearGradientF8FBFEEDF5FCDEEDFAD4E7F8E2E5E9_2012897836" x1="0" y1="1091.0" x2="0" y2="1197.0" gradientUnits="userSpaceOnUse" xlink:type="simple" xlink:actuate="onLoad" xlink:show="other" /><linearGradient xmlns:xlink="http://www.w3.org/1999/xlink" xlink:href="#linearGradientF8FBFEEDF5FCDEEDFAD4E7F8E2E5E9" id="linearGradientF8FBFEEDF5FCDEEDFAD4E7F8E2E5E9_1442256996" x1="0" y1="1110.0" x2="0" y2="1216.0" gradientUnits="userSpaceOnUse" xlink:type="simple" xlink:actuate="onLoad" xlink:show="other" /><linearGradient xmlns:xlink="http://www.w3.org/1999/xlink" xlink:href="#linearGradientF8FBFEEDF5FCDEEDFAD4E7F8E2E5E9" id="linearGradientF8FBFEEDF5FCDEEDFAD4E7F8E2E5E9_651778601" x1="0" y1="1081.0" x2="0" y2="1187.0" gradientUnits="userSpaceOnUse" xlink:type="simple" xlink:actuate="onLoad" xlink:show="other" /><linearGradient xmlns:xlink="http://www.w3.org/1999/xlink" xlink:href="#linearGradientF8FBFEEDF5FCDEEDFAD4E7F8E2E5E9" id="linearGradientF8FBFEEDF5FCDEEDFAD4E7F8E2E5E9_132477511" x1="0" y1="1091.0" x2="0" y2="1197.0" gradientUnits="userSpaceOnUse" xlink:type="simple" xlink:actuate="onLoad" xlink:show="other" /><linearGradient xmlns:xlink="http://www.w3.org/1999/xlink" xlink:href="#linearGradientF8FBFEEDF5FCDEEDFAD4E7F8E2E5E9" id="linearGradientF8FBFEEDF5FCDEEDFAD4E7F8E2E5E9_589990805" x1="0" y1="1319.0" x2="0" y2="1425.0" gradientUnits="userSpaceOnUse" xlink:type="simple" xlink:actuate="onLoad" xlink:show="other" /><linearGradient xmlns:xlink="http://www.w3.org/1999/xlink" xlink:href="#linearGradientFAFBFCFFFFCC" id="linearGradientFAFBFCFFFFCC_1324585900" x1="0" y1="130.0" x2="0" y2="190.0" gradientUnits="userSpaceOnUse" xlink:type="simple" xlink:actuate="onLoad" xlink:show="other" /><linearGradient id="linearGradientFAFBFCFFFFCC"><stop style="stop-color:#FAFBFC;stop-opacity:1;" offset="0.0" id="stopFAFBFC" /><stop style="stop-color:#FFFFCC;stop-opacity:1;" offset="1.0" id="stopFFFFCC" /></linearGradient><linearGradient xmlns:xlink="http://www.w3.org/1999/xlink" xlink:href="#linearGradientF8FBFEEDF5FCDEEDFAD4E7F8E2E5E9" id="linearGradientF8FBFEEDF5FCDEEDFAD4E7F8E2E5E9_580354121" x1="0" y1="155.0" x2="0" y2="261.0" gradientUnits="userSpaceOnUse" xlink:type="simple" xlink:actuate="onLoad" xlink:show="other" /><linearGradient xmlns:xlink="http://www.w3.org/1999/xlink" xlink:href="#linearGradientF8FBFEEDF5FCDEEDFAD4E7F8E2E5E9" id="linearGradientF8FBFEEDF5FCDEEDFAD4E7F8E2E5E9_239909142" x1="0" y1="155.0" x2="0" y2="261.0" gradientUnits="userSpaceOnUse" xlink:type="simple" xlink:actuate="onLoad" xlink:show="other" /><linearGradient xmlns:xlink="http://www.w3.org/1999/xlink" xlink:href="#linearGradientF8FBFEEDF5FCDEEDFAD4E7F8E2E5E9" id="linearGradientF8FBFEEDF5FCDEEDFAD4E7F8E2E5E9_2043542889" x1="0" y1="265.0" x2="0" y2="371.0" gradientUnits="userSpaceOnUse" xlink:type="simple" xlink:actuate="onLoad" xlink:show="other" /><linearGradient xmlns:xlink="http://www.w3.org/1999/xlink" xlink:href="#linearGradientFAFBFCFFFFCC" id="linearGradientFAFBFCFFFFCC_728854287" x1="0" y1="242.0" x2="0" y2="302.0" gradientUnits="userSpaceOnUse" xlink:type="simple" xlink:actuate="onLoad" xlink:show="other" /><linearGradient xmlns:xlink="http://www.w3.org/1999/xlink" xlink:href="#linearGradientFAFBFCFFFFCC" id="linearGradientFAFBFCFFFFCC_897198048" x1="0" y1="580.0" x2="0" y2="640.0" gradientUnits="userSpaceOnUse" xlink:type="simple" xlink:actuate="onLoad" xlink:show="other" /><linearGradient xmlns:xlink="http://www.w3.org/1999/xlink" xlink:href="#linearGradientF8FBFEEDF5FCDEEDFAD4E7F8E2E5E9" id="linearGradientF8FBFEEDF5FCDEEDFAD4E7F8E2E5E9_1578478672" x1="0" y1="731.0" x2="0" y2="837.0" gradientUnits="userSpaceOnUse" xlink:type="simple" xlink:actuate="onLoad" xlink:show="other" /><linearGradient xmlns:xlink="http://www.w3.org/1999/xlink" xlink:href="#linearGradientF8FBFEEDF5FCDEEDFAD4E7F8E2E5E9" id="linearGradientF8FBFEEDF5FCDEEDFAD4E7F8E2E5E9_1210393678" x1="0" y1="951.0" x2="0" y2="1057.0" gradientUnits="userSpaceOnUse" xlink:type="simple" xlink:actuate="onLoad" xlink:show="other" /><linearGradient xmlns:xlink="http://www.w3.org/1999/xlink" xlink:href="#linearGradientFAFBFCFFFFCC" id="linearGradientFAFBFCFFFFCC_1745625938" x1="0" y1="883.0" x2="0" y2="943.0" gradientUnits="userSpaceOnUse" xlink:type="simple" xlink:actuate="onLoad" xlink:show="other" /><linearGradient xmlns:xlink="http://www.w3.org/1999/xlink" xlink:href="#linearGradientF8FBFEEDF5FCDEEDFAD4E7F8E2E5E9" id="linearGradientF8FBFEEDF5FCDEEDFAD4E7F8E2E5E9_212688020" x1="0" y1="731.0" x2="0" y2="837.0" gradientUnits="userSpaceOnUse" xlink:type="simple" xlink:actuate="onLoad" xlink:show="other" /><linearGradient xmlns:xlink="http://www.w3.org/1999/xlink" xlink:href="#linearGradientFAFBFCFFFFCC" id="linearGradientFAFBFCFFFFCC_2141783677" x1="0" y1="721.0" x2="0" y2="781.0" gradientUnits="userSpaceOnUse" xlink:type="simple" xlink:actuate="onLoad" xlink:show="other" /><linearGradient xmlns:xlink="http://www.w3.org/1999/xlink" xlink:href="#linearGradientFF6666FF9696FFB6B6" id="linearGradientFF6666FF9696FFB6B6_508517010" x1="0" y1="641.0" x2="0" y2="676.0" gradientUnits="userSpaceOnUse" xlink:type="simple" xlink:actuate="onLoad" xlink:show="other" /><linearGradient xmlns:xlink="http://www.w3.org/1999/xlink" xlink:href="#linearGradientF8FBFEEDF5FCDEEDFAD4E7F8E2E5E9" id="linearGradientF8FBFEEDF5FCDEEDFAD4E7F8E2E5E9_399568058" x1="0" y1="741.0" x2="0" y2="847.0" gradientUnits="userSpaceOnUse" xlink:type="simple" xlink:actuate="onLoad" xlink:show="other" /><linearGradient xmlns:xlink="http://www.w3.org/1999/xlink" xlink:href="#linearGradientFAFBFCFFFFCC" id="linearGradientFAFBFCFFFFCC_1912560424" x1="0" y1="1280.0" x2="0" y2="1340.0" gradientUnits="userSpaceOnUse" xlink:type="simple" xlink:actuate="onLoad" xlink:show="other" /><linearGradient xmlns:xlink="http://www.w3.org/1999/xlink" xlink:href="#linearGradientF8FBFEEDF5FCDEEDFAD4E7F8E2E5E9" id="linearGradientF8FBFEEDF5FCDEEDFAD4E7F8E2E5E9_1179787652" x1="0" y1="1300.0" x2="0" y2="1406.0" gradientUnits="userSpaceOnUse" xlink:type="simple" xlink:actuate="onLoad" xlink:show="other" /><linearGradient xmlns:xlink="http://www.w3.org/1999/xlink" xlink:href="#linearGradientFF6666FF9696FFB6B6" id="linearGradientFF6666FF9696FFB6B6_573405206" x1="0" y1="1334.0" x2="0" y2="1369.0" gradientUnits="userSpaceOnUse" xlink:type="simple" xlink:actuate="onLoad" xlink:show="other" /><linearGradient xmlns:xlink="http://www.w3.org/1999/xlink" xlink:href="#linearGradientFAFBFCFFFFCC" id="linearGradientFAFBFCFFFFCC_839443925" x1="0" y1="880.0" x2="0" y2="940.0" gradientUnits="userSpaceOnUse" xlink:type="simple" xlink:actuate="onLoad" xlink:show="other" /></defs></svg>
