<?xml version="1.0" encoding="UTF-8"?>
<svg xmlns="http://www.w3.org/2000/svg" style="stroke-dasharray:none; shape-rendering:auto; font-family:'Arial'; text-rendering:auto; fill-opacity:1; color-interpolation:auto; color-rendering:auto; font-size:12; fill:black; stroke:black; image-rendering:auto; stroke-miterlimit:10; stroke-linecap:square; stroke-linejoin:miter; font-style:normal; stroke-width:1; stroke-dashoffset:0; font-weight:normal; stroke-opacity:1;" contentScriptType="text/ecmascript" preserveAspectRatio="xMidYMid meet" zoomAndPan="magnify" version="1.0" contentStyleType="text/css" xml:xlink="http://www.w3.org/1999/xlink" width="1365" height="1351"><rect x="1" y="810" width="1360" height="541" ry="0" rx="0" style="stroke:#000000; fill:#82B0B7" /><g componentSequence="85"><text x="-1080" y="10" transform="rotate(270)" text-anchor="middle" style="font-weight:bold;font-size:10px;stroke:none; fill:#434343"><tspan dy="14" x="-1080">Departamento Pessoal</tspan></text></g><rect x="1" y="520" width="1360" height="291" ry="0" rx="0" style="stroke:#000000; fill:#9FCFFF" /><g componentSequence="55"><text x="-665" y="10" transform="rotate(270)" text-anchor="middle" style="font-weight:bold;font-size:10px;stroke:none; fill:#434343"><tspan dy="14" x="-665">Recursos Humanos</tspan></text></g><rect x="1" y="0" width="1360" height="521" ry="0" rx="0" style="stroke:#000000; fill:#DBDBDB" /><g componentSequence="51"><text x="-260" y="10" transform="rotate(270)" text-anchor="middle" style="font-weight:bold;font-size:10px;stroke:none; fill:#434343"><tspan dy="14" x="-260">Alteração de Função e Salário</tspan></text></g><g sequence="4"><ellipse cx="837" cy="37" rx="17" ry="17" stroke-width="1" style="fill:url(#linearGradient66FF6696FF96B6FFB6_1654340598);" stroke="336633" /></g><g sequence="5"><rect x="780" y="360" width="106" height="85" ry="5" rx="5" style="fill:url(#linearGradientF8FBFEEDF5FCDEEDFAD4E7F8E2E5E9_1818024405);" stroke="191970" /></g><g componentSequence="5"><text x="833" y="375" text-anchor="middle" style="font-weight:bold;font-size:10px;stroke:none; fill:#333399"><tspan dy="14" x="833">Valida</tspan><tspan dy="14" x="833">Solicitação</tspan></text></g><rect x="946" y="10" width="105" height="55" ry="5" rx="5" style="stroke:none; fill:#FFFFE0" /><g componentSequence="7"><text x="956" y="23" text-anchor="left" style="font-weight:bold;font-size:10px;stroke:none; fill:#000000"><tspan dy="14" x="956">Início</tspan></text></g><path style="fill:none; stroke-width:1; stroke:#000000;" d="M966.0 10.0 L946.0 10.0 L946.0 65.0 L966.0 65.0" /><g sequence="13"><rect x="1100" y="200" width="106" height="104" ry="5" rx="5" style="fill:url(#linearGradientF8FBFEEDF5FCDEEDFAD4E7F8E2E5E9_1751339142);" stroke="191970" /></g><g componentSequence="13"><text x="1153" y="215" text-anchor="middle" style="font-weight:bold;font-size:10px;stroke:none; fill:#333399"><tspan dy="14" x="1153">Correção</tspan><tspan dy="14" x="1153">de</tspan><tspan dy="14" x="1153">Solicitação</tspan></text></g><g sequence="18"><ellipse cx="1311" cy="407" rx="17" ry="17" stroke-width="3" style="fill:url(#linearGradientFF6666FF9696FFB6B6_761385966);" stroke="993333" /></g><g sequence="18"><polygon points=" 1302 403 1307 398 1312 403 1317 398 1322 403 1317 408 1322 413 1317 418 1312 413 1307 418 1302 413 1307 408" style="stroke:none; fill:#993333" /></g><rect x="1260" y="240" width="105" height="108" ry="5" rx="5" style="stroke:none; fill:#FFFFE0" /><g componentSequence="19"><text x="1270" y="263" text-anchor="left" style="font-weight:bold;font-size:10px;stroke:none; fill:#000000"><tspan dy="14" x="1270">Solicitação</tspan><tspan dy="14" x="1270">reprovada</tspan><tspan dy="14" x="1270">, cancela</tspan><tspan dy="14" x="1270">solicitação</tspan></text></g><path style="fill:none; stroke-width:1; stroke:#000000;" d="M1280.0 240.0 L1260.0 240.0 L1260.0 348.0 L1280.0 348.0" /><g sequence="21"><rect x="780" y="625" width="106" height="104" ry="5" rx="5" style="fill:url(#linearGradientF8FBFEEDF5FCDEEDFAD4E7F8E2E5E9_371071295);" stroke="191970" /></g><g componentSequence="21"><text x="833" y="640" text-anchor="middle" style="font-weight:bold;font-size:10px;stroke:none; fill:#333399"><tspan dy="14" x="833">Exame de</tspan><tspan dy="14" x="833">Mudança</tspan><tspan dy="14" x="833">de Função</tspan></text></g><g sequence="27"><rect x="80" y="980" width="106" height="104" ry="5" rx="5" style="fill:url(#linearGradientF8FBFEEDF5FCDEEDFAD4E7F8E2E5E9_470218840);" stroke="191970" /></g><g componentSequence="27"><text x="133" y="995" text-anchor="middle" style="font-weight:bold;font-size:10px;stroke:none; fill:#333399"><tspan dy="14" x="133">Inserir</tspan><tspan dy="14" x="133">alterações</tspan><tspan dy="14" x="133">no RM</tspan></text></g><g sequence="29"><rect x="320" y="1000" width="106" height="66" ry="5" rx="5" style="fill:url(#linearGradientF8FBFEEDF5FCDEEDFAD4E7F8E2E5E9_1855155262);" stroke="191970" /></g><g componentSequence="29"><text x="373" y="1022" text-anchor="middle" style="font-weight:bold;font-size:10px;stroke:none; fill:#333399"><tspan dy="14" x="373">Esocial</tspan></text></g><g sequence="31"><rect x="550" y="970" width="106" height="123" ry="5" rx="5" style="fill:url(#linearGradientF8FBFEEDF5FCDEEDFAD4E7F8E2E5E9_1296968865);" stroke="191970" /></g><g componentSequence="31"><text x="603" y="985" text-anchor="middle" style="font-weight:bold;font-size:10px;stroke:none; fill:#333399"><tspan dy="14" x="603">Emissão</tspan><tspan dy="14" x="603">do</tspan><tspan dy="14" x="603">Aditivo/Ter</tspan><tspan dy="14" x="603">mo</tspan></text></g><g sequence="33"><rect x="790" y="980" width="106" height="104" ry="5" rx="5" style="fill:url(#linearGradientF8FBFEEDF5FCDEEDFAD4E7F8E2E5E9_729744342);" stroke="191970" /></g><g componentSequence="33"><text x="843" y="995" text-anchor="middle" style="font-weight:bold;font-size:10px;stroke:none; fill:#333399"><tspan dy="14" x="843">Enviar</tspan><tspan dy="14" x="843">Termo Para</tspan><tspan dy="14" x="843">Filial</tspan></text></g><g sequence="35"><rect x="550" y="1220" width="106" height="66" ry="5" rx="5" style="fill:url(#linearGradientF8FBFEEDF5FCDEEDFAD4E7F8E2E5E9_1112793);" stroke="191970" /></g><g componentSequence="35"><text x="603" y="1242" text-anchor="middle" style="font-weight:bold;font-size:10px;stroke:none; fill:#333399"><tspan dy="14" x="603">Assinatura</tspan></text></g><g sequence="37"><ellipse cx="127" cy="1257" rx="17" ry="17" stroke-width="3" style="fill:url(#linearGradientFF6666FF9696FFB6B6_1972864121);" stroke="993333" /></g><rect x="70" y="1140" width="105" height="70" ry="5" rx="5" style="stroke:none; fill:#FFFFE0" /><g componentSequence="41"><text x="80" y="1163" text-anchor="left" style="font-weight:bold;font-size:10px;stroke:none; fill:#000000"><tspan dy="14" x="80">Finaliza a</tspan><tspan dy="14" x="80">Solicitação</tspan></text></g><path style="fill:none; stroke-width:1; stroke:#000000;" d="M90.0 1140.0 L70.0 1140.0 L70.0 1210.0 L90.0 1210.0" /><g sequence="48"><polygon points=" 1230 520 1260 490 1290 520 1260 550 1230 520" style="fill:url(#linearGradientFAFBFCFFFFCC_1224774990);" stroke="000000" /></g><g componentSequence="48"><text x="1260" y="560" text-anchor="middle" style="font-weight:bold;font-size:10px;stroke:none; fill:#333399"><tspan dy="14" x="1260">Aprov</tspan><tspan dy="14" x="1260">ado</tspan></text></g><g sequence="56"><polygon points=" 810 120 840 90 870 120 840 150 810 120" style="fill:url(#linearGradientFAFBFCFFFFCC_447893003);" stroke="000000" /></g><g componentSequence="56"><text x="840" y="160" text-anchor="middle" style="font-weight:bold;font-size:10px;stroke:none; fill:#333399"><tspan dy="14" x="840">Verific</tspan><tspan dy="14" x="840">ar</tspan><tspan dy="14" x="840">Cargo</tspan></text></g><g sequence="58"><rect x="600" y="110" width="106" height="85" ry="5" rx="5" style="fill:url(#linearGradientF8FBFEEDF5FCDEEDFAD4E7F8E2E5E9_494119350);" stroke="191970" /></g><g componentSequence="58"><text x="653" y="125" text-anchor="middle" style="font-weight:bold;font-size:10px;stroke:none; fill:#333399"><tspan dy="14" x="653">Validação</tspan><tspan dy="14" x="653">do Cargo</tspan></text></g><g sequence="60"><polygon points=" 450 227 480 197 510 227 480 257 450 227" style="fill:url(#linearGradientFAFBFCFFFFCC_1418609197);" stroke="000000" /></g><g componentSequence="60"><text x="480" y="267" text-anchor="middle" style="font-weight:bold;font-size:10px;stroke:none; fill:#333399"><tspan dy="14" x="480">Verific</tspan><tspan dy="14" x="480">ar</tspan><tspan dy="14" x="480">PPRA</tspan></text></g><g sequence="61"><rect x="230" y="220" width="106" height="85" ry="5" rx="5" style="fill:url(#linearGradientF8FBFEEDF5FCDEEDFAD4E7F8E2E5E9_426317591);" stroke="191970" /></g><g componentSequence="61"><text x="283" y="235" text-anchor="middle" style="font-weight:bold;font-size:10px;stroke:none; fill:#333399"><tspan dy="14" x="283">PPRA do</tspan><tspan dy="14" x="283">Cargo</tspan></text></g><g sequence="66"><rect x="590" y="630" width="106" height="85" ry="5" rx="5" style="fill:url(#linearGradientF8FBFEEDF5FCDEEDFAD4E7F8E2E5E9_295948327);" stroke="191970" /></g><g componentSequence="66"><text x="643" y="645" text-anchor="middle" style="font-weight:bold;font-size:10px;stroke:none; fill:#333399"><tspan dy="14" x="643">Receber</tspan><tspan dy="14" x="643">Exame</tspan></text></g><g sequence="68"><rect x="590" y="850" width="106" height="85" ry="5" rx="5" style="fill:url(#linearGradientF8FBFEEDF5FCDEEDFAD4E7F8E2E5E9_295560636);" stroke="191970" /></g><g componentSequence="68"><text x="643" y="865" text-anchor="middle" style="font-weight:bold;font-size:10px;stroke:none; fill:#333399"><tspan dy="14" x="643">Validar</tspan><tspan dy="14" x="643">Exame</tspan></text></g><g sequence="72"><rect x="380" y="630" width="106" height="104" ry="5" rx="5" style="fill:url(#linearGradientF8FBFEEDF5FCDEEDFAD4E7F8E2E5E9_933511816);" stroke="191970" /></g><g componentSequence="72"><text x="433" y="645" text-anchor="middle" style="font-weight:bold;font-size:10px;stroke:none; fill:#333399"><tspan dy="14" x="433">Inserir</tspan><tspan dy="14" x="433">Exame no</tspan><tspan dy="14" x="433">RM</tspan></text></g><g sequence="75"><polygon points=" 250 650 280 620 310 650 280 680 250 650" style="fill:url(#linearGradientFAFBFCFFFFCC_1722038980);" stroke="000000" /></g><g componentSequence="75"><text x="280" y="690" text-anchor="middle" style="font-weight:bold;font-size:10px;stroke:none; fill:#333399"><tspan dy="14" x="280">Exclu</tspan><tspan dy="14" x="280">sivo</tspan></text></g><g sequence="77"><rect x="80" y="640" width="106" height="85" ry="5" rx="5" style="fill:url(#linearGradientF8FBFEEDF5FCDEEDFAD4E7F8E2E5E9_1762258143);" stroke="191970" /></g><g componentSequence="77"><text x="133" y="655" text-anchor="middle" style="font-weight:bold;font-size:10px;stroke:none; fill:#333399"><tspan dy="14" x="133">Abrir</tspan><tspan dy="14" x="133">chamado</tspan></text></g><g sequence="79"><ellipse cx="277" cy="557" rx="17" ry="17" stroke-width="3" style="fill:url(#linearGradientFF6666FF9696FFB6B6_398939207);" stroke="993333" /></g><g sequence="81"><polygon points=" 403 812 433 782 463 812 433 842 403 812" style="fill:url(#linearGradientFAFBFCFFFFCC_40035381);" stroke="000000" /></g><g componentSequence="81"><text x="433" y="852" text-anchor="middle" style="font-weight:bold;font-size:10px;stroke:none; fill:#333399"><tspan dy="14" x="433">Exam</tspan><tspan dy="14" x="433">e OK</tspan></text></g><g sequence="86"><polygon points=" 810 1220 840 1190 870 1220 840 1250 810 1220" style="fill:url(#linearGradientFAFBFCFFFFCC_1171754151);" stroke="000000" /></g><g componentSequence="86"><text x="840" y="1260" text-anchor="middle" style="font-weight:bold;font-size:10px;stroke:none; fill:#333399"><tspan dy="14" x="840">Enca</tspan><tspan dy="14" x="840">minha</tspan><tspan dy="14" x="840">r P...</tspan></text></g><g sequence="89"><rect x="320" y="1200" width="106" height="104" ry="5" rx="5" style="fill:url(#linearGradientF8FBFEEDF5FCDEEDFAD4E7F8E2E5E9_1671360470);" stroke="191970" /></g><g componentSequence="89"><text x="373" y="1215" text-anchor="middle" style="font-weight:bold;font-size:10px;stroke:none; fill:#333399"><tspan dy="14" x="373">Arquivame</tspan><tspan dy="14" x="373">nto do</tspan><tspan dy="14" x="373">Termo</tspan></text></g><g sequence="92"><rect x="230" y="110" width="106" height="85" ry="5" rx="5" style="fill:url(#linearGradientF8FBFEEDF5FCDEEDFAD4E7F8E2E5E9_1322711694);" stroke="191970" /></g><g componentSequence="92"><text x="283" y="125" text-anchor="middle" style="font-weight:bold;font-size:10px;stroke:none; fill:#333399"><tspan dy="14" x="283">Correção</tspan><tspan dy="14" x="283">do Cargo</tspan></text></g><g sequence="95"><polygon points=" 800 810 830 780 860 810 830 840 800 810" style="fill:url(#linearGradientFAFBFCFFFFCC_1535175725);" stroke="000000" /></g><g componentSequence="95"><text x="830" y="850" text-anchor="middle" style="font-weight:bold;font-size:10px;stroke:none; fill:#333399"><tspan dy="14" x="830">Exam</tspan><tspan dy="14" x="830">e com</tspan><tspan dy="14" x="830">d...</tspan></text></g><g sequence="98"><polygon points=" 1000 380 1030 350 1060 380 1030 410 1000 380" style="fill:url(#linearGradientFAFBFCFFFFCC_575402318);" stroke="000000" /></g><g componentSequence="98"><text x="1030" y="420" text-anchor="middle" style="font-weight:bold;font-size:10px;stroke:none; fill:#333399"><tspan dy="14" x="1030">Exclu</tspan><tspan dy="14" x="1030">sivo</tspan></text></g><g componentSequence="8"><text x="910" y="37" style="font-size:10px;font-weight:none;stroke:none; fill:#333399" text-anchor="left" /></g><g componentSequence="20"><text x="1322" y="369" style="font-size:10px;font-weight:none;stroke:none; fill:#333399" text-anchor="left" /></g><g componentSequence="30"><text x="263" y="1032" style="font-size:10px;font-weight:none;stroke:none; fill:#333399" text-anchor="left" /></g><g componentSequence="32"><text x="498" y="1032" style="font-size:10px;font-weight:none;stroke:none; fill:#333399" text-anchor="left" /></g><g componentSequence="34"><text x="733" y="1031" style="font-size:10px;font-weight:none;stroke:none; fill:#333399" text-anchor="left" /></g><g componentSequence="42"><text x="135" y="1225" style="font-size:10px;font-weight:none;stroke:none; fill:#333399" text-anchor="left" /></g><g componentSequence="50"><text x="1119" y="677" style="font-size:10px;font-weight:none;stroke:none; fill:#333399" text-anchor="left" /></g><g componentSequence="57"><text x="848" y="72" style="font-size:10px;font-weight:none;stroke:none; fill:#333399" text-anchor="left" /></g><g componentSequence="59"><text x="768" y="156" style="font-size:10px;font-weight:none;stroke:none; fill:#333399" text-anchor="left" /></g><g componentSequence="62"><text x="403" y="264" style="font-size:10px;font-weight:none;stroke:none; fill:#333399" text-anchor="left" /></g><g componentSequence="63"><text x="531" y="153" style="font-size:10px;font-weight:none;stroke:none; fill:#333399" text-anchor="left" /></g><g componentSequence="65"><text x="569" y="331" style="font-size:10px;font-weight:none;stroke:none; fill:#333399" text-anchor="left" /></g><g componentSequence="67"><text x="748" y="674" style="font-size:10px;font-weight:none;stroke:none; fill:#333399" text-anchor="left" /></g><g componentSequence="69"><text x="653" y="782" style="font-size:10px;font-weight:none;stroke:none; fill:#333399" text-anchor="left" /></g><g componentSequence="70"><text x="844" y="292" style="font-size:10px;font-weight:none;stroke:none; fill:#333399" text-anchor="left" /></g><g componentSequence="71"><text x="730" y="265" style="font-size:10px;font-weight:none;stroke:none; fill:#333399" text-anchor="left" /></g><g componentSequence="76"><text x="355" y="680" style="font-size:10px;font-weight:none;stroke:none; fill:#333399" text-anchor="left" /></g><g componentSequence="78"><text x="228" y="680" style="font-size:10px;font-weight:none;stroke:none; fill:#333399" text-anchor="left" /></g><g componentSequence="80"><text x="288" y="597" style="font-size:10px;font-weight:none;stroke:none; fill:#333399" text-anchor="left" /></g><g componentSequence="82"><text x="539" y="840" style="font-size:10px;font-weight:none;stroke:none; fill:#333399" text-anchor="left" /></g><g componentSequence="83"><text x="443" y="758" style="font-size:10px;font-weight:none;stroke:none; fill:#333399" text-anchor="left" /></g><g componentSequence="84"><text x="143" y="852" style="font-size:10px;font-weight:none;stroke:none; fill:#333399" text-anchor="left" /></g><g componentSequence="87"><text x="851" y="1137" style="font-size:10px;font-weight:none;stroke:none; fill:#333399" text-anchor="left" /></g><g componentSequence="88"><text x="743" y="1256" style="font-size:10px;font-weight:none;stroke:none; fill:#333399" text-anchor="left" /></g><g componentSequence="90"><text x="498" y="1252" style="font-size:10px;font-weight:none;stroke:none; fill:#333399" text-anchor="left" /></g><g componentSequence="91"><text x="242" y="1255" style="font-size:10px;font-weight:none;stroke:none; fill:#333399" text-anchor="left" /></g><g componentSequence="93"><text x="478" y="152" style="font-size:10px;font-weight:none;stroke:none; fill:#333399" text-anchor="left" /></g><g componentSequence="94"><text x="478" y="152" style="font-size:10px;font-weight:none;stroke:none; fill:#333399" text-anchor="left" /></g><g componentSequence="96"><text x="755" y="841" style="font-size:10px;font-weight:none;stroke:none; fill:#333399" text-anchor="left" /></g><g componentSequence="97"><text x="842" y="754" style="font-size:10px;font-weight:none;stroke:none; fill:#333399" text-anchor="left" /></g><g componentSequence="99"><text x="953" y="406" style="font-size:10px;font-weight:none;stroke:none; fill:#333399" text-anchor="left" /></g><g componentSequence="100"><text x="1187" y="408" style="font-size:10px;font-weight:none;stroke:none; fill:#333399" text-anchor="left" /></g><g componentSequence="101"><text x="1165" y="404" style="font-size:10px;font-weight:none;stroke:none; fill:#333399" text-anchor="left" /></g><g componentSequence="102"><text x="921" y="249" style="font-size:10px;font-weight:none;stroke:none; fill:#333399" text-anchor="left" /></g><g componentSequence="103"><text x="1208" y="409" style="font-size:10px;font-weight:none;stroke:none; fill:#333399" text-anchor="left" /></g><path style="fill:none; stroke:#000000;stroke-width:1" d="M837.0 54.0 L838.0 89.0" /><polygon style="fill:#000000; stroke:#000000;" points=" 843 79 838 89 833 79 838 81" /><path style="fill:none; stroke:#000000;stroke-dasharray:2" d="M945.0 37.0 L855.0 37.0" /><path style="fill:none; stroke:#000000;stroke-width:1" d="M886.0 404.0 L999.0 407.0" /><polygon style="fill:#000000; stroke:#000000;" points=" 989 402 999 407 989 412 991 407" /><path style="fill:none; stroke:#000000;stroke-width:1" d="M283.0 305.0 L283.0 331.0 L833.0 331.0 L833.0 359.0" /><polygon style="fill:#000000; stroke:#000000;" points=" 838 349 833 359 828 349 833 351" /><path style="fill:none; stroke:#000000;stroke-width:1" d="M836.0 226.0 L835.0 235.0 L833.0 359.0" /><polygon style="fill:#000000; stroke:#000000;" points=" 838 349 833 359 828 349 833 351" /><path style="fill:none; stroke:#000000;stroke-width:1" d="M510.0 265.0 L835.0 265.0 L833.0 359.0" /><polygon style="fill:#000000; stroke:#000000;" points=" 838 349 833 359 828 349 833 351" /><path style="fill:none; stroke:#000000;stroke-width:1" d="M1099.0 251.0 L834.0 248.0 L833.0 359.0" /><polygon style="fill:#000000; stroke:#000000;" points=" 838 349 833 359 828 349 833 351" /><path style="fill:none; stroke:#000000;stroke-width:1" d="M1060.0 408.0 L1155.0 409.0 L1153.0 304.0" /><polygon style="fill:#000000; stroke:#000000;" points=" 1148 314 1153 304 1158 314 1153 312" /><path style="fill:none; stroke:#000000;stroke-dasharray:2" d="M1312.0 348.0 L1311.0 390.0" /><path style="fill:none; stroke:#000000;stroke-width:1" d="M1060.0 408.0 L1294.0 407.0" /><polygon style="fill:#000000; stroke:#000000;" points=" 1284 402 1294 407 1284 412 1286 407" /><path style="fill:none; stroke:#000000;stroke-width:1" d="M779.0 675.0 L696.0 673.0" /><polygon style="fill:#000000; stroke:#000000;" points=" 706 678 696 673 706 668 704 673" /><path style="fill:none; stroke:#000000;stroke-width:1" d="M1261.0 607.0 L1262.0 677.0 L886.0 677.0" /><polygon style="fill:#000000; stroke:#000000;" points=" 896 682 886 677 896 672 894 677" /><path style="fill:none; stroke:#000000;stroke-width:1" d="M831.0 779.0 L832.0 729.0" /><polygon style="fill:#000000; stroke:#000000;" points=" 827 739 832 729 837 739 832 737" /><path style="fill:none; stroke:#000000;stroke-width:1" d="M186.0 1032.0 L319.0 1032.0" /><polygon style="fill:#000000; stroke:#000000;" points=" 309 1027 319 1032 309 1037 311 1032" /><path style="fill:none; stroke:#000000;stroke-width:1" d="M133.0 725.0 L133.0 979.0" /><polygon style="fill:#000000; stroke:#000000;" points=" 138 969 133 979 128 969 133 971" /><path style="fill:none; stroke:#000000;stroke-width:1" d="M426.0 1032.0 L549.0 1031.0" /><polygon style="fill:#000000; stroke:#000000;" points=" 539 1026 549 1031 539 1036 541 1031" /><path style="fill:none; stroke:#000000;stroke-width:1" d="M656.0 1031.0 L789.0 1031.0" /><polygon style="fill:#000000; stroke:#000000;" points=" 779 1026 789 1031 779 1036 781 1031" /><path style="fill:none; stroke:#000000;stroke-width:1" d="M842.0 1084.0 L841.0 1189.0" /><polygon style="fill:#000000; stroke:#000000;" points=" 846 1179 841 1189 836 1179 841 1181" /><path style="fill:none; stroke:#000000;stroke-width:1" d="M549.0 1252.0 L426.0 1252.0" /><polygon style="fill:#000000; stroke:#000000;" points=" 436 1257 426 1252 436 1247 434 1252" /><path style="fill:none; stroke:#000000;stroke-width:1" d="M809.0 1257.0 L656.0 1254.0" /><polygon style="fill:#000000; stroke:#000000;" points=" 666 1259 656 1254 666 1249 664 1254" /><path style="fill:none; stroke:#000000;stroke-dasharray:2" d="M124.0 1210.0 L126.0 1240.0" /><path style="fill:none; stroke:#000000;stroke-width:1" d="M319.0 1253.0 L144.0 1257.0" /><polygon style="fill:#000000; stroke:#000000;" points=" 154 1262 144 1257 154 1252 152 1257" /><path style="fill:none; stroke:#000000;stroke-width:1" d="M1060.0 408.0 L1255.0 409.0 L1258.0 489.0" /><polygon style="fill:#000000; stroke:#000000;" points=" 1263 479 1258 489 1253 479 1258 481" /><path style="fill:none; stroke:#000000;stroke-width:1" d="M809.0 157.0 L706.0 154.0" /><polygon style="fill:#000000; stroke:#000000;" points=" 716 159 706 154 716 149 714 154" /><path style="fill:none; stroke:#000000;stroke-width:1" d="M599.0 152.0 L486.0 153.0 L483.0 196.0" /><polygon style="fill:#000000; stroke:#000000;" points=" 489 186 483 196 479 186 484 188" /><path style="fill:none; stroke:#000000;stroke-width:1" d="M599.0 152.0 L336.0 152.0" /><polygon style="fill:#000000; stroke:#000000;" points=" 346 157 336 152 346 147 344 152" /><path style="fill:none; stroke:#000000;stroke-width:1" d="M336.0 152.0 L599.0 152.0" /><polygon style="fill:#000000; stroke:#000000;" points=" 589 147 599 152 589 157 591 152" /><path style="fill:none; stroke:#000000;stroke-width:1" d="M449.0 264.0 L336.0 263.0" /><polygon style="fill:#000000; stroke:#000000;" points=" 346 268 336 263 346 258 344 263" /><path style="fill:none; stroke:#000000;stroke-width:1" d="M643.0 715.0 L643.0 849.0" /><polygon style="fill:#000000; stroke:#000000;" points=" 648 839 643 849 638 839 643 841" /><path style="fill:none; stroke:#000000;stroke-width:1" d="M589.0 867.0 L532.0 840.0 L463.0 840.0" /><polygon style="fill:#000000; stroke:#000000;" points=" 473 845 463 840 473 835 471 840" /><path style="fill:none; stroke:#000000;stroke-width:1" d="M696.0 865.0 L748.0 839.0 L799.0 844.0" /><polygon style="fill:#000000; stroke:#000000;" points=" 790 838 799 844 789 848 791 843" /><path style="fill:none; stroke:#000000;stroke-width:1" d="M379.0 680.0 L310.0 679.0" /><polygon style="fill:#000000; stroke:#000000;" points=" 320 684 310 679 320 674 318 679" /><path style="fill:none; stroke:#000000;stroke-width:1" d="M433.0 781.0 L433.0 734.0" /><polygon style="fill:#000000; stroke:#000000;" points=" 428 744 433 734 438 744 433 742" /><path style="fill:none; stroke:#000000;stroke-width:1" d="M249.0 679.0 L186.0 681.0" /><polygon style="fill:#000000; stroke:#000000;" points=" 196 686 186 681 196 676 194 681" /><path style="fill:none; stroke:#000000;stroke-width:1" d="M278.0 619.0 L277.0 574.0" /><polygon style="fill:#000000; stroke:#000000;" points=" 272 584 277 574 282 584 277 582" /><defs><linearGradient xmlns:xlink="http://www.w3.org/1999/xlink" xlink:href="#linearGradient66FF6696FF96B6FFB6" id="linearGradient66FF6696FF96B6FFB6_1654340598" x1="0" y1="20.0" x2="0" y2="55.0" gradientUnits="userSpaceOnUse" xlink:type="simple" xlink:actuate="onLoad" xlink:show="other" /><linearGradient id="linearGradient66FF6696FF96B6FFB6"><stop style="stop-color:#66FF66;stop-opacity:1;" offset="0.0" id="stop66FF66" /><stop style="stop-color:#96FF96;stop-opacity:1;" offset="0.5" id="stop96FF96" /><stop style="stop-color:#B6FFB6;stop-opacity:1;" offset="1.0" id="stopB6FFB6" /></linearGradient><linearGradient xmlns:xlink="http://www.w3.org/1999/xlink" xlink:href="#linearGradientF8FBFEEDF5FCDEEDFAD4E7F8E2E5E9" id="linearGradientF8FBFEEDF5FCDEEDFAD4E7F8E2E5E9_1818024405" x1="0" y1="360.0" x2="0" y2="466.0" gradientUnits="userSpaceOnUse" xlink:type="simple" xlink:actuate="onLoad" xlink:show="other" /><linearGradient id="linearGradientF8FBFEEDF5FCDEEDFAD4E7F8E2E5E9"><stop style="stop-color:#F8FBFE;stop-opacity:1;" offset="0.0" id="stopF8FBFE" /><stop style="stop-color:#EDF5FC;stop-opacity:1;" offset="0.25" id="stopEDF5FC" /><stop style="stop-color:#DEEDFA;stop-opacity:1;" offset="0.5" id="stopDEEDFA" /><stop style="stop-color:#D4E7F8;stop-opacity:1;" offset="0.75" id="stopD4E7F8" /><stop style="stop-color:#E2E5E9;stop-opacity:1;" offset="1.0" id="stopE2E5E9" /></linearGradient><linearGradient xmlns:xlink="http://www.w3.org/1999/xlink" xlink:href="#linearGradientF8FBFEEDF5FCDEEDFAD4E7F8E2E5E9" id="linearGradientF8FBFEEDF5FCDEEDFAD4E7F8E2E5E9_1751339142" x1="0" y1="200.0" x2="0" y2="306.0" gradientUnits="userSpaceOnUse" xlink:type="simple" xlink:actuate="onLoad" xlink:show="other" /><linearGradient xmlns:xlink="http://www.w3.org/1999/xlink" xlink:href="#linearGradientFF6666FF9696FFB6B6" id="linearGradientFF6666FF9696FFB6B6_761385966" x1="0" y1="390.0" x2="0" y2="425.0" gradientUnits="userSpaceOnUse" xlink:type="simple" xlink:actuate="onLoad" xlink:show="other" /><linearGradient id="linearGradientFF6666FF9696FFB6B6"><stop style="stop-color:#FF6666;stop-opacity:1;" offset="0.0" id="stopFF6666" /><stop style="stop-color:#FF9696;stop-opacity:1;" offset="0.5" id="stopFF9696" /><stop style="stop-color:#FFB6B6;stop-opacity:1;" offset="1.0" id="stopFFB6B6" /></linearGradient><linearGradient xmlns:xlink="http://www.w3.org/1999/xlink" xlink:href="#linearGradientF8FBFEEDF5FCDEEDFAD4E7F8E2E5E9" id="linearGradientF8FBFEEDF5FCDEEDFAD4E7F8E2E5E9_371071295" x1="0" y1="625.0" x2="0" y2="731.0" gradientUnits="userSpaceOnUse" xlink:type="simple" xlink:actuate="onLoad" xlink:show="other" /><linearGradient xmlns:xlink="http://www.w3.org/1999/xlink" xlink:href="#linearGradientF8FBFEEDF5FCDEEDFAD4E7F8E2E5E9" id="linearGradientF8FBFEEDF5FCDEEDFAD4E7F8E2E5E9_470218840" x1="0" y1="980.0" x2="0" y2="1086.0" gradientUnits="userSpaceOnUse" xlink:type="simple" xlink:actuate="onLoad" xlink:show="other" /><linearGradient xmlns:xlink="http://www.w3.org/1999/xlink" xlink:href="#linearGradientF8FBFEEDF5FCDEEDFAD4E7F8E2E5E9" id="linearGradientF8FBFEEDF5FCDEEDFAD4E7F8E2E5E9_1855155262" x1="0" y1="1000.0" x2="0" y2="1106.0" gradientUnits="userSpaceOnUse" xlink:type="simple" xlink:actuate="onLoad" xlink:show="other" /><linearGradient xmlns:xlink="http://www.w3.org/1999/xlink" xlink:href="#linearGradientF8FBFEEDF5FCDEEDFAD4E7F8E2E5E9" id="linearGradientF8FBFEEDF5FCDEEDFAD4E7F8E2E5E9_1296968865" x1="0" y1="970.0" x2="0" y2="1076.0" gradientUnits="userSpaceOnUse" xlink:type="simple" xlink:actuate="onLoad" xlink:show="other" /><linearGradient xmlns:xlink="http://www.w3.org/1999/xlink" xlink:href="#linearGradientF8FBFEEDF5FCDEEDFAD4E7F8E2E5E9" id="linearGradientF8FBFEEDF5FCDEEDFAD4E7F8E2E5E9_729744342" x1="0" y1="980.0" x2="0" y2="1086.0" gradientUnits="userSpaceOnUse" xlink:type="simple" xlink:actuate="onLoad" xlink:show="other" /><linearGradient xmlns:xlink="http://www.w3.org/1999/xlink" xlink:href="#linearGradientF8FBFEEDF5FCDEEDFAD4E7F8E2E5E9" id="linearGradientF8FBFEEDF5FCDEEDFAD4E7F8E2E5E9_1112793" x1="0" y1="1220.0" x2="0" y2="1326.0" gradientUnits="userSpaceOnUse" xlink:type="simple" xlink:actuate="onLoad" xlink:show="other" /><linearGradient xmlns:xlink="http://www.w3.org/1999/xlink" xlink:href="#linearGradientFF6666FF9696FFB6B6" id="linearGradientFF6666FF9696FFB6B6_1972864121" x1="0" y1="1240.0" x2="0" y2="1275.0" gradientUnits="userSpaceOnUse" xlink:type="simple" xlink:actuate="onLoad" xlink:show="other" /><linearGradient xmlns:xlink="http://www.w3.org/1999/xlink" xlink:href="#linearGradientFAFBFCFFFFCC" id="linearGradientFAFBFCFFFFCC_1224774990" x1="0" y1="490.0" x2="0" y2="550.0" gradientUnits="userSpaceOnUse" xlink:type="simple" xlink:actuate="onLoad" xlink:show="other" /><linearGradient id="linearGradientFAFBFCFFFFCC"><stop style="stop-color:#FAFBFC;stop-opacity:1;" offset="0.0" id="stopFAFBFC" /><stop style="stop-color:#FFFFCC;stop-opacity:1;" offset="1.0" id="stopFFFFCC" /></linearGradient><linearGradient xmlns:xlink="http://www.w3.org/1999/xlink" xlink:href="#linearGradientFAFBFCFFFFCC" id="linearGradientFAFBFCFFFFCC_447893003" x1="0" y1="90.0" x2="0" y2="150.0" gradientUnits="userSpaceOnUse" xlink:type="simple" xlink:actuate="onLoad" xlink:show="other" /><linearGradient xmlns:xlink="http://www.w3.org/1999/xlink" xlink:href="#linearGradientF8FBFEEDF5FCDEEDFAD4E7F8E2E5E9" id="linearGradientF8FBFEEDF5FCDEEDFAD4E7F8E2E5E9_494119350" x1="0" y1="110.0" x2="0" y2="216.0" gradientUnits="userSpaceOnUse" xlink:type="simple" xlink:actuate="onLoad" xlink:show="other" /><linearGradient xmlns:xlink="http://www.w3.org/1999/xlink" xlink:href="#linearGradientFAFBFCFFFFCC" id="linearGradientFAFBFCFFFFCC_1418609197" x1="0" y1="197.0" x2="0" y2="257.0" gradientUnits="userSpaceOnUse" xlink:type="simple" xlink:actuate="onLoad" xlink:show="other" /><linearGradient xmlns:xlink="http://www.w3.org/1999/xlink" xlink:href="#linearGradientF8FBFEEDF5FCDEEDFAD4E7F8E2E5E9" id="linearGradientF8FBFEEDF5FCDEEDFAD4E7F8E2E5E9_426317591" x1="0" y1="220.0" x2="0" y2="326.0" gradientUnits="userSpaceOnUse" xlink:type="simple" xlink:actuate="onLoad" xlink:show="other" /><linearGradient xmlns:xlink="http://www.w3.org/1999/xlink" xlink:href="#linearGradientF8FBFEEDF5FCDEEDFAD4E7F8E2E5E9" id="linearGradientF8FBFEEDF5FCDEEDFAD4E7F8E2E5E9_295948327" x1="0" y1="630.0" x2="0" y2="736.0" gradientUnits="userSpaceOnUse" xlink:type="simple" xlink:actuate="onLoad" xlink:show="other" /><linearGradient xmlns:xlink="http://www.w3.org/1999/xlink" xlink:href="#linearGradientF8FBFEEDF5FCDEEDFAD4E7F8E2E5E9" id="linearGradientF8FBFEEDF5FCDEEDFAD4E7F8E2E5E9_295560636" x1="0" y1="850.0" x2="0" y2="956.0" gradientUnits="userSpaceOnUse" xlink:type="simple" xlink:actuate="onLoad" xlink:show="other" /><linearGradient xmlns:xlink="http://www.w3.org/1999/xlink" xlink:href="#linearGradientF8FBFEEDF5FCDEEDFAD4E7F8E2E5E9" id="linearGradientF8FBFEEDF5FCDEEDFAD4E7F8E2E5E9_933511816" x1="0" y1="630.0" x2="0" y2="736.0" gradientUnits="userSpaceOnUse" xlink:type="simple" xlink:actuate="onLoad" xlink:show="other" /><linearGradient xmlns:xlink="http://www.w3.org/1999/xlink" xlink:href="#linearGradientFAFBFCFFFFCC" id="linearGradientFAFBFCFFFFCC_1722038980" x1="0" y1="620.0" x2="0" y2="680.0" gradientUnits="userSpaceOnUse" xlink:type="simple" xlink:actuate="onLoad" xlink:show="other" /><linearGradient xmlns:xlink="http://www.w3.org/1999/xlink" xlink:href="#linearGradientF8FBFEEDF5FCDEEDFAD4E7F8E2E5E9" id="linearGradientF8FBFEEDF5FCDEEDFAD4E7F8E2E5E9_1762258143" x1="0" y1="640.0" x2="0" y2="746.0" gradientUnits="userSpaceOnUse" xlink:type="simple" xlink:actuate="onLoad" xlink:show="other" /><linearGradient xmlns:xlink="http://www.w3.org/1999/xlink" xlink:href="#linearGradientFF6666FF9696FFB6B6" id="linearGradientFF6666FF9696FFB6B6_398939207" x1="0" y1="540.0" x2="0" y2="575.0" gradientUnits="userSpaceOnUse" xlink:type="simple" xlink:actuate="onLoad" xlink:show="other" /><linearGradient xmlns:xlink="http://www.w3.org/1999/xlink" xlink:href="#linearGradientFAFBFCFFFFCC" id="linearGradientFAFBFCFFFFCC_40035381" x1="0" y1="782.0" x2="0" y2="842.0" gradientUnits="userSpaceOnUse" xlink:type="simple" xlink:actuate="onLoad" xlink:show="other" /><linearGradient xmlns:xlink="http://www.w3.org/1999/xlink" xlink:href="#linearGradientFAFBFCFFFFCC" id="linearGradientFAFBFCFFFFCC_1171754151" x1="0" y1="1190.0" x2="0" y2="1250.0" gradientUnits="userSpaceOnUse" xlink:type="simple" xlink:actuate="onLoad" xlink:show="other" /><linearGradient xmlns:xlink="http://www.w3.org/1999/xlink" xlink:href="#linearGradientF8FBFEEDF5FCDEEDFAD4E7F8E2E5E9" id="linearGradientF8FBFEEDF5FCDEEDFAD4E7F8E2E5E9_1671360470" x1="0" y1="1200.0" x2="0" y2="1306.0" gradientUnits="userSpaceOnUse" xlink:type="simple" xlink:actuate="onLoad" xlink:show="other" /><linearGradient xmlns:xlink="http://www.w3.org/1999/xlink" xlink:href="#linearGradientF8FBFEEDF5FCDEEDFAD4E7F8E2E5E9" id="linearGradientF8FBFEEDF5FCDEEDFAD4E7F8E2E5E9_1322711694" x1="0" y1="110.0" x2="0" y2="216.0" gradientUnits="userSpaceOnUse" xlink:type="simple" xlink:actuate="onLoad" xlink:show="other" /><linearGradient xmlns:xlink="http://www.w3.org/1999/xlink" xlink:href="#linearGradientFAFBFCFFFFCC" id="linearGradientFAFBFCFFFFCC_1535175725" x1="0" y1="780.0" x2="0" y2="840.0" gradientUnits="userSpaceOnUse" xlink:type="simple" xlink:actuate="onLoad" xlink:show="other" /><linearGradient xmlns:xlink="http://www.w3.org/1999/xlink" xlink:href="#linearGradientFAFBFCFFFFCC" id="linearGradientFAFBFCFFFFCC_575402318" x1="0" y1="350.0" x2="0" y2="410.0" gradientUnits="userSpaceOnUse" xlink:type="simple" xlink:actuate="onLoad" xlink:show="other" /></defs></svg>
