<?xml version="1.0" encoding="UTF-8"?>
<svg xmlns="http://www.w3.org/2000/svg" style="stroke-dasharray:none; shape-rendering:auto; font-family:'Arial'; text-rendering:auto; fill-opacity:1; color-interpolation:auto; color-rendering:auto; font-size:12; fill:black; stroke:black; image-rendering:auto; stroke-miterlimit:10; stroke-linecap:square; stroke-linejoin:miter; font-style:normal; stroke-width:1; stroke-dashoffset:0; font-weight:normal; stroke-opacity:1;" contentScriptType="text/ecmascript" preserveAspectRatio="xMidYMid meet" zoomAndPan="magnify" version="1.0" contentStyleType="text/css" xml:xlink="http://www.w3.org/1999/xlink" width="931" height="911"><rect x="0" y="10" width="931" height="411" ry="0" rx="0" style="stroke:#000000; fill:#F5F5F5" /><g componentSequence="41"><text x="-215" y="9" transform="rotate(270)" text-anchor="middle" style="font-weight:bold;font-size:10px;stroke:none; fill:#434343"><tspan dy="14" x="-215">Alteração de Salário</tspan></text></g><rect x="0" y="420" width="931" height="491" ry="0" rx="0" style="stroke:#000000; fill:#DAE8FC" /><g componentSequence="39"><text x="-665" y="9" transform="rotate(270)" text-anchor="middle" style="font-weight:bold;font-size:10px;stroke:none; fill:#434343"><tspan dy="14" x="-665">Departamento Pessoal</tspan></text></g><g sequence="5"><ellipse cx="767" cy="287" rx="17" ry="17" stroke-width="3" style="fill:url(#linearGradientFF6666FF9696FFB6B6_338561266);" stroke="993333" /></g><g sequence="5"><polygon points=" 758 283 763 278 768 283 773 278 778 283 773 288 778 293 773 298 768 293 763 298 758 293 763 288" style="stroke:none; fill:#993333" /></g><g sequence="6"><rect x="90" y="470" width="106" height="123" ry="5" rx="5" style="fill:url(#linearGradientF8FBFEEDF5FCDEEDFAD4E7F8E2E5E9_451535879);" stroke="191970" /></g><g componentSequence="6"><text x="143" y="485" text-anchor="middle" style="font-weight:bold;font-size:10px;stroke:none; fill:#333399"><tspan dy="14" x="143">Emissão</tspan><tspan dy="14" x="143">do</tspan><tspan dy="14" x="143">Aditivo/Ter</tspan><tspan dy="14" x="143">mo</tspan></text></g><g sequence="7"><rect x="310" y="500" width="106" height="66" ry="5" rx="5" style="fill:url(#linearGradientF8FBFEEDF5FCDEEDFAD4E7F8E2E5E9_517366658);" stroke="191970" /></g><g componentSequence="7"><text x="363" y="522" text-anchor="middle" style="font-weight:bold;font-size:10px;stroke:none; fill:#333399"><tspan dy="14" x="363">Esocial</tspan></text></g><rect x="680" y="810" width="105" height="70" ry="5" rx="5" style="stroke:none; fill:#FFFFE0" /><g componentSequence="8"><text x="690" y="833" text-anchor="left" style="font-weight:bold;font-size:10px;stroke:none; fill:#000000"><tspan dy="14" x="690">Finaliza a</tspan><tspan dy="14" x="690">Solicitação</tspan></text></g><path style="fill:none; stroke-width:1; stroke:#000000;" d="M700.0 810.0 L680.0 810.0 L680.0 880.0 L700.0 880.0" /><rect x="150" y="120" width="105" height="55" ry="5" rx="5" style="stroke:none; fill:#FFFFE0" /><g componentSequence="9"><text x="160" y="133" text-anchor="left" style="font-weight:bold;font-size:10px;stroke:none; fill:#000000"><tspan dy="14" x="160">Início</tspan></text></g><path style="fill:none; stroke-width:1; stroke:#000000;" d="M170.0 120.0 L150.0 120.0 L150.0 175.0 L170.0 175.0" /><g sequence="10"><rect x="500" y="250" width="106" height="85" ry="5" rx="5" style="fill:url(#linearGradientF8FBFEEDF5FCDEEDFAD4E7F8E2E5E9_1540681276);" stroke="191970" /></g><g componentSequence="10"><text x="553" y="265" text-anchor="middle" style="font-weight:bold;font-size:10px;stroke:none; fill:#333399"><tspan dy="14" x="553">Valida</tspan><tspan dy="14" x="553">Solicitação</tspan></text></g><g sequence="11"><rect x="500" y="480" width="106" height="104" ry="5" rx="5" style="fill:url(#linearGradientF8FBFEEDF5FCDEEDFAD4E7F8E2E5E9_1062802476);" stroke="191970" /></g><g componentSequence="11"><text x="553" y="495" text-anchor="middle" style="font-weight:bold;font-size:10px;stroke:none; fill:#333399"><tspan dy="14" x="553">Inserir</tspan><tspan dy="14" x="553">alterações</tspan><tspan dy="14" x="553">no RM</tspan></text></g><g sequence="12"><ellipse cx="567" cy="847" rx="17" ry="17" stroke-width="3" style="fill:url(#linearGradientFF6666FF9696FFB6B6_1791301148);" stroke="993333" /></g><g sequence="13"><ellipse cx="207" cy="287" rx="17" ry="17" stroke-width="1" style="fill:url(#linearGradient66FF6696FF96B6FFB6_1201844917);" stroke="336633" /></g><g sequence="14"><rect x="90" y="800" width="106" height="85" ry="5" rx="5" style="fill:url(#linearGradientF8FBFEEDF5FCDEEDFAD4E7F8E2E5E9_1006309747);" stroke="191970" /></g><g componentSequence="14"><text x="143" y="815" text-anchor="middle" style="font-weight:bold;font-size:10px;stroke:none; fill:#333399"><tspan dy="14" x="143">Envia para</tspan><tspan dy="14" x="143">filial</tspan></text></g><g sequence="15"><rect x="310" y="810" width="106" height="66" ry="5" rx="5" style="fill:url(#linearGradientF8FBFEEDF5FCDEEDFAD4E7F8E2E5E9_1282706004);" stroke="191970" /></g><g componentSequence="15"><text x="363" y="832" text-anchor="middle" style="font-weight:bold;font-size:10px;stroke:none; fill:#333399"><tspan dy="14" x="363">Assinatura</tspan></text></g><rect x="690" y="111" width="161" height="108" ry="5" rx="5" style="stroke:none; fill:#FFFFE0" /><g componentSequence="16"><text x="700" y="134" text-anchor="left" style="font-weight:bold;font-size:10px;stroke:none; fill:#000000"><tspan dy="14" x="700">Solicitação</tspan><tspan dy="14" x="700">reprovada,</tspan><tspan dy="14" x="700">cancela</tspan><tspan dy="14" x="700">solicitação</tspan></text></g><path style="fill:none; stroke-width:1; stroke:#000000;" d="M710.0 111.0 L690.0 111.0 L690.0 219.0 L710.0 219.0" /><g sequence="30"><rect x="500" y="70" width="106" height="104" ry="5" rx="5" style="fill:url(#linearGradientF8FBFEEDF5FCDEEDFAD4E7F8E2E5E9_247664688);" stroke="191970" /></g><g componentSequence="30"><text x="553" y="85" text-anchor="middle" style="font-weight:bold;font-size:10px;stroke:none; fill:#333399"><tspan dy="14" x="553">Correção</tspan><tspan dy="14" x="553">de</tspan><tspan dy="14" x="553">Solicitação</tspan></text></g><g sequence="43"><polygon points=" 110 680 140 650 170 680 140 710 110 680" style="fill:url(#linearGradientFAFBFCFFFFCC_1554398279);" stroke="000000" /></g><g componentSequence="43"><text x="140" y="720" text-anchor="middle" style="font-weight:bold;font-size:10px;stroke:none; fill:#333399"><tspan dy="14" x="140">DP</tspan><tspan dy="14" x="140">Unida</tspan><tspan dy="14" x="140">de</tspan></text></g><g componentSequence="19"><text x="263" y="532" style="font-size:10px;font-weight:none;stroke:none; fill:#333399" text-anchor="left" /></g><g componentSequence="20"><text x="642" y="846" style="font-size:10px;font-weight:none;stroke:none; fill:#333399" text-anchor="left" /></g><g componentSequence="21"><text x="215" y="222" style="font-size:10px;font-weight:none;stroke:none; fill:#333399" text-anchor="left" /></g><g componentSequence="22"><text x="688" y="289" style="font-size:10px;font-weight:none;stroke:none; fill:#333399" text-anchor="left" /></g><g componentSequence="25"><text x="468" y="532" style="font-size:10px;font-weight:none;stroke:none; fill:#333399" text-anchor="left" /></g><g componentSequence="27"><text x="263" y="842" style="font-size:10px;font-weight:none;stroke:none; fill:#333399" text-anchor="left" /></g><g componentSequence="28"><text x="493" y="846" style="font-size:10px;font-weight:none;stroke:none; fill:#333399" text-anchor="left" /></g><g componentSequence="29"><text x="779" y="244" style="font-size:10px;font-weight:none;stroke:none; fill:#333399" text-anchor="left" /></g><g componentSequence="31"><text x="563" y="212" style="font-size:10px;font-weight:none;stroke:none; fill:#333399" text-anchor="left" /></g><g componentSequence="32"><text x="563" y="212" style="font-size:10px;font-weight:none;stroke:none; fill:#333399" text-anchor="left" /></g><g componentSequence="37"><text x="563" y="407" style="font-size:10px;font-weight:none;stroke:none; fill:#333399" text-anchor="left" /></g><g componentSequence="42"><text x="372" y="289" style="font-size:10px;font-weight:none;stroke:none; fill:#333399" text-anchor="left" /></g><g componentSequence="44"><text x="152" y="621" style="font-size:10px;font-weight:none;stroke:none; fill:#333399" text-anchor="left" /></g><g componentSequence="45"><text x="151" y="793" style="font-size:10px;font-weight:none;stroke:none; fill:#333399" text-anchor="left" /></g><path style="fill:none; stroke:#000000;stroke-width:1" d="M606.0 291.0 L750.0 287.0" /><polygon style="fill:#000000; stroke:#000000;" points=" 740 282 750 287 740 292 742 287" /><path style="fill:none; stroke:#000000;stroke-dasharray:2" d="M769.0 219.0 L767.0 270.0" /><path style="fill:none; stroke:#000000;stroke-width:1" d="M142.0 593.0 L141.0 649.0" /><polygon style="fill:#000000; stroke:#000000;" points=" 146 639 141 649 136 639 141 641" /><path style="fill:none; stroke:#000000;stroke-width:1" d="M309.0 532.0 L196.0 531.0" /><polygon style="fill:#000000; stroke:#000000;" points=" 206 536 196 531 206 526 204 531" /><path style="fill:none; stroke:#000000;stroke-width:1" d="M499.0 532.0 L416.0 532.0" /><polygon style="fill:#000000; stroke:#000000;" points=" 426 537 416 532 426 527 424 532" /><path style="fill:none; stroke:#000000;stroke-dasharray:2" d="M679.0 845.0 L584.0 847.0" /><path style="fill:none; stroke:#000000;stroke-dasharray:2" d="M203.0 175.0 L207.0 270.0" /><path style="fill:none; stroke:#000000;stroke-width:1" d="M553.0 249.0 L553.0 174.0" /><polygon style="fill:#000000; stroke:#000000;" points=" 548 184 553 174 558 184 553 182" /><path style="fill:none; stroke:#000000;stroke-width:1" d="M553.0 335.0 L553.0 479.0" /><polygon style="fill:#000000; stroke:#000000;" points=" 558 469 553 479 548 469 553 471" /><path style="fill:none; stroke:#000000;stroke-width:1" d="M553.0 174.0 L553.0 249.0" /><polygon style="fill:#000000; stroke:#000000;" points=" 558 239 553 249 548 239 553 241" /><path style="fill:none; stroke:#000000;stroke-width:1" d="M224.0 287.0 L499.0 291.0" /><polygon style="fill:#000000; stroke:#000000;" points=" 489 286 499 291 489 296 491 291" /><path style="fill:none; stroke:#000000;stroke-width:1" d="M416.0 844.0 L550.0 847.0" /><polygon style="fill:#000000; stroke:#000000;" points=" 540 842 550 847 540 852 542 847" /><path style="fill:none; stroke:#000000;stroke-width:1" d="M196.0 842.0 L309.0 842.0" /><polygon style="fill:#000000; stroke:#000000;" points=" 299 837 309 842 299 847 301 842" /><path style="fill:none; stroke:#000000;stroke-width:1" d="M141.0 786.0 L142.0 799.0" /><polygon style="fill:#000000; stroke:#000000;" points=" 146 789 142 799 136 789 141 791" /><defs><linearGradient xmlns:xlink="http://www.w3.org/1999/xlink" xlink:href="#linearGradientFF6666FF9696FFB6B6" id="linearGradientFF6666FF9696FFB6B6_338561266" x1="0" y1="270.0" x2="0" y2="305.0" gradientUnits="userSpaceOnUse" xlink:type="simple" xlink:actuate="onLoad" xlink:show="other" /><linearGradient id="linearGradientFF6666FF9696FFB6B6"><stop style="stop-color:#FF6666;stop-opacity:1;" offset="0.0" id="stopFF6666" /><stop style="stop-color:#FF9696;stop-opacity:1;" offset="0.5" id="stopFF9696" /><stop style="stop-color:#FFB6B6;stop-opacity:1;" offset="1.0" id="stopFFB6B6" /></linearGradient><linearGradient xmlns:xlink="http://www.w3.org/1999/xlink" xlink:href="#linearGradientF8FBFEEDF5FCDEEDFAD4E7F8E2E5E9" id="linearGradientF8FBFEEDF5FCDEEDFAD4E7F8E2E5E9_451535879" x1="0" y1="470.0" x2="0" y2="576.0" gradientUnits="userSpaceOnUse" xlink:type="simple" xlink:actuate="onLoad" xlink:show="other" /><linearGradient id="linearGradientF8FBFEEDF5FCDEEDFAD4E7F8E2E5E9"><stop style="stop-color:#F8FBFE;stop-opacity:1;" offset="0.0" id="stopF8FBFE" /><stop style="stop-color:#EDF5FC;stop-opacity:1;" offset="0.25" id="stopEDF5FC" /><stop style="stop-color:#DEEDFA;stop-opacity:1;" offset="0.5" id="stopDEEDFA" /><stop style="stop-color:#D4E7F8;stop-opacity:1;" offset="0.75" id="stopD4E7F8" /><stop style="stop-color:#E2E5E9;stop-opacity:1;" offset="1.0" id="stopE2E5E9" /></linearGradient><linearGradient xmlns:xlink="http://www.w3.org/1999/xlink" xlink:href="#linearGradientF8FBFEEDF5FCDEEDFAD4E7F8E2E5E9" id="linearGradientF8FBFEEDF5FCDEEDFAD4E7F8E2E5E9_517366658" x1="0" y1="500.0" x2="0" y2="606.0" gradientUnits="userSpaceOnUse" xlink:type="simple" xlink:actuate="onLoad" xlink:show="other" /><linearGradient xmlns:xlink="http://www.w3.org/1999/xlink" xlink:href="#linearGradientF8FBFEEDF5FCDEEDFAD4E7F8E2E5E9" id="linearGradientF8FBFEEDF5FCDEEDFAD4E7F8E2E5E9_1540681276" x1="0" y1="250.0" x2="0" y2="356.0" gradientUnits="userSpaceOnUse" xlink:type="simple" xlink:actuate="onLoad" xlink:show="other" /><linearGradient xmlns:xlink="http://www.w3.org/1999/xlink" xlink:href="#linearGradientF8FBFEEDF5FCDEEDFAD4E7F8E2E5E9" id="linearGradientF8FBFEEDF5FCDEEDFAD4E7F8E2E5E9_1062802476" x1="0" y1="480.0" x2="0" y2="586.0" gradientUnits="userSpaceOnUse" xlink:type="simple" xlink:actuate="onLoad" xlink:show="other" /><linearGradient xmlns:xlink="http://www.w3.org/1999/xlink" xlink:href="#linearGradientFF6666FF9696FFB6B6" id="linearGradientFF6666FF9696FFB6B6_1791301148" x1="0" y1="830.0" x2="0" y2="865.0" gradientUnits="userSpaceOnUse" xlink:type="simple" xlink:actuate="onLoad" xlink:show="other" /><linearGradient xmlns:xlink="http://www.w3.org/1999/xlink" xlink:href="#linearGradient66FF6696FF96B6FFB6" id="linearGradient66FF6696FF96B6FFB6_1201844917" x1="0" y1="270.0" x2="0" y2="305.0" gradientUnits="userSpaceOnUse" xlink:type="simple" xlink:actuate="onLoad" xlink:show="other" /><linearGradient id="linearGradient66FF6696FF96B6FFB6"><stop style="stop-color:#66FF66;stop-opacity:1;" offset="0.0" id="stop66FF66" /><stop style="stop-color:#96FF96;stop-opacity:1;" offset="0.5" id="stop96FF96" /><stop style="stop-color:#B6FFB6;stop-opacity:1;" offset="1.0" id="stopB6FFB6" /></linearGradient><linearGradient xmlns:xlink="http://www.w3.org/1999/xlink" xlink:href="#linearGradientF8FBFEEDF5FCDEEDFAD4E7F8E2E5E9" id="linearGradientF8FBFEEDF5FCDEEDFAD4E7F8E2E5E9_1006309747" x1="0" y1="800.0" x2="0" y2="906.0" gradientUnits="userSpaceOnUse" xlink:type="simple" xlink:actuate="onLoad" xlink:show="other" /><linearGradient xmlns:xlink="http://www.w3.org/1999/xlink" xlink:href="#linearGradientF8FBFEEDF5FCDEEDFAD4E7F8E2E5E9" id="linearGradientF8FBFEEDF5FCDEEDFAD4E7F8E2E5E9_1282706004" x1="0" y1="810.0" x2="0" y2="916.0" gradientUnits="userSpaceOnUse" xlink:type="simple" xlink:actuate="onLoad" xlink:show="other" /><linearGradient xmlns:xlink="http://www.w3.org/1999/xlink" xlink:href="#linearGradientF8FBFEEDF5FCDEEDFAD4E7F8E2E5E9" id="linearGradientF8FBFEEDF5FCDEEDFAD4E7F8E2E5E9_247664688" x1="0" y1="70.0" x2="0" y2="176.0" gradientUnits="userSpaceOnUse" xlink:type="simple" xlink:actuate="onLoad" xlink:show="other" /><linearGradient xmlns:xlink="http://www.w3.org/1999/xlink" xlink:href="#linearGradientFAFBFCFFFFCC" id="linearGradientFAFBFCFFFFCC_1554398279" x1="0" y1="650.0" x2="0" y2="710.0" gradientUnits="userSpaceOnUse" xlink:type="simple" xlink:actuate="onLoad" xlink:show="other" /><linearGradient id="linearGradientFAFBFCFFFFCC"><stop style="stop-color:#FAFBFC;stop-opacity:1;" offset="0.0" id="stopFAFBFC" /><stop style="stop-color:#FFFFCC;stop-opacity:1;" offset="1.0" id="stopFFFFCC" /></linearGradient></defs></svg>
