<?xml version="1.0" encoding="UTF-8"?>
<svg xmlns="http://www.w3.org/2000/svg" style="stroke-dasharray:none; shape-rendering:auto; font-family:'Arial'; text-rendering:auto; fill-opacity:1; color-interpolation:auto; color-rendering:auto; font-size:12; fill:black; stroke:black; image-rendering:auto; stroke-miterlimit:10; stroke-linecap:square; stroke-linejoin:miter; font-style:normal; stroke-width:1; stroke-dashoffset:0; font-weight:normal; stroke-opacity:1;" contentScriptType="text/ecmascript" preserveAspectRatio="xMidYMid meet" zoomAndPan="magnify" version="1.0" contentStyleType="text/css" xml:xlink="http://www.w3.org/1999/xlink" width="911" height="661"><rect x="0" y="10" width="911" height="651" ry="0" rx="0" style="stroke:#000000; fill:#FFFFFF" /><rect x="30" y="444" width="881" height="217" ry="0" rx="0" style="stroke:#000000; fill:#ADC9AC" /><g componentSequence="4"><text x="-552" y="39" transform="rotate(270)" text-anchor="middle" style="font-weight:bold;font-size:10px;stroke:none; fill:#434343"><tspan dy="14" x="-552">DP</tspan></text></g><rect x="30" y="227" width="881" height="217" ry="0" rx="0" style="stroke:#000000; fill:#C0C0C0" /><g componentSequence="3"><text x="-335" y="39" transform="rotate(270)" text-anchor="middle" style="font-weight:bold;font-size:10px;stroke:none; fill:#434343"><tspan dy="14" x="-335">Validação</tspan></text></g><rect x="30" y="10" width="881" height="217" ry="0" rx="0" style="stroke:#000000; fill:#9F9F9F" /><g componentSequence="2"><text x="-118" y="39" transform="rotate(270)" text-anchor="middle" style="font-weight:bold;font-size:10px;stroke:none; fill:#434343"><tspan dy="14" x="-118">Inicia Solicitação</tspan></text></g><g componentSequence="1"><text x="-335" y="9" transform="rotate(270)" text-anchor="middle" style="font-weight:bold;font-size:10px;stroke:none; fill:#434343"><tspan dy="14" x="-335">Inclusão de Gratificação</tspan></text></g><g sequence="5"><ellipse cx="667" cy="318" rx="17" ry="17" stroke-width="3" style="fill:url(#linearGradientFF6666FF9696FFB6B6_392238580);" stroke="993333" /></g><g sequence="5"><polygon points=" 658 314 663 309 668 314 673 309 678 314 673 319 678 324 673 329 668 324 663 329 658 324 663 319" style="stroke:none; fill:#993333" /></g><g sequence="6"><rect x="150" y="540" width="106" height="104" ry="5" rx="5" style="fill:url(#linearGradientF8FBFEEDF5FCDEEDFAD4E7F8E2E5E9_430373224);" stroke="191970" /></g><g componentSequence="6"><text x="203" y="555" text-anchor="middle" style="font-weight:bold;font-size:10px;stroke:none; fill:#333399"><tspan dy="14" x="203">Inserir</tspan><tspan dy="14" x="203">alterações</tspan><tspan dy="14" x="203">no RM</tspan></text></g><g sequence="8"><rect x="150" y="270" width="106" height="104" ry="5" rx="5" style="fill:url(#linearGradientF8FBFEEDF5FCDEEDFAD4E7F8E2E5E9_496598660);" stroke="191970" /></g><g componentSequence="8"><text x="203" y="285" text-anchor="middle" style="font-weight:bold;font-size:10px;stroke:none; fill:#333399"><tspan dy="14" x="203">Validação</tspan><tspan dy="14" x="203">da</tspan><tspan dy="14" x="203">Solicitação</tspan></text></g><rect x="460" y="560" width="105" height="70" ry="5" rx="5" style="stroke:none; fill:#FFFFE0" /><g componentSequence="9"><text x="470" y="583" text-anchor="left" style="font-weight:bold;font-size:10px;stroke:none; fill:#000000"><tspan dy="14" x="470">Finaliza a</tspan><tspan dy="14" x="470">Solicitação</tspan></text></g><path style="fill:none; stroke-width:1; stroke:#000000;" d="M480.0 560.0 L460.0 560.0 L460.0 630.0 L480.0 630.0" /><g sequence="11"><ellipse cx="207" cy="57" rx="17" ry="17" stroke-width="1" style="fill:url(#linearGradient66FF6696FF96B6FFB6_1486615379);" stroke="336633" /></g><rect x="240" y="30" width="105" height="55" ry="5" rx="5" style="stroke:none; fill:#FFFFE0" /><g componentSequence="13"><text x="250" y="43" text-anchor="left" style="font-weight:bold;font-size:10px;stroke:none; fill:#000000"><tspan dy="14" x="250">Início</tspan></text></g><path style="fill:none; stroke-width:1; stroke:#000000;" d="M260.0 30.0 L240.0 30.0 L240.0 85.0 L260.0 85.0" /><g sequence="15"><rect x="570" y="60" width="106" height="104" ry="5" rx="5" style="fill:url(#linearGradientF8FBFEEDF5FCDEEDFAD4E7F8E2E5E9_1204454145);" stroke="191970" /></g><g componentSequence="15"><text x="623" y="75" text-anchor="middle" style="font-weight:bold;font-size:10px;stroke:none; fill:#333399"><tspan dy="14" x="623">Correção</tspan><tspan dy="14" x="623">de</tspan><tspan dy="14" x="623">Solicitação</tspan></text></g><g sequence="16"><ellipse cx="417" cy="597" rx="17" ry="17" stroke-width="3" style="fill:url(#linearGradientFF6666FF9696FFB6B6_1770606377);" stroke="993333" /></g><rect x="720" y="270" width="105" height="108" ry="5" rx="5" style="stroke:none; fill:#FFFFE0" /><g componentSequence="17"><text x="730" y="293" text-anchor="left" style="font-weight:bold;font-size:10px;stroke:none; fill:#000000"><tspan dy="14" x="730">Solicitação</tspan><tspan dy="14" x="730">reprovada</tspan><tspan dy="14" x="730">, cancela</tspan><tspan dy="14" x="730">solicitação</tspan></text></g><path style="fill:none; stroke-width:1; stroke:#000000;" d="M740.0 270.0 L720.0 270.0 L720.0 378.0 L740.0 378.0" /><g sequence="38"><polygon points=" 590 440 620 410 650 440 620 470 590 440" style="fill:url(#linearGradientFAFBFCFFFFCC_1060266434);" stroke="000000" /></g><g componentSequence="38"><text x="620" y="480" text-anchor="middle" style="font-weight:bold;font-size:10px;stroke:none; fill:#333399"><tspan dy="14" x="620">Aprov</tspan><tspan dy="14" x="620">ar</tspan></text></g><g sequence="41"><polygon points=" 390 290 420 260 450 290 420 320 390 290" style="fill:url(#linearGradientFAFBFCFFFFCC_951323676);" stroke="000000" /></g><g componentSequence="41"><text x="420" y="330" text-anchor="middle" style="font-weight:bold;font-size:10px;stroke:none; fill:#333399"><tspan dy="14" x="420">Exclu</tspan><tspan dy="14" x="420">sivo</tspan></text></g><g componentSequence="23"><text x="457" y="597" style="font-size:10px;font-weight:none;stroke:none; fill:#333399" text-anchor="left" /></g><g componentSequence="27"><text x="242" y="57" style="font-size:10px;font-weight:none;stroke:none; fill:#333399" text-anchor="left" /></g><g componentSequence="30"><text x="712" y="320" style="font-size:10px;font-weight:none;stroke:none; fill:#333399" text-anchor="left" /></g><g componentSequence="31"><text x="338" y="595" style="font-size:10px;font-weight:none;stroke:none; fill:#333399" text-anchor="left" /></g><g componentSequence="37"><text x="215" y="172" style="font-size:10px;font-weight:none;stroke:none; fill:#333399" text-anchor="left" /></g><g componentSequence="40"><text x="374" y="468" style="font-size:10px;font-weight:none;stroke:none; fill:#333399" text-anchor="left" /></g><g componentSequence="42"><text x="333" y="320" style="font-size:10px;font-weight:none;stroke:none; fill:#333399" text-anchor="left" /></g><g componentSequence="43"><text x="623" y="318" style="font-size:10px;font-weight:none;stroke:none; fill:#333399" text-anchor="left" /></g><g componentSequence="44"><text x="560" y="318" style="font-size:10px;font-weight:none;stroke:none; fill:#333399" text-anchor="left" /></g><g componentSequence="45"><text x="590" y="318" style="font-size:10px;font-weight:none;stroke:none; fill:#333399" text-anchor="left" /></g><g componentSequence="46"><text x="319" y="112" style="font-size:10px;font-weight:none;stroke:none; fill:#333399" text-anchor="left" /></g><path style="fill:none; stroke:#000000;stroke-dasharray:2" d="M719.0 321.0 L684.0 319.0" /><path style="fill:none; stroke:#000000;stroke-width:1" d="M450.0 318.0 L649.0 318.0" /><polygon style="fill:#000000; stroke:#000000;" points=" 639 313 649 318 639 323 641 318" /><path style="fill:none; stroke:#000000;stroke-width:1" d="M256.0 593.0 L400.0 597.0" /><polygon style="fill:#000000; stroke:#000000;" points=" 390 592 400 597 390 602 392 597" /><path style="fill:none; stroke:#000000;stroke-width:1" d="M589.0 468.0 L210.0 468.0 L206.0 539.0" /><polygon style="fill:#000000; stroke:#000000;" points=" 212 529 206 539 202 529 206 531" /><path style="fill:none; stroke:#000000;stroke-width:1" d="M256.0 321.0 L389.0 319.0" /><polygon style="fill:#000000; stroke:#000000;" points=" 379 314 389 319 379 324 381 319" /><path style="fill:none; stroke:#000000;stroke-width:1" d="M207.0 74.0 L203.0 269.0" /><polygon style="fill:#000000; stroke:#000000;" points=" 208 259 203 269 198 259 203 261" /><path style="fill:none; stroke:#000000;stroke-width:1" d="M569.0 112.0 L206.0 112.0 L203.0 269.0" /><polygon style="fill:#000000; stroke:#000000;" points=" 208 259 203 269 198 259 203 261" /><path style="fill:none; stroke:#000000;stroke-dasharray:2" d="M459.0 596.0 L434.0 597.0" /><path style="fill:none; stroke:#000000;stroke-dasharray:2" d="M239.0 57.0 L225.0 57.0" /><path style="fill:none; stroke:#000000;stroke-width:1" d="M450.0 318.0 L622.0 318.0 L622.0 164.0" /><polygon style="fill:#000000; stroke:#000000;" points=" 617 174 622 164 627 174 622 172" /><path style="fill:none; stroke:#000000;stroke-width:1" d="M450.0 318.0 L619.0 318.0 L619.0 409.0" /><polygon style="fill:#000000; stroke:#000000;" points=" 624 399 619 409 614 399 619 401" /><defs><linearGradient xmlns:xlink="http://www.w3.org/1999/xlink" xlink:href="#linearGradientFF6666FF9696FFB6B6" id="linearGradientFF6666FF9696FFB6B6_392238580" x1="0" y1="301.0" x2="0" y2="336.0" gradientUnits="userSpaceOnUse" xlink:type="simple" xlink:actuate="onLoad" xlink:show="other" /><linearGradient id="linearGradientFF6666FF9696FFB6B6"><stop style="stop-color:#FF6666;stop-opacity:1;" offset="0.0" id="stopFF6666" /><stop style="stop-color:#FF9696;stop-opacity:1;" offset="0.5" id="stopFF9696" /><stop style="stop-color:#FFB6B6;stop-opacity:1;" offset="1.0" id="stopFFB6B6" /></linearGradient><linearGradient xmlns:xlink="http://www.w3.org/1999/xlink" xlink:href="#linearGradientF8FBFEEDF5FCDEEDFAD4E7F8E2E5E9" id="linearGradientF8FBFEEDF5FCDEEDFAD4E7F8E2E5E9_430373224" x1="0" y1="540.0" x2="0" y2="646.0" gradientUnits="userSpaceOnUse" xlink:type="simple" xlink:actuate="onLoad" xlink:show="other" /><linearGradient id="linearGradientF8FBFEEDF5FCDEEDFAD4E7F8E2E5E9"><stop style="stop-color:#F8FBFE;stop-opacity:1;" offset="0.0" id="stopF8FBFE" /><stop style="stop-color:#EDF5FC;stop-opacity:1;" offset="0.25" id="stopEDF5FC" /><stop style="stop-color:#DEEDFA;stop-opacity:1;" offset="0.5" id="stopDEEDFA" /><stop style="stop-color:#D4E7F8;stop-opacity:1;" offset="0.75" id="stopD4E7F8" /><stop style="stop-color:#E2E5E9;stop-opacity:1;" offset="1.0" id="stopE2E5E9" /></linearGradient><linearGradient xmlns:xlink="http://www.w3.org/1999/xlink" xlink:href="#linearGradientF8FBFEEDF5FCDEEDFAD4E7F8E2E5E9" id="linearGradientF8FBFEEDF5FCDEEDFAD4E7F8E2E5E9_496598660" x1="0" y1="270.0" x2="0" y2="376.0" gradientUnits="userSpaceOnUse" xlink:type="simple" xlink:actuate="onLoad" xlink:show="other" /><linearGradient xmlns:xlink="http://www.w3.org/1999/xlink" xlink:href="#linearGradient66FF6696FF96B6FFB6" id="linearGradient66FF6696FF96B6FFB6_1486615379" x1="0" y1="40.0" x2="0" y2="75.0" gradientUnits="userSpaceOnUse" xlink:type="simple" xlink:actuate="onLoad" xlink:show="other" /><linearGradient id="linearGradient66FF6696FF96B6FFB6"><stop style="stop-color:#66FF66;stop-opacity:1;" offset="0.0" id="stop66FF66" /><stop style="stop-color:#96FF96;stop-opacity:1;" offset="0.5" id="stop96FF96" /><stop style="stop-color:#B6FFB6;stop-opacity:1;" offset="1.0" id="stopB6FFB6" /></linearGradient><linearGradient xmlns:xlink="http://www.w3.org/1999/xlink" xlink:href="#linearGradientF8FBFEEDF5FCDEEDFAD4E7F8E2E5E9" id="linearGradientF8FBFEEDF5FCDEEDFAD4E7F8E2E5E9_1204454145" x1="0" y1="60.0" x2="0" y2="166.0" gradientUnits="userSpaceOnUse" xlink:type="simple" xlink:actuate="onLoad" xlink:show="other" /><linearGradient xmlns:xlink="http://www.w3.org/1999/xlink" xlink:href="#linearGradientFF6666FF9696FFB6B6" id="linearGradientFF6666FF9696FFB6B6_1770606377" x1="0" y1="580.0" x2="0" y2="615.0" gradientUnits="userSpaceOnUse" xlink:type="simple" xlink:actuate="onLoad" xlink:show="other" /><linearGradient xmlns:xlink="http://www.w3.org/1999/xlink" xlink:href="#linearGradientFAFBFCFFFFCC" id="linearGradientFAFBFCFFFFCC_1060266434" x1="0" y1="410.0" x2="0" y2="470.0" gradientUnits="userSpaceOnUse" xlink:type="simple" xlink:actuate="onLoad" xlink:show="other" /><linearGradient id="linearGradientFAFBFCFFFFCC"><stop style="stop-color:#FAFBFC;stop-opacity:1;" offset="0.0" id="stopFAFBFC" /><stop style="stop-color:#FFFFCC;stop-opacity:1;" offset="1.0" id="stopFFFFCC" /></linearGradient><linearGradient xmlns:xlink="http://www.w3.org/1999/xlink" xlink:href="#linearGradientFAFBFCFFFFCC" id="linearGradientFAFBFCFFFFCC_951323676" x1="0" y1="260.0" x2="0" y2="320.0" gradientUnits="userSpaceOnUse" xlink:type="simple" xlink:actuate="onLoad" xlink:show="other" /></defs></svg>
