<?xml version="1.0" encoding="UTF-8"?>
<svg xmlns="http://www.w3.org/2000/svg" style="stroke-dasharray:none; shape-rendering:auto; font-family:'Arial'; text-rendering:auto; fill-opacity:1; color-interpolation:auto; color-rendering:auto; font-size:12; fill:black; stroke:black; image-rendering:auto; stroke-miterlimit:10; stroke-linecap:square; stroke-linejoin:miter; font-style:normal; stroke-width:1; stroke-dashoffset:0; font-weight:normal; stroke-opacity:1;" contentScriptType="text/ecmascript" preserveAspectRatio="xMidYMid meet" zoomAndPan="magnify" version="1.0" contentStyleType="text/css" xml:xlink="http://www.w3.org/1999/xlink" width="981" height="1191"><rect x="10" y="800" width="971" height="391" ry="0" rx="0" style="stroke:#000000; fill:#FFC0A2" /><g componentSequence="40"><text x="-995" y="19" transform="rotate(270)" text-anchor="middle" style="font-weight:bold;font-size:10px;stroke:none; fill:#434343"><tspan dy="14" x="-995">Treinamento</tspan></text></g><rect x="10" y="600" width="971" height="201" ry="0" rx="0" style="stroke:#000000; fill:#D0DAAE" /><g componentSequence="39"><text x="-700" y="19" transform="rotate(270)" text-anchor="middle" style="font-weight:bold;font-size:10px;stroke:none; fill:#434343"><tspan dy="14" x="-700">Testes</tspan></text></g><rect x="10" y="390" width="971" height="211" ry="0" rx="0" style="stroke:#000000; fill:#ADC9AC" /><g componentSequence="38"><text x="-495" y="19" transform="rotate(270)" text-anchor="middle" style="font-weight:bold;font-size:10px;stroke:none; fill:#434343"><tspan dy="14" x="-495">Implementação</tspan></text></g><rect x="10" y="0" width="971" height="391" ry="0" rx="0" style="stroke:#000000; fill:#82B0B7" /><g componentSequence="37"><text x="-195" y="19" transform="rotate(270)" text-anchor="middle" style="font-weight:bold;font-size:10px;stroke:none; fill:#434343"><tspan dy="14" x="-195">Análise de Requisitos</tspan></text></g><g sequence="4"><ellipse cx="167" cy="99" rx="17" ry="17" stroke-width="1" style="fill:url(#linearGradient66FF6696FF96B6FFB6_2140473221);" stroke="336633" /></g><g sequence="5"><rect x="260" y="200" width="106" height="85" ry="5" rx="5" style="fill:url(#linearGradientF8FBFEEDF5FCDEEDFAD4E7F8E2E5E9_1901258247);" stroke="191970" /></g><g componentSequence="5"><text x="313" y="215" text-anchor="middle" style="font-weight:bold;font-size:10px;stroke:none; fill:#333399"><tspan dy="14" x="313">Validação</tspan><tspan dy="14" x="313">e análise</tspan></text></g><rect x="210" y="20" width="105" height="55" ry="5" rx="5" style="stroke:none; fill:#FFFFE0" /><g componentSequence="7"><text x="220" y="33" text-anchor="left" style="font-weight:bold;font-size:10px;stroke:none; fill:#000000"><tspan dy="14" x="220">Início</tspan></text></g><path style="fill:none; stroke-width:1; stroke:#000000;" d="M230.0 20.0 L210.0 20.0 L210.0 75.0 L230.0 75.0" /><g sequence="9"><rect x="595" y="63" width="106" height="104" ry="5" rx="5" style="fill:url(#linearGradientF8FBFEEDF5FCDEEDFAD4E7F8E2E5E9_1970105589);" stroke="191970" /></g><g componentSequence="9"><text x="648" y="78" text-anchor="middle" style="font-weight:bold;font-size:10px;stroke:none; fill:#333399"><tspan dy="14" x="648">Corrigir</tspan><tspan dy="14" x="648">informaçõe</tspan><tspan dy="14" x="648">s</tspan></text></g><g sequence="11"><ellipse cx="647" cy="232" rx="17" ry="17" stroke-width="3" style="fill:url(#linearGradientFF6666FF9696FFB6B6_812641340);" stroke="993333" /></g><g sequence="13"><rect x="595" y="300" width="106" height="66" ry="5" rx="5" style="fill:url(#linearGradientF8FBFEEDF5FCDEEDFAD4E7F8E2E5E9_1737583771);" stroke="191970" /></g><g componentSequence="13"><text x="648" y="322" text-anchor="middle" style="font-weight:bold;font-size:10px;stroke:none; fill:#333399"><tspan dy="14" x="648">Reunião</tspan></text></g><g sequence="15"><rect x="260" y="420" width="106" height="85" ry="5" rx="5" style="fill:url(#linearGradientF8FBFEEDF5FCDEEDFAD4E7F8E2E5E9_18209968);" stroke="191970" /></g><g componentSequence="15"><text x="313" y="435" text-anchor="middle" style="font-weight:bold;font-size:10px;stroke:none; fill:#333399"><tspan dy="14" x="313">Implementa</tspan><tspan dy="14" x="313">ção</tspan></text></g><g sequence="19"><rect x="260" y="640" width="106" height="85" ry="5" rx="5" style="fill:url(#linearGradientF8FBFEEDF5FCDEEDFAD4E7F8E2E5E9_520159907);" stroke="191970" /></g><g componentSequence="19"><text x="313" y="655" text-anchor="middle" style="font-weight:bold;font-size:10px;stroke:none; fill:#333399"><tspan dy="14" x="313">Período de</tspan><tspan dy="14" x="313">Testes</tspan></text></g><g sequence="24"><rect x="620" y="631" width="106" height="104" ry="5" rx="5" style="fill:url(#linearGradientF8FBFEEDF5FCDEEDFAD4E7F8E2E5E9_1346376563);" stroke="191970" /></g><g componentSequence="24"><text x="673" y="646" text-anchor="middle" style="font-weight:bold;font-size:10px;stroke:none; fill:#333399"><tspan dy="14" x="673">Correção</tspan><tspan dy="14" x="673">de</tspan><tspan dy="14" x="673">Processos</tspan></text></g><g sequence="26"><ellipse cx="657" cy="1132" rx="17" ry="17" stroke-width="3" style="fill:url(#linearGradientFF6666FF9696FFB6B6_1012484180);" stroke="993333" /></g><g sequence="29"><rect x="260" y="850" width="106" height="123" ry="5" rx="5" style="fill:url(#linearGradientF8FBFEEDF5FCDEEDFAD4E7F8E2E5E9_327607091);" stroke="191970" /></g><g componentSequence="29"><text x="313" y="865" text-anchor="middle" style="font-weight:bold;font-size:10px;stroke:none; fill:#333399"><tspan dy="14" x="313">Agendame</tspan><tspan dy="14" x="313">nto para</tspan><tspan dy="14" x="313">Treinament</tspan><tspan dy="14" x="313">o</tspan></text></g><g sequence="31"><rect x="260" y="1090" width="106" height="85" ry="5" rx="5" style="fill:url(#linearGradientF8FBFEEDF5FCDEEDFAD4E7F8E2E5E9_67497978);" stroke="191970" /></g><g componentSequence="31"><text x="313" y="1105" text-anchor="middle" style="font-weight:bold;font-size:10px;stroke:none; fill:#333399"><tspan dy="14" x="313">Treinament</tspan><tspan dy="14" x="313">o</tspan></text></g><g componentSequence="8"><text x="182" y="48" style="font-size:10px;font-weight:none;stroke:none; fill:#333399" text-anchor="left" /></g><g componentSequence="10"><text x="490" y="179" style="font-size:10px;font-weight:none;stroke:none; fill:#333399" text-anchor="left" /></g><g componentSequence="12"><text x="508" y="237" style="font-size:10px;font-weight:none;stroke:none; fill:#333399" text-anchor="left" /></g><g componentSequence="14"><text x="490" y="288" style="font-size:10px;font-weight:none;stroke:none; fill:#333399" text-anchor="left" /></g><g componentSequence="17"><text x="490" y="287" style="font-size:10px;font-weight:none;stroke:none; fill:#333399" text-anchor="left" /></g><g componentSequence="20"><text x="323" y="572" style="font-size:10px;font-weight:none;stroke:none; fill:#333399" text-anchor="left" /></g><g componentSequence="25"><text x="503" y="682" style="font-size:10px;font-weight:none;stroke:none; fill:#333399" text-anchor="left" /></g><g componentSequence="28"><text x="503" y="682" style="font-size:10px;font-weight:none;stroke:none; fill:#333399" text-anchor="left" /></g><g componentSequence="30"><text x="323" y="787" style="font-size:10px;font-weight:none;stroke:none; fill:#333399" text-anchor="left" /></g><g componentSequence="32"><text x="323" y="1031" style="font-size:10px;font-weight:none;stroke:none; fill:#333399" text-anchor="left" /></g><g componentSequence="33"><text x="513" y="1132" style="font-size:10px;font-weight:none;stroke:none; fill:#333399" text-anchor="left" /></g><g componentSequence="34"><text x="490" y="179" style="font-size:10px;font-weight:none;stroke:none; fill:#333399" text-anchor="left" /></g><g componentSequence="35"><text x="177" y="226" style="font-size:10px;font-weight:none;stroke:none; fill:#333399" text-anchor="left" /></g><g componentSequence="36"><text x="323" y="352" style="font-size:10px;font-weight:none;stroke:none; fill:#333399" text-anchor="left" /></g><path style="fill:none; stroke:#000000;stroke-width:1" d="M167.0 117.0 L167.0 242.0 L259.0 242.0" /><polygon style="fill:#000000; stroke:#000000;" points=" 249 237 259 242 249 247 251 242" /><path style="fill:none; stroke:#000000;stroke-dasharray:2" d="M209.0 48.0 L167.0 48.0 L167.0 81.0" /><path style="fill:none; stroke:#000000;stroke-width:1" d="M366.0 222.0 L594.0 135.0" /><polygon style="fill:#000000; stroke:#000000;" points=" 583 134 594 135 586 143 587 138" /><path style="fill:none; stroke:#000000;stroke-width:1" d="M366.0 240.0 L630.0 232.0" /><polygon style="fill:#000000; stroke:#000000;" points=" 620 227 630 232 620 237 622 232" /><path style="fill:none; stroke:#000000;stroke-width:1" d="M366.0 257.0 L594.0 318.0" /><polygon style="fill:#000000; stroke:#000000;" points=" 586 311 594 318 583 320 586 316" /><path style="fill:none; stroke:#000000;stroke-width:1" d="M313.0 285.0 L313.0 419.0" /><polygon style="fill:#000000; stroke:#000000;" points=" 318 409 313 419 308 409 313 411" /><path style="fill:none; stroke:#000000;stroke-width:1" d="M594.0 318.0 L366.0 257.0" /><polygon style="fill:#000000; stroke:#000000;" points=" 374 264 366 257 377 255 374 259" /><path style="fill:none; stroke:#000000;stroke-width:1" d="M594.0 135.0 L366.0 222.0" /><polygon style="fill:#000000; stroke:#000000;" points=" 377 223 366 222 374 214 373 219" /><path style="fill:none; stroke:#000000;stroke-width:1" d="M313.0 505.0 L313.0 639.0" /><polygon style="fill:#000000; stroke:#000000;" points=" 318 629 313 639 308 629 313 631" /><path style="fill:none; stroke:#000000;stroke-width:1" d="M366.0 682.0 L619.0 682.0" /><polygon style="fill:#000000; stroke:#000000;" points=" 609 677 619 682 609 687 611 682" /><path style="fill:none; stroke:#000000;stroke-width:1" d="M313.0 725.0 L313.0 849.0" /><polygon style="fill:#000000; stroke:#000000;" points=" 318 839 313 849 308 839 313 841" /><path style="fill:none; stroke:#000000;stroke-width:1" d="M619.0 682.0 L366.0 682.0" /><polygon style="fill:#000000; stroke:#000000;" points=" 376 687 366 682 376 677 374 682" /><path style="fill:none; stroke:#000000;stroke-width:1" d="M366.0 1132.0 L639.0 1132.0" /><polygon style="fill:#000000; stroke:#000000;" points=" 629 1127 639 1132 629 1137 631 1132" /><path style="fill:none; stroke:#000000;stroke-width:1" d="M313.0 973.0 L313.0 1089.0" /><polygon style="fill:#000000; stroke:#000000;" points=" 318 1079 313 1089 308 1079 313 1081" /><defs><linearGradient xmlns:xlink="http://www.w3.org/1999/xlink" xlink:href="#linearGradient66FF6696FF96B6FFB6" id="linearGradient66FF6696FF96B6FFB6_2140473221" x1="0" y1="82.0" x2="0" y2="117.0" gradientUnits="userSpaceOnUse" xlink:type="simple" xlink:actuate="onLoad" xlink:show="other" /><linearGradient id="linearGradient66FF6696FF96B6FFB6"><stop style="stop-color:#66FF66;stop-opacity:1;" offset="0.0" id="stop66FF66" /><stop style="stop-color:#96FF96;stop-opacity:1;" offset="0.5" id="stop96FF96" /><stop style="stop-color:#B6FFB6;stop-opacity:1;" offset="1.0" id="stopB6FFB6" /></linearGradient><linearGradient xmlns:xlink="http://www.w3.org/1999/xlink" xlink:href="#linearGradientF8FBFEEDF5FCDEEDFAD4E7F8E2E5E9" id="linearGradientF8FBFEEDF5FCDEEDFAD4E7F8E2E5E9_1901258247" x1="0" y1="200.0" x2="0" y2="306.0" gradientUnits="userSpaceOnUse" xlink:type="simple" xlink:actuate="onLoad" xlink:show="other" /><linearGradient id="linearGradientF8FBFEEDF5FCDEEDFAD4E7F8E2E5E9"><stop style="stop-color:#F8FBFE;stop-opacity:1;" offset="0.0" id="stopF8FBFE" /><stop style="stop-color:#EDF5FC;stop-opacity:1;" offset="0.25" id="stopEDF5FC" /><stop style="stop-color:#DEEDFA;stop-opacity:1;" offset="0.5" id="stopDEEDFA" /><stop style="stop-color:#D4E7F8;stop-opacity:1;" offset="0.75" id="stopD4E7F8" /><stop style="stop-color:#E2E5E9;stop-opacity:1;" offset="1.0" id="stopE2E5E9" /></linearGradient><linearGradient xmlns:xlink="http://www.w3.org/1999/xlink" xlink:href="#linearGradientF8FBFEEDF5FCDEEDFAD4E7F8E2E5E9" id="linearGradientF8FBFEEDF5FCDEEDFAD4E7F8E2E5E9_1970105589" x1="0" y1="63.0" x2="0" y2="169.0" gradientUnits="userSpaceOnUse" xlink:type="simple" xlink:actuate="onLoad" xlink:show="other" /><linearGradient xmlns:xlink="http://www.w3.org/1999/xlink" xlink:href="#linearGradientFF6666FF9696FFB6B6" id="linearGradientFF6666FF9696FFB6B6_812641340" x1="0" y1="215.0" x2="0" y2="250.0" gradientUnits="userSpaceOnUse" xlink:type="simple" xlink:actuate="onLoad" xlink:show="other" /><linearGradient id="linearGradientFF6666FF9696FFB6B6"><stop style="stop-color:#FF6666;stop-opacity:1;" offset="0.0" id="stopFF6666" /><stop style="stop-color:#FF9696;stop-opacity:1;" offset="0.5" id="stopFF9696" /><stop style="stop-color:#FFB6B6;stop-opacity:1;" offset="1.0" id="stopFFB6B6" /></linearGradient><linearGradient xmlns:xlink="http://www.w3.org/1999/xlink" xlink:href="#linearGradientF8FBFEEDF5FCDEEDFAD4E7F8E2E5E9" id="linearGradientF8FBFEEDF5FCDEEDFAD4E7F8E2E5E9_1737583771" x1="0" y1="300.0" x2="0" y2="406.0" gradientUnits="userSpaceOnUse" xlink:type="simple" xlink:actuate="onLoad" xlink:show="other" /><linearGradient xmlns:xlink="http://www.w3.org/1999/xlink" xlink:href="#linearGradientF8FBFEEDF5FCDEEDFAD4E7F8E2E5E9" id="linearGradientF8FBFEEDF5FCDEEDFAD4E7F8E2E5E9_18209968" x1="0" y1="420.0" x2="0" y2="526.0" gradientUnits="userSpaceOnUse" xlink:type="simple" xlink:actuate="onLoad" xlink:show="other" /><linearGradient xmlns:xlink="http://www.w3.org/1999/xlink" xlink:href="#linearGradientF8FBFEEDF5FCDEEDFAD4E7F8E2E5E9" id="linearGradientF8FBFEEDF5FCDEEDFAD4E7F8E2E5E9_520159907" x1="0" y1="640.0" x2="0" y2="746.0" gradientUnits="userSpaceOnUse" xlink:type="simple" xlink:actuate="onLoad" xlink:show="other" /><linearGradient xmlns:xlink="http://www.w3.org/1999/xlink" xlink:href="#linearGradientF8FBFEEDF5FCDEEDFAD4E7F8E2E5E9" id="linearGradientF8FBFEEDF5FCDEEDFAD4E7F8E2E5E9_1346376563" x1="0" y1="631.0" x2="0" y2="737.0" gradientUnits="userSpaceOnUse" xlink:type="simple" xlink:actuate="onLoad" xlink:show="other" /><linearGradient xmlns:xlink="http://www.w3.org/1999/xlink" xlink:href="#linearGradientFF6666FF9696FFB6B6" id="linearGradientFF6666FF9696FFB6B6_1012484180" x1="0" y1="1115.0" x2="0" y2="1150.0" gradientUnits="userSpaceOnUse" xlink:type="simple" xlink:actuate="onLoad" xlink:show="other" /><linearGradient xmlns:xlink="http://www.w3.org/1999/xlink" xlink:href="#linearGradientF8FBFEEDF5FCDEEDFAD4E7F8E2E5E9" id="linearGradientF8FBFEEDF5FCDEEDFAD4E7F8E2E5E9_327607091" x1="0" y1="850.0" x2="0" y2="956.0" gradientUnits="userSpaceOnUse" xlink:type="simple" xlink:actuate="onLoad" xlink:show="other" /><linearGradient xmlns:xlink="http://www.w3.org/1999/xlink" xlink:href="#linearGradientF8FBFEEDF5FCDEEDFAD4E7F8E2E5E9" id="linearGradientF8FBFEEDF5FCDEEDFAD4E7F8E2E5E9_67497978" x1="0" y1="1090.0" x2="0" y2="1196.0" gradientUnits="userSpaceOnUse" xlink:type="simple" xlink:actuate="onLoad" xlink:show="other" /></defs></svg>
