<?xml version="1.0" encoding="UTF-8"?>
<svg xmlns="http://www.w3.org/2000/svg" style="stroke-dasharray:none; shape-rendering:auto; font-family:'Arial'; text-rendering:auto; fill-opacity:1; color-interpolation:auto; color-rendering:auto; font-size:12; fill:black; stroke:black; image-rendering:auto; stroke-miterlimit:10; stroke-linecap:square; stroke-linejoin:miter; font-style:normal; stroke-width:1; stroke-dashoffset:0; font-weight:normal; stroke-opacity:1;" contentScriptType="text/ecmascript" preserveAspectRatio="xMidYMid meet" zoomAndPan="magnify" version="1.0" contentStyleType="text/css" xml:xlink="http://www.w3.org/1999/xlink" width="1040" height="611"><rect x="0" y="10" width="1040" height="601" ry="0" rx="0" style="stroke:#000000; fill:#FFFFFF" /><rect x="30" y="410" width="1010" height="201" ry="0" rx="0" style="stroke:#000000; fill:#ADC9AC" /><g componentSequence="4"><text x="-510" y="39" transform="rotate(270)" text-anchor="middle" style="font-weight:bold;font-size:10px;stroke:none; fill:#434343"><tspan dy="14" x="-510">DP</tspan></text></g><rect x="30" y="210" width="1010" height="200" ry="0" rx="0" style="stroke:#000000; fill:#C0C0C0" /><g componentSequence="3"><text x="-310" y="39" transform="rotate(270)" text-anchor="middle" style="font-weight:bold;font-size:10px;stroke:none; fill:#434343"><tspan dy="14" x="-310">Ana</tspan></text></g><rect x="30" y="10" width="1010" height="200" ry="0" rx="0" style="stroke:#000000; fill:#9F9F9F" /><g componentSequence="2"><text x="-110" y="39" transform="rotate(270)" text-anchor="middle" style="font-weight:bold;font-size:10px;stroke:none; fill:#434343"><tspan dy="14" x="-110">Inicia Solicitação</tspan></text></g><g componentSequence="1"><text x="-310" y="9" transform="rotate(270)" text-anchor="middle" style="font-weight:bold;font-size:10px;stroke:none; fill:#434343"><tspan dy="14" x="-310">Alteração de Função e Salário</tspan></text></g><g sequence="5"><ellipse cx="517" cy="307" rx="17" ry="17" stroke-width="3" style="fill:url(#linearGradientFF6666FF9696FFB6B6_1254773891);" stroke="993333" /></g><g sequence="5"><polygon points=" 508 303 513 298 518 303 523 298 528 303 523 308 528 313 523 318 518 313 513 318 508 313 513 308" style="stroke:none; fill:#993333" /></g><g sequence="6"><rect x="260" y="480" width="106" height="104" ry="5" rx="5" style="fill:url(#linearGradientF8FBFEEDF5FCDEEDFAD4E7F8E2E5E9_1141748650);" stroke="191970" /></g><g componentSequence="6"><text x="313" y="495" text-anchor="middle" style="font-weight:bold;font-size:10px;stroke:none; fill:#333399"><tspan dy="14" x="313">Inserir</tspan><tspan dy="14" x="313">alterações</tspan><tspan dy="14" x="313">no RM</tspan></text></g><g sequence="8"><rect x="260" y="264" width="106" height="85" ry="5" rx="5" style="fill:url(#linearGradientF8FBFEEDF5FCDEEDFAD4E7F8E2E5E9_1077034995);" stroke="191970" /></g><g componentSequence="8"><text x="313" y="279" text-anchor="middle" style="font-weight:bold;font-size:10px;stroke:none; fill:#333399"><tspan dy="14" x="313">Valida</tspan><tspan dy="14" x="313">Solicitação</tspan></text></g><rect x="570" y="500" width="105" height="70" ry="5" rx="5" style="stroke:none; fill:#FFFFE0" /><g componentSequence="9"><text x="580" y="523" text-anchor="left" style="font-weight:bold;font-size:10px;stroke:none; fill:#000000"><tspan dy="14" x="580">Finaliza a</tspan><tspan dy="14" x="580">Solicitação</tspan></text></g><path style="fill:none; stroke-width:1; stroke:#000000;" d="M590.0 500.0 L570.0 500.0 L570.0 570.0 L590.0 570.0" /><g sequence="11"><ellipse cx="157" cy="57" rx="17" ry="17" stroke-width="1" style="fill:url(#linearGradient66FF6696FF96B6FFB6_87079313);" stroke="336633" /></g><rect x="200" y="30" width="105" height="55" ry="5" rx="5" style="stroke:none; fill:#FFFFE0" /><g componentSequence="13"><text x="210" y="43" text-anchor="left" style="font-weight:bold;font-size:10px;stroke:none; fill:#000000"><tspan dy="14" x="210">Início</tspan></text></g><path style="fill:none; stroke-width:1; stroke:#000000;" d="M220.0 30.0 L200.0 30.0 L200.0 85.0 L220.0 85.0" /><g sequence="15"><rect x="450" y="61" width="106" height="104" ry="5" rx="5" style="fill:url(#linearGradientF8FBFEEDF5FCDEEDFAD4E7F8E2E5E9_499555320);" stroke="191970" /></g><g componentSequence="15"><text x="503" y="76" text-anchor="middle" style="font-weight:bold;font-size:10px;stroke:none; fill:#333399"><tspan dy="14" x="503">Correção</tspan><tspan dy="14" x="503">de</tspan><tspan dy="14" x="503">Solicitação</tspan></text></g><g sequence="16"><ellipse cx="527" cy="537" rx="17" ry="17" stroke-width="3" style="fill:url(#linearGradientFF6666FF9696FFB6B6_880802569);" stroke="993333" /></g><rect x="600" y="259" width="105" height="108" ry="5" rx="5" style="stroke:none; fill:#FFFFE0" /><g componentSequence="17"><text x="610" y="282" text-anchor="left" style="font-weight:bold;font-size:10px;stroke:none; fill:#000000"><tspan dy="14" x="610">Solicitação</tspan><tspan dy="14" x="610">reprovada</tspan><tspan dy="14" x="610">, cancela</tspan><tspan dy="14" x="610">solicitação</tspan></text></g><path style="fill:none; stroke-width:1; stroke:#000000;" d="M620.0 259.0 L600.0 259.0 L600.0 367.0 L620.0 367.0" /><g componentSequence="20"><text x="443" y="307" style="font-size:10px;font-weight:none;stroke:none; fill:#333399" text-anchor="left" /></g><g componentSequence="21"><text x="323" y="414" style="font-size:10px;font-weight:none;stroke:none; fill:#333399" text-anchor="left" /></g><g componentSequence="22"><text x="413" y="214" style="font-size:10px;font-weight:none;stroke:none; fill:#333399" text-anchor="left" /></g><g componentSequence="23"><text x="567" y="537" style="font-size:10px;font-weight:none;stroke:none; fill:#333399" text-anchor="left" /></g><g componentSequence="25"><text x="167" y="201" style="font-size:10px;font-weight:none;stroke:none; fill:#333399" text-anchor="left" /></g><g componentSequence="27"><text x="197" y="57" style="font-size:10px;font-weight:none;stroke:none; fill:#333399" text-anchor="left" /></g><g componentSequence="29"><text x="413" y="214" style="font-size:10px;font-weight:none;stroke:none; fill:#333399" text-anchor="left" /></g><g componentSequence="30"><text x="577" y="309" style="font-size:10px;font-weight:none;stroke:none; fill:#333399" text-anchor="left" /></g><g componentSequence="31"><text x="448" y="535" style="font-size:10px;font-weight:none;stroke:none; fill:#333399" text-anchor="left" /></g><path style="fill:none; stroke:#000000;stroke-width:1" d="M366.0 306.0 L500.0 307.0" /><polygon style="fill:#000000; stroke:#000000;" points=" 490 302 500 307 490 312 492 307" /><path style="fill:none; stroke:#000000;stroke-dasharray:2" d="M599.0 310.0 L534.0 307.0" /><path style="fill:none; stroke:#000000;stroke-width:1" d="M366.0 533.0 L510.0 537.0" /><polygon style="fill:#000000; stroke:#000000;" points=" 500 532 510 537 500 542 502 537" /><path style="fill:none; stroke:#000000;stroke-width:1" d="M313.0 349.0 L313.0 479.0" /><polygon style="fill:#000000; stroke:#000000;" points=" 318 469 313 479 308 469 313 471" /><path style="fill:none; stroke:#000000;stroke-width:1" d="M355.0 263.0 L451.0 165.0" /><polygon style="fill:#000000; stroke:#000000;" points=" 440 169 451 165 448 176 445 171" /><path style="fill:none; stroke:#000000;stroke-width:1" d="M157.0 75.0 L157.0 204.0 L259.0 271.0" /><polygon style="fill:#000000; stroke:#000000;" points=" 253 261 259 271 248 270 252 267" /><path style="fill:none; stroke:#000000;stroke-width:1" d="M451.0 165.0 L355.0 263.0" /><polygon style="fill:#000000; stroke:#000000;" points=" 366 259 355 263 358 252 361 257" /><path style="fill:none; stroke:#000000;stroke-dasharray:2" d="M569.0 536.0 L544.0 537.0" /><path style="fill:none; stroke:#000000;stroke-dasharray:2" d="M199.0 57.0 L175.0 57.0" /><defs><linearGradient xmlns:xlink="http://www.w3.org/1999/xlink" xlink:href="#linearGradientFF6666FF9696FFB6B6" id="linearGradientFF6666FF9696FFB6B6_1254773891" x1="0" y1="290.0" x2="0" y2="325.0" gradientUnits="userSpaceOnUse" xlink:type="simple" xlink:actuate="onLoad" xlink:show="other" /><linearGradient id="linearGradientFF6666FF9696FFB6B6"><stop style="stop-color:#FF6666;stop-opacity:1;" offset="0.0" id="stopFF6666" /><stop style="stop-color:#FF9696;stop-opacity:1;" offset="0.5" id="stopFF9696" /><stop style="stop-color:#FFB6B6;stop-opacity:1;" offset="1.0" id="stopFFB6B6" /></linearGradient><linearGradient xmlns:xlink="http://www.w3.org/1999/xlink" xlink:href="#linearGradientF8FBFEEDF5FCDEEDFAD4E7F8E2E5E9" id="linearGradientF8FBFEEDF5FCDEEDFAD4E7F8E2E5E9_1141748650" x1="0" y1="480.0" x2="0" y2="586.0" gradientUnits="userSpaceOnUse" xlink:type="simple" xlink:actuate="onLoad" xlink:show="other" /><linearGradient id="linearGradientF8FBFEEDF5FCDEEDFAD4E7F8E2E5E9"><stop style="stop-color:#F8FBFE;stop-opacity:1;" offset="0.0" id="stopF8FBFE" /><stop style="stop-color:#EDF5FC;stop-opacity:1;" offset="0.25" id="stopEDF5FC" /><stop style="stop-color:#DEEDFA;stop-opacity:1;" offset="0.5" id="stopDEEDFA" /><stop style="stop-color:#D4E7F8;stop-opacity:1;" offset="0.75" id="stopD4E7F8" /><stop style="stop-color:#E2E5E9;stop-opacity:1;" offset="1.0" id="stopE2E5E9" /></linearGradient><linearGradient xmlns:xlink="http://www.w3.org/1999/xlink" xlink:href="#linearGradientF8FBFEEDF5FCDEEDFAD4E7F8E2E5E9" id="linearGradientF8FBFEEDF5FCDEEDFAD4E7F8E2E5E9_1077034995" x1="0" y1="264.0" x2="0" y2="370.0" gradientUnits="userSpaceOnUse" xlink:type="simple" xlink:actuate="onLoad" xlink:show="other" /><linearGradient xmlns:xlink="http://www.w3.org/1999/xlink" xlink:href="#linearGradient66FF6696FF96B6FFB6" id="linearGradient66FF6696FF96B6FFB6_87079313" x1="0" y1="40.0" x2="0" y2="75.0" gradientUnits="userSpaceOnUse" xlink:type="simple" xlink:actuate="onLoad" xlink:show="other" /><linearGradient id="linearGradient66FF6696FF96B6FFB6"><stop style="stop-color:#66FF66;stop-opacity:1;" offset="0.0" id="stop66FF66" /><stop style="stop-color:#96FF96;stop-opacity:1;" offset="0.5" id="stop96FF96" /><stop style="stop-color:#B6FFB6;stop-opacity:1;" offset="1.0" id="stopB6FFB6" /></linearGradient><linearGradient xmlns:xlink="http://www.w3.org/1999/xlink" xlink:href="#linearGradientF8FBFEEDF5FCDEEDFAD4E7F8E2E5E9" id="linearGradientF8FBFEEDF5FCDEEDFAD4E7F8E2E5E9_499555320" x1="0" y1="61.0" x2="0" y2="167.0" gradientUnits="userSpaceOnUse" xlink:type="simple" xlink:actuate="onLoad" xlink:show="other" /><linearGradient xmlns:xlink="http://www.w3.org/1999/xlink" xlink:href="#linearGradientFF6666FF9696FFB6B6" id="linearGradientFF6666FF9696FFB6B6_880802569" x1="0" y1="520.0" x2="0" y2="555.0" gradientUnits="userSpaceOnUse" xlink:type="simple" xlink:actuate="onLoad" xlink:show="other" /></defs></svg>
