<?xml version="1.0" encoding="UTF-8"?>
<svg xmlns="http://www.w3.org/2000/svg" style="stroke-dasharray:none; shape-rendering:auto; font-family:'Arial'; text-rendering:auto; fill-opacity:1; color-interpolation:auto; color-rendering:auto; font-size:12; fill:black; stroke:black; image-rendering:auto; stroke-miterlimit:10; stroke-linecap:square; stroke-linejoin:miter; font-style:normal; stroke-width:1; stroke-dashoffset:0; font-weight:normal; stroke-opacity:1;" contentScriptType="text/ecmascript" preserveAspectRatio="xMidYMid meet" zoomAndPan="magnify" version="1.0" contentStyleType="text/css" xml:xlink="http://www.w3.org/1999/xlink" width="1040" height="611"><rect x="0" y="10" width="1040" height="601" ry="0" rx="0" style="stroke:#000000; fill:#FFFFFF" /><rect x="30" y="410" width="1010" height="201" ry="0" rx="0" style="stroke:#000000; fill:#ADC9AC" /><g componentSequence="4"><text x="-510" y="39" transform="rotate(270)" text-anchor="middle" style="font-weight:bold;font-size:10px;stroke:none; fill:#434343"><tspan dy="14" x="-510">DP</tspan></text></g><rect x="30" y="210" width="1010" height="200" ry="0" rx="0" style="stroke:#000000; fill:#C0C0C0" /><g componentSequence="3"><text x="-310" y="39" transform="rotate(270)" text-anchor="middle" style="font-weight:bold;font-size:10px;stroke:none; fill:#434343"><tspan dy="14" x="-310">Ana</tspan></text></g><rect x="30" y="10" width="1010" height="200" ry="0" rx="0" style="stroke:#000000; fill:#9F9F9F" /><g componentSequence="2"><text x="-110" y="39" transform="rotate(270)" text-anchor="middle" style="font-weight:bold;font-size:10px;stroke:none; fill:#434343"><tspan dy="14" x="-110">Inicia Solicitação</tspan></text></g><g componentSequence="1"><text x="-310" y="9" transform="rotate(270)" text-anchor="middle" style="font-weight:bold;font-size:10px;stroke:none; fill:#434343"><tspan dy="14" x="-310">Alteração de Função e Salário</tspan></text></g><g sequence="5"><ellipse cx="517" cy="307" rx="17" ry="17" stroke-width="3" style="fill:url(#linearGradientFF6666FF9696FFB6B6_596187165);" stroke="993333" /></g><g sequence="5"><polygon points=" 508 303 513 298 518 303 523 298 528 303 523 308 528 313 523 318 518 313 513 318 508 313 513 308" style="stroke:none; fill:#993333" /></g><g sequence="6"><rect x="400" y="470" width="106" height="123" ry="5" rx="5" style="fill:url(#linearGradientF8FBFEEDF5FCDEEDFAD4E7F8E2E5E9_760144412);" stroke="191970" /></g><g componentSequence="6"><text x="453" y="485" text-anchor="middle" style="font-weight:bold;font-size:10px;stroke:none; fill:#333399"><tspan dy="14" x="453">Emissão</tspan><tspan dy="14" x="453">do</tspan><tspan dy="14" x="453">Aditivo/Ter</tspan><tspan dy="14" x="453">mo</tspan></text></g><g sequence="7"><rect x="260" y="500" width="106" height="66" ry="5" rx="5" style="fill:url(#linearGradientF8FBFEEDF5FCDEEDFAD4E7F8E2E5E9_695300973);" stroke="191970" /></g><g componentSequence="7"><text x="313" y="522" text-anchor="middle" style="font-weight:bold;font-size:10px;stroke:none; fill:#333399"><tspan dy="14" x="313">Esocial</tspan></text></g><rect x="920" y="490" width="105" height="70" ry="5" rx="5" style="stroke:none; fill:#FFFFE0" /><g componentSequence="8"><text x="930" y="513" text-anchor="left" style="font-weight:bold;font-size:10px;stroke:none; fill:#000000"><tspan dy="14" x="930">Finaliza a</tspan><tspan dy="14" x="930">Solicitação</tspan></text></g><path style="fill:none; stroke-width:1; stroke:#000000;" d="M940.0 490.0 L920.0 490.0 L920.0 560.0 L940.0 560.0" /><rect x="200" y="30" width="105" height="55" ry="5" rx="5" style="stroke:none; fill:#FFFFE0" /><g componentSequence="9"><text x="210" y="43" text-anchor="left" style="font-weight:bold;font-size:10px;stroke:none; fill:#000000"><tspan dy="14" x="210">Início</tspan></text></g><path style="fill:none; stroke-width:1; stroke:#000000;" d="M220.0 30.0 L200.0 30.0 L200.0 85.0 L220.0 85.0" /><g sequence="10"><rect x="260" y="264" width="106" height="85" ry="5" rx="5" style="fill:url(#linearGradientF8FBFEEDF5FCDEEDFAD4E7F8E2E5E9_1819535399);" stroke="191970" /></g><g componentSequence="10"><text x="313" y="279" text-anchor="middle" style="font-weight:bold;font-size:10px;stroke:none; fill:#333399"><tspan dy="14" x="313">Valida</tspan><tspan dy="14" x="313">Solicitação</tspan></text></g><g sequence="11"><rect x="80" y="476" width="106" height="104" ry="5" rx="5" style="fill:url(#linearGradientF8FBFEEDF5FCDEEDFAD4E7F8E2E5E9_122768452);" stroke="191970" /></g><g componentSequence="11"><text x="133" y="491" text-anchor="middle" style="font-weight:bold;font-size:10px;stroke:none; fill:#333399"><tspan dy="14" x="133">Inserir</tspan><tspan dy="14" x="133">alterações</tspan><tspan dy="14" x="133">no RM</tspan></text></g><g sequence="12"><ellipse cx="877" cy="527" rx="17" ry="17" stroke-width="3" style="fill:url(#linearGradientFF6666FF9696FFB6B6_1574240432);" stroke="993333" /></g><g sequence="13"><ellipse cx="157" cy="57" rx="17" ry="17" stroke-width="1" style="fill:url(#linearGradient66FF6696FF96B6FFB6_2132671100);" stroke="336633" /></g><g sequence="14"><rect x="540" y="482" width="106" height="85" ry="5" rx="5" style="fill:url(#linearGradientF8FBFEEDF5FCDEEDFAD4E7F8E2E5E9_207361896);" stroke="191970" /></g><g componentSequence="14"><text x="593" y="497" text-anchor="middle" style="font-weight:bold;font-size:10px;stroke:none; fill:#333399"><tspan dy="14" x="593">Envia para</tspan><tspan dy="14" x="593">filial</tspan></text></g><g sequence="15"><rect x="690" y="490" width="106" height="66" ry="5" rx="5" style="fill:url(#linearGradientF8FBFEEDF5FCDEEDFAD4E7F8E2E5E9_23218635);" stroke="191970" /></g><g componentSequence="15"><text x="743" y="512" text-anchor="middle" style="font-weight:bold;font-size:10px;stroke:none; fill:#333399"><tspan dy="14" x="743">Assinatura</tspan></text></g><rect x="600" y="259" width="161" height="108" ry="5" rx="5" style="stroke:none; fill:#FFFFE0" /><g componentSequence="16"><text x="610" y="282" text-anchor="left" style="font-weight:bold;font-size:10px;stroke:none; fill:#000000"><tspan dy="14" x="610">Solicitação</tspan><tspan dy="14" x="610">reprovada,</tspan><tspan dy="14" x="610">cancela</tspan><tspan dy="14" x="610">solicitação</tspan></text></g><path style="fill:none; stroke-width:1; stroke:#000000;" d="M620.0 259.0 L600.0 259.0 L600.0 367.0 L620.0 367.0" /><g sequence="30"><rect x="450" y="61" width="106" height="104" ry="5" rx="5" style="fill:url(#linearGradientF8FBFEEDF5FCDEEDFAD4E7F8E2E5E9_1950816727);" stroke="191970" /></g><g componentSequence="30"><text x="503" y="76" text-anchor="middle" style="font-weight:bold;font-size:10px;stroke:none; fill:#333399"><tspan dy="14" x="503">Correção</tspan><tspan dy="14" x="503">de</tspan><tspan dy="14" x="503">Solicitação</tspan></text></g><g componentSequence="18"><text x="533" y="527" style="font-size:10px;font-weight:none;stroke:none; fill:#333399" text-anchor="left" /></g><g componentSequence="19"><text x="393" y="532" style="font-size:10px;font-weight:none;stroke:none; fill:#333399" text-anchor="left" /></g><g componentSequence="20"><text x="917" y="527" style="font-size:10px;font-weight:none;stroke:none; fill:#333399" text-anchor="left" /></g><g componentSequence="21"><text x="197" y="57" style="font-size:10px;font-weight:none;stroke:none; fill:#333399" text-anchor="left" /></g><g componentSequence="22"><text x="443" y="307" style="font-size:10px;font-weight:none;stroke:none; fill:#333399" text-anchor="left" /></g><g componentSequence="23"><text x="237" y="412" style="font-size:10px;font-weight:none;stroke:none; fill:#333399" text-anchor="left" /></g><g componentSequence="25"><text x="233" y="530" style="font-size:10px;font-weight:none;stroke:none; fill:#333399" text-anchor="left" /></g><g componentSequence="26"><text x="167" y="201" style="font-size:10px;font-weight:none;stroke:none; fill:#333399" text-anchor="left" /></g><g componentSequence="27"><text x="678" y="524" style="font-size:10px;font-weight:none;stroke:none; fill:#333399" text-anchor="left" /></g><g componentSequence="28"><text x="838" y="525" style="font-size:10px;font-weight:none;stroke:none; fill:#333399" text-anchor="left" /></g><g componentSequence="29"><text x="577" y="309" style="font-size:10px;font-weight:none;stroke:none; fill:#333399" text-anchor="left" /></g><g componentSequence="31"><text x="413" y="214" style="font-size:10px;font-weight:none;stroke:none; fill:#333399" text-anchor="left" /></g><g componentSequence="32"><text x="413" y="214" style="font-size:10px;font-weight:none;stroke:none; fill:#333399" text-anchor="left" /></g><path style="fill:none; stroke:#000000;stroke-width:1" d="M366.0 306.0 L500.0 307.0" /><polygon style="fill:#000000; stroke:#000000;" points=" 490 302 500 307 490 312 492 307" /><path style="fill:none; stroke:#000000;stroke-dasharray:2" d="M599.0 310.0 L534.0 307.0" /><path style="fill:none; stroke:#000000;stroke-width:1" d="M506.0 528.0 L539.0 527.0" /><polygon style="fill:#000000; stroke:#000000;" points=" 529 522 539 527 529 532 531 527" /><path style="fill:none; stroke:#000000;stroke-width:1" d="M366.0 532.0 L399.0 532.0" /><polygon style="fill:#000000; stroke:#000000;" points=" 389 527 399 532 389 537 391 532" /><path style="fill:none; stroke:#000000;stroke-width:1" d="M186.0 529.0 L259.0 531.0" /><polygon style="fill:#000000; stroke:#000000;" points=" 249 526 259 531 249 536 251 531" /><path style="fill:none; stroke:#000000;stroke-dasharray:2" d="M919.0 526.0 L894.0 527.0" /><path style="fill:none; stroke:#000000;stroke-dasharray:2" d="M199.0 57.0 L175.0 57.0" /><path style="fill:none; stroke:#000000;stroke-width:1" d="M278.0 349.0 L175.0 475.0" /><polygon style="fill:#000000; stroke:#000000;" points=" 185 470 175 475 177 464 180 469" /><path style="fill:none; stroke:#000000;stroke-width:1" d="M355.0 263.0 L451.0 165.0" /><polygon style="fill:#000000; stroke:#000000;" points=" 440 169 451 165 448 176 445 171" /><path style="fill:none; stroke:#000000;stroke-width:1" d="M157.0 75.0 L157.0 204.0 L259.0 271.0" /><polygon style="fill:#000000; stroke:#000000;" points=" 253 261 259 271 248 270 252 267" /><path style="fill:none; stroke:#000000;stroke-width:1" d="M451.0 165.0 L355.0 263.0" /><polygon style="fill:#000000; stroke:#000000;" points=" 366 259 355 263 358 252 361 257" /><path style="fill:none; stroke:#000000;stroke-width:1" d="M796.0 524.0 L860.0 527.0" /><polygon style="fill:#000000; stroke:#000000;" points=" 850 522 860 527 850 532 852 527" /><path style="fill:none; stroke:#000000;stroke-width:1" d="M646.0 524.0 L689.0 523.0" /><polygon style="fill:#000000; stroke:#000000;" points=" 679 518 689 523 679 528 681 523" /><defs><linearGradient xmlns:xlink="http://www.w3.org/1999/xlink" xlink:href="#linearGradientFF6666FF9696FFB6B6" id="linearGradientFF6666FF9696FFB6B6_596187165" x1="0" y1="290.0" x2="0" y2="325.0" gradientUnits="userSpaceOnUse" xlink:type="simple" xlink:actuate="onLoad" xlink:show="other" /><linearGradient id="linearGradientFF6666FF9696FFB6B6"><stop style="stop-color:#FF6666;stop-opacity:1;" offset="0.0" id="stopFF6666" /><stop style="stop-color:#FF9696;stop-opacity:1;" offset="0.5" id="stopFF9696" /><stop style="stop-color:#FFB6B6;stop-opacity:1;" offset="1.0" id="stopFFB6B6" /></linearGradient><linearGradient xmlns:xlink="http://www.w3.org/1999/xlink" xlink:href="#linearGradientF8FBFEEDF5FCDEEDFAD4E7F8E2E5E9" id="linearGradientF8FBFEEDF5FCDEEDFAD4E7F8E2E5E9_760144412" x1="0" y1="470.0" x2="0" y2="576.0" gradientUnits="userSpaceOnUse" xlink:type="simple" xlink:actuate="onLoad" xlink:show="other" /><linearGradient id="linearGradientF8FBFEEDF5FCDEEDFAD4E7F8E2E5E9"><stop style="stop-color:#F8FBFE;stop-opacity:1;" offset="0.0" id="stopF8FBFE" /><stop style="stop-color:#EDF5FC;stop-opacity:1;" offset="0.25" id="stopEDF5FC" /><stop style="stop-color:#DEEDFA;stop-opacity:1;" offset="0.5" id="stopDEEDFA" /><stop style="stop-color:#D4E7F8;stop-opacity:1;" offset="0.75" id="stopD4E7F8" /><stop style="stop-color:#E2E5E9;stop-opacity:1;" offset="1.0" id="stopE2E5E9" /></linearGradient><linearGradient xmlns:xlink="http://www.w3.org/1999/xlink" xlink:href="#linearGradientF8FBFEEDF5FCDEEDFAD4E7F8E2E5E9" id="linearGradientF8FBFEEDF5FCDEEDFAD4E7F8E2E5E9_695300973" x1="0" y1="500.0" x2="0" y2="606.0" gradientUnits="userSpaceOnUse" xlink:type="simple" xlink:actuate="onLoad" xlink:show="other" /><linearGradient xmlns:xlink="http://www.w3.org/1999/xlink" xlink:href="#linearGradientF8FBFEEDF5FCDEEDFAD4E7F8E2E5E9" id="linearGradientF8FBFEEDF5FCDEEDFAD4E7F8E2E5E9_1819535399" x1="0" y1="264.0" x2="0" y2="370.0" gradientUnits="userSpaceOnUse" xlink:type="simple" xlink:actuate="onLoad" xlink:show="other" /><linearGradient xmlns:xlink="http://www.w3.org/1999/xlink" xlink:href="#linearGradientF8FBFEEDF5FCDEEDFAD4E7F8E2E5E9" id="linearGradientF8FBFEEDF5FCDEEDFAD4E7F8E2E5E9_122768452" x1="0" y1="476.0" x2="0" y2="582.0" gradientUnits="userSpaceOnUse" xlink:type="simple" xlink:actuate="onLoad" xlink:show="other" /><linearGradient xmlns:xlink="http://www.w3.org/1999/xlink" xlink:href="#linearGradientFF6666FF9696FFB6B6" id="linearGradientFF6666FF9696FFB6B6_1574240432" x1="0" y1="510.0" x2="0" y2="545.0" gradientUnits="userSpaceOnUse" xlink:type="simple" xlink:actuate="onLoad" xlink:show="other" /><linearGradient xmlns:xlink="http://www.w3.org/1999/xlink" xlink:href="#linearGradient66FF6696FF96B6FFB6" id="linearGradient66FF6696FF96B6FFB6_2132671100" x1="0" y1="40.0" x2="0" y2="75.0" gradientUnits="userSpaceOnUse" xlink:type="simple" xlink:actuate="onLoad" xlink:show="other" /><linearGradient id="linearGradient66FF6696FF96B6FFB6"><stop style="stop-color:#66FF66;stop-opacity:1;" offset="0.0" id="stop66FF66" /><stop style="stop-color:#96FF96;stop-opacity:1;" offset="0.5" id="stop96FF96" /><stop style="stop-color:#B6FFB6;stop-opacity:1;" offset="1.0" id="stopB6FFB6" /></linearGradient><linearGradient xmlns:xlink="http://www.w3.org/1999/xlink" xlink:href="#linearGradientF8FBFEEDF5FCDEEDFAD4E7F8E2E5E9" id="linearGradientF8FBFEEDF5FCDEEDFAD4E7F8E2E5E9_207361896" x1="0" y1="482.0" x2="0" y2="588.0" gradientUnits="userSpaceOnUse" xlink:type="simple" xlink:actuate="onLoad" xlink:show="other" /><linearGradient xmlns:xlink="http://www.w3.org/1999/xlink" xlink:href="#linearGradientF8FBFEEDF5FCDEEDFAD4E7F8E2E5E9" id="linearGradientF8FBFEEDF5FCDEEDFAD4E7F8E2E5E9_23218635" x1="0" y1="490.0" x2="0" y2="596.0" gradientUnits="userSpaceOnUse" xlink:type="simple" xlink:actuate="onLoad" xlink:show="other" /><linearGradient xmlns:xlink="http://www.w3.org/1999/xlink" xlink:href="#linearGradientF8FBFEEDF5FCDEEDFAD4E7F8E2E5E9" id="linearGradientF8FBFEEDF5FCDEEDFAD4E7F8E2E5E9_1950816727" x1="0" y1="61.0" x2="0" y2="167.0" gradientUnits="userSpaceOnUse" xlink:type="simple" xlink:actuate="onLoad" xlink:show="other" /></defs></svg>
