<?xml version="1.0" encoding="UTF-8"?>
<svg xmlns="http://www.w3.org/2000/svg" style="stroke-dasharray:none; shape-rendering:auto; font-family:'Arial'; text-rendering:auto; fill-opacity:1; color-interpolation:auto; color-rendering:auto; font-size:12; fill:black; stroke:black; image-rendering:auto; stroke-miterlimit:10; stroke-linecap:square; stroke-linejoin:miter; font-style:normal; stroke-width:1; stroke-dashoffset:0; font-weight:normal; stroke-opacity:1;" contentScriptType="text/ecmascript" preserveAspectRatio="xMidYMid meet" zoomAndPan="magnify" version="1.0" contentStyleType="text/css" xml:xlink="http://www.w3.org/1999/xlink" width="1040" height="611"><rect x="0" y="10" width="1040" height="601" ry="0" rx="0" style="stroke:#000000; fill:#FFFFFF" /><rect x="30" y="460" width="1010" height="151" ry="0" rx="0" style="stroke:#000000; fill:#ADC9AC" /><g componentSequence="10"><text x="-535" y="39" transform="rotate(270)" text-anchor="middle" style="font-weight:bold;font-size:10px;stroke:none; fill:#434343"><tspan dy="14" x="-535">DP</tspan></text></g><rect x="30" y="310" width="1010" height="150" ry="0" rx="0" style="stroke:#000000; fill:#82B0B7" /><g componentSequence="9"><text x="-385" y="39" transform="rotate(270)" text-anchor="middle" style="font-weight:bold;font-size:10px;stroke:none; fill:#434343"><tspan dy="14" x="-385">RH</tspan></text></g><rect x="30" y="160" width="1010" height="150" ry="0" rx="0" style="stroke:#000000; fill:#C0C0C0" /><g componentSequence="3"><text x="-235" y="39" transform="rotate(270)" text-anchor="middle" style="font-weight:bold;font-size:10px;stroke:none; fill:#434343"><tspan dy="14" x="-235">Ana</tspan></text></g><rect x="30" y="10" width="1010" height="150" ry="0" rx="0" style="stroke:#000000; fill:#9F9F9F" /><g componentSequence="2"><text x="-85" y="39" transform="rotate(270)" text-anchor="middle" style="font-weight:bold;font-size:10px;stroke:none; fill:#434343"><tspan dy="14" x="-85">Inicia Solicitação</tspan></text></g><g componentSequence="1"><text x="-310" y="9" transform="rotate(270)" text-anchor="middle" style="font-weight:bold;font-size:10px;stroke:none; fill:#434343"><tspan dy="14" x="-310">Alteração de Função e Salário</tspan></text></g><g sequence="4"><ellipse cx="157" cy="57" rx="17" ry="17" stroke-width="1" style="fill:url(#linearGradient66FF6696FF96B6FFB6_1130797124);" stroke="336633" /></g><g sequence="5"><rect x="260" y="190" width="106" height="85" ry="5" rx="5" style="fill:url(#linearGradientF8FBFEEDF5FCDEEDFAD4E7F8E2E5E9_1302429272);" stroke="191970" /></g><g componentSequence="5"><text x="313" y="205" text-anchor="middle" style="font-weight:bold;font-size:10px;stroke:none; fill:#333399"><tspan dy="14" x="313">Valida</tspan><tspan dy="14" x="313">Solicitação</tspan></text></g><rect x="200" y="30" width="105" height="55" ry="5" rx="5" style="stroke:none; fill:#FFFFE0" /><g componentSequence="7"><text x="210" y="43" text-anchor="left" style="font-weight:bold;font-size:10px;stroke:none; fill:#000000"><tspan dy="14" x="210">Início</tspan></text></g><path style="fill:none; stroke-width:1; stroke:#000000;" d="M220.0 30.0 L200.0 30.0 L200.0 85.0 L220.0 85.0" /><g sequence="13"><rect x="350" y="44" width="106" height="104" ry="5" rx="5" style="fill:url(#linearGradientF8FBFEEDF5FCDEEDFAD4E7F8E2E5E9_1235153716);" stroke="191970" /></g><g componentSequence="13"><text x="403" y="59" text-anchor="middle" style="font-weight:bold;font-size:10px;stroke:none; fill:#333399"><tspan dy="14" x="403">Correção</tspan><tspan dy="14" x="403">de</tspan><tspan dy="14" x="403">Solicitação</tspan></text></g><g sequence="18"><ellipse cx="517" cy="224" rx="17" ry="17" stroke-width="3" style="fill:url(#linearGradientFF6666FF9696FFB6B6_211580003);" stroke="993333" /></g><g sequence="18"><polygon points=" 508 220 513 215 518 220 523 215 528 220 523 225 528 230 523 235 518 230 513 235 508 230 513 225" style="stroke:none; fill:#993333" /></g><rect x="590" y="183" width="105" height="108" ry="5" rx="5" style="stroke:none; fill:#FFFFE0" /><g componentSequence="19"><text x="600" y="206" text-anchor="left" style="font-weight:bold;font-size:10px;stroke:none; fill:#000000"><tspan dy="14" x="600">Solicitação</tspan><tspan dy="14" x="600">reprovada</tspan><tspan dy="14" x="600">, cancela</tspan><tspan dy="14" x="600">solicitação</tspan></text></g><path style="fill:none; stroke-width:1; stroke:#000000;" d="M610.0 183.0 L590.0 183.0 L590.0 291.0 L610.0 291.0" /><g sequence="21"><rect x="110" y="345" width="106" height="104" ry="5" rx="5" style="fill:url(#linearGradientF8FBFEEDF5FCDEEDFAD4E7F8E2E5E9_2077190412);" stroke="191970" /></g><g componentSequence="21"><text x="163" y="360" text-anchor="middle" style="font-weight:bold;font-size:10px;stroke:none; fill:#333399"><tspan dy="14" x="163">Exame de</tspan><tspan dy="14" x="163">Mudança</tspan><tspan dy="14" x="163">de Função</tspan></text></g><g sequence="23"><rect x="330" y="340" width="106" height="104" ry="5" rx="5" style="fill:url(#linearGradientF8FBFEEDF5FCDEEDFAD4E7F8E2E5E9_1037736851);" stroke="191970" /></g><g componentSequence="23"><text x="383" y="355" text-anchor="middle" style="font-weight:bold;font-size:10px;stroke:none; fill:#333399"><tspan dy="14" x="383">Inserir</tspan><tspan dy="14" x="383">exame no</tspan><tspan dy="14" x="383">RM</tspan></text></g><g sequence="25"><rect x="560" y="325" width="106" height="123" ry="5" rx="5" style="fill:url(#linearGradientF8FBFEEDF5FCDEEDFAD4E7F8E2E5E9_56875087);" stroke="191970" /></g><g componentSequence="25"><text x="613" y="340" text-anchor="middle" style="font-weight:bold;font-size:10px;stroke:none; fill:#333399"><tspan dy="14" x="613">Abrir</tspan><tspan dy="14" x="613">chamado</tspan><tspan dy="14" x="613">de</tspan><tspan dy="14" x="613">alteração</tspan></text></g><g sequence="27"><rect x="80" y="476" width="106" height="104" ry="5" rx="5" style="fill:url(#linearGradientF8FBFEEDF5FCDEEDFAD4E7F8E2E5E9_1823705900);" stroke="191970" /></g><g componentSequence="27"><text x="133" y="491" text-anchor="middle" style="font-weight:bold;font-size:10px;stroke:none; fill:#333399"><tspan dy="14" x="133">Inserir</tspan><tspan dy="14" x="133">alterações</tspan><tspan dy="14" x="133">no RM</tspan></text></g><g sequence="29"><rect x="260" y="500" width="106" height="66" ry="5" rx="5" style="fill:url(#linearGradientF8FBFEEDF5FCDEEDFAD4E7F8E2E5E9_1823742143);" stroke="191970" /></g><g componentSequence="29"><text x="313" y="522" text-anchor="middle" style="font-weight:bold;font-size:10px;stroke:none; fill:#333399"><tspan dy="14" x="313">Esocial</tspan></text></g><g sequence="31"><rect x="400" y="475" width="106" height="123" ry="5" rx="5" style="fill:url(#linearGradientF8FBFEEDF5FCDEEDFAD4E7F8E2E5E9_98242745);" stroke="191970" /></g><g componentSequence="31"><text x="453" y="490" text-anchor="middle" style="font-weight:bold;font-size:10px;stroke:none; fill:#333399"><tspan dy="14" x="453">Emissão</tspan><tspan dy="14" x="453">do</tspan><tspan dy="14" x="453">Aditivo/Ter</tspan><tspan dy="14" x="453">mo</tspan></text></g><g sequence="33"><rect x="540" y="482" width="106" height="85" ry="5" rx="5" style="fill:url(#linearGradientF8FBFEEDF5FCDEEDFAD4E7F8E2E5E9_409407981);" stroke="191970" /></g><g componentSequence="33"><text x="593" y="497" text-anchor="middle" style="font-weight:bold;font-size:10px;stroke:none; fill:#333399"><tspan dy="14" x="593">Envia para</tspan><tspan dy="14" x="593">filial</tspan></text></g><g sequence="35"><rect x="690" y="490" width="106" height="66" ry="5" rx="5" style="fill:url(#linearGradientF8FBFEEDF5FCDEEDFAD4E7F8E2E5E9_1761415974);" stroke="191970" /></g><g componentSequence="35"><text x="743" y="512" text-anchor="middle" style="font-weight:bold;font-size:10px;stroke:none; fill:#333399"><tspan dy="14" x="743">Assinatura</tspan></text></g><g sequence="37"><ellipse cx="877" cy="527" rx="17" ry="17" stroke-width="3" style="fill:url(#linearGradientFF6666FF9696FFB6B6_608210790);" stroke="993333" /></g><rect x="920" y="490" width="105" height="70" ry="5" rx="5" style="stroke:none; fill:#FFFFE0" /><g componentSequence="41"><text x="930" y="513" text-anchor="left" style="font-weight:bold;font-size:10px;stroke:none; fill:#000000"><tspan dy="14" x="930">Finaliza a</tspan><tspan dy="14" x="930">Solicitação</tspan></text></g><path style="fill:none; stroke-width:1; stroke:#000000;" d="M940.0 490.0 L920.0 490.0 L920.0 560.0 L940.0 560.0" /><g componentSequence="6"><text x="167" y="191" style="font-size:10px;font-weight:none;stroke:none; fill:#333399" text-anchor="left" /></g><g componentSequence="8"><text x="197" y="57" style="font-size:10px;font-weight:none;stroke:none; fill:#333399" text-anchor="left" /></g><g componentSequence="14"><text x="323" y="122" style="font-size:10px;font-weight:none;stroke:none; fill:#333399" text-anchor="left" /></g><g componentSequence="15"><text x="400" y="172" style="font-size:10px;font-weight:none;stroke:none; fill:#333399" text-anchor="left" /></g><g componentSequence="17"><text x="443" y="228" style="font-size:10px;font-weight:none;stroke:none; fill:#333399" text-anchor="left" /></g><g componentSequence="20"><text x="572" y="229" style="font-size:10px;font-weight:none;stroke:none; fill:#333399" text-anchor="left" /></g><g componentSequence="22"><text x="171" y="237" style="font-size:10px;font-weight:none;stroke:none; fill:#333399" text-anchor="left" /></g><g componentSequence="24"><text x="283" y="394" style="font-size:10px;font-weight:none;stroke:none; fill:#333399" text-anchor="left" /></g><g componentSequence="26"><text x="508" y="389" style="font-size:10px;font-weight:none;stroke:none; fill:#333399" text-anchor="left" /></g><g componentSequence="28"><text x="383" y="457" style="font-size:10px;font-weight:none;stroke:none; fill:#333399" text-anchor="left" /></g><g componentSequence="30"><text x="233" y="530" style="font-size:10px;font-weight:none;stroke:none; fill:#333399" text-anchor="left" /></g><g componentSequence="32"><text x="393" y="535" style="font-size:10px;font-weight:none;stroke:none; fill:#333399" text-anchor="left" /></g><g componentSequence="34"><text x="533" y="530" style="font-size:10px;font-weight:none;stroke:none; fill:#333399" text-anchor="left" /></g><g componentSequence="36"><text x="678" y="524" style="font-size:10px;font-weight:none;stroke:none; fill:#333399" text-anchor="left" /></g><g componentSequence="38"><text x="838" y="525" style="font-size:10px;font-weight:none;stroke:none; fill:#333399" text-anchor="left" /></g><g componentSequence="42"><text x="917" y="527" style="font-size:10px;font-weight:none;stroke:none; fill:#333399" text-anchor="left" /></g><path style="fill:none; stroke:#000000;stroke-width:1" d="M157.0 75.0 L157.0 204.0 L259.0 222.0" /><polygon style="fill:#000000; stroke:#000000;" points=" 250 215 259 222 248 225 251 221" /><path style="fill:none; stroke:#000000;stroke-dasharray:2" d="M199.0 57.0 L175.0 57.0" /><path style="fill:none; stroke:#000000;stroke-width:1" d="M366.0 230.0 L500.0 224.0" /><polygon style="fill:#000000; stroke:#000000;" points=" 490 219 500 224 490 229 492 224" /><path style="fill:none; stroke:#000000;stroke-width:1" d="M313.0 189.0 L313.0 92.0 L349.0 93.0" /><polygon style="fill:#000000; stroke:#000000;" points=" 339 88 349 93 339 98 341 93" /><path style="fill:none; stroke:#000000;stroke-width:1" d="M259.0 231.0 L161.0 228.0 L162.0 344.0" /><polygon style="fill:#000000; stroke:#000000;" points=" 167 334 162 344 157 334 162 336" /><path style="fill:none; stroke:#000000;stroke-width:1" d="M402.0 148.0 L402.0 162.0 L366.0 190.0" /><polygon style="fill:#000000; stroke:#000000;" points=" 377 188 366 190 371 180 372 185" /><path style="fill:none; stroke:#000000;stroke-dasharray:2" d="M589.0 231.0 L534.0 225.0" /><path style="fill:none; stroke:#000000;stroke-width:1" d="M216.0 395.0 L329.0 393.0" /><polygon style="fill:#000000; stroke:#000000;" points=" 319 388 329 393 319 398 321 393" /><path style="fill:none; stroke:#000000;stroke-width:1" d="M436.0 390.0 L559.0 387.0" /><polygon style="fill:#000000; stroke:#000000;" points=" 549 382 559 387 549 392 551 387" /><path style="fill:none; stroke:#000000;stroke-width:1" d="M559.0 402.0 L186.0 512.0" /><polygon style="fill:#000000; stroke:#000000;" points=" 197 514 186 512 194 504 194 510" /><path style="fill:none; stroke:#000000;stroke-width:1" d="M186.0 529.0 L259.0 531.0" /><polygon style="fill:#000000; stroke:#000000;" points=" 249 526 259 531 249 536 251 531" /><path style="fill:none; stroke:#000000;stroke-width:1" d="M366.0 534.0 L399.0 535.0" /><polygon style="fill:#000000; stroke:#000000;" points=" 389 530 399 535 389 540 391 535" /><path style="fill:none; stroke:#000000;stroke-width:1" d="M506.0 531.0 L539.0 529.0" /><polygon style="fill:#000000; stroke:#000000;" points=" 529 525 539 529 529 535 531 529" /><path style="fill:none; stroke:#000000;stroke-width:1" d="M646.0 524.0 L689.0 523.0" /><polygon style="fill:#000000; stroke:#000000;" points=" 679 518 689 523 679 528 681 523" /><path style="fill:none; stroke:#000000;stroke-width:1" d="M796.0 524.0 L860.0 527.0" /><polygon style="fill:#000000; stroke:#000000;" points=" 850 522 860 527 850 532 852 527" /><path style="fill:none; stroke:#000000;stroke-dasharray:2" d="M919.0 526.0 L894.0 527.0" /><defs><linearGradient xmlns:xlink="http://www.w3.org/1999/xlink" xlink:href="#linearGradient66FF6696FF96B6FFB6" id="linearGradient66FF6696FF96B6FFB6_1130797124" x1="0" y1="40.0" x2="0" y2="75.0" gradientUnits="userSpaceOnUse" xlink:type="simple" xlink:actuate="onLoad" xlink:show="other" /><linearGradient id="linearGradient66FF6696FF96B6FFB6"><stop style="stop-color:#66FF66;stop-opacity:1;" offset="0.0" id="stop66FF66" /><stop style="stop-color:#96FF96;stop-opacity:1;" offset="0.5" id="stop96FF96" /><stop style="stop-color:#B6FFB6;stop-opacity:1;" offset="1.0" id="stopB6FFB6" /></linearGradient><linearGradient xmlns:xlink="http://www.w3.org/1999/xlink" xlink:href="#linearGradientF8FBFEEDF5FCDEEDFAD4E7F8E2E5E9" id="linearGradientF8FBFEEDF5FCDEEDFAD4E7F8E2E5E9_1302429272" x1="0" y1="190.0" x2="0" y2="296.0" gradientUnits="userSpaceOnUse" xlink:type="simple" xlink:actuate="onLoad" xlink:show="other" /><linearGradient id="linearGradientF8FBFEEDF5FCDEEDFAD4E7F8E2E5E9"><stop style="stop-color:#F8FBFE;stop-opacity:1;" offset="0.0" id="stopF8FBFE" /><stop style="stop-color:#EDF5FC;stop-opacity:1;" offset="0.25" id="stopEDF5FC" /><stop style="stop-color:#DEEDFA;stop-opacity:1;" offset="0.5" id="stopDEEDFA" /><stop style="stop-color:#D4E7F8;stop-opacity:1;" offset="0.75" id="stopD4E7F8" /><stop style="stop-color:#E2E5E9;stop-opacity:1;" offset="1.0" id="stopE2E5E9" /></linearGradient><linearGradient xmlns:xlink="http://www.w3.org/1999/xlink" xlink:href="#linearGradientF8FBFEEDF5FCDEEDFAD4E7F8E2E5E9" id="linearGradientF8FBFEEDF5FCDEEDFAD4E7F8E2E5E9_1235153716" x1="0" y1="44.0" x2="0" y2="150.0" gradientUnits="userSpaceOnUse" xlink:type="simple" xlink:actuate="onLoad" xlink:show="other" /><linearGradient xmlns:xlink="http://www.w3.org/1999/xlink" xlink:href="#linearGradientFF6666FF9696FFB6B6" id="linearGradientFF6666FF9696FFB6B6_211580003" x1="0" y1="207.0" x2="0" y2="242.0" gradientUnits="userSpaceOnUse" xlink:type="simple" xlink:actuate="onLoad" xlink:show="other" /><linearGradient id="linearGradientFF6666FF9696FFB6B6"><stop style="stop-color:#FF6666;stop-opacity:1;" offset="0.0" id="stopFF6666" /><stop style="stop-color:#FF9696;stop-opacity:1;" offset="0.5" id="stopFF9696" /><stop style="stop-color:#FFB6B6;stop-opacity:1;" offset="1.0" id="stopFFB6B6" /></linearGradient><linearGradient xmlns:xlink="http://www.w3.org/1999/xlink" xlink:href="#linearGradientF8FBFEEDF5FCDEEDFAD4E7F8E2E5E9" id="linearGradientF8FBFEEDF5FCDEEDFAD4E7F8E2E5E9_2077190412" x1="0" y1="345.0" x2="0" y2="451.0" gradientUnits="userSpaceOnUse" xlink:type="simple" xlink:actuate="onLoad" xlink:show="other" /><linearGradient xmlns:xlink="http://www.w3.org/1999/xlink" xlink:href="#linearGradientF8FBFEEDF5FCDEEDFAD4E7F8E2E5E9" id="linearGradientF8FBFEEDF5FCDEEDFAD4E7F8E2E5E9_1037736851" x1="0" y1="340.0" x2="0" y2="446.0" gradientUnits="userSpaceOnUse" xlink:type="simple" xlink:actuate="onLoad" xlink:show="other" /><linearGradient xmlns:xlink="http://www.w3.org/1999/xlink" xlink:href="#linearGradientF8FBFEEDF5FCDEEDFAD4E7F8E2E5E9" id="linearGradientF8FBFEEDF5FCDEEDFAD4E7F8E2E5E9_56875087" x1="0" y1="325.0" x2="0" y2="431.0" gradientUnits="userSpaceOnUse" xlink:type="simple" xlink:actuate="onLoad" xlink:show="other" /><linearGradient xmlns:xlink="http://www.w3.org/1999/xlink" xlink:href="#linearGradientF8FBFEEDF5FCDEEDFAD4E7F8E2E5E9" id="linearGradientF8FBFEEDF5FCDEEDFAD4E7F8E2E5E9_1823705900" x1="0" y1="476.0" x2="0" y2="582.0" gradientUnits="userSpaceOnUse" xlink:type="simple" xlink:actuate="onLoad" xlink:show="other" /><linearGradient xmlns:xlink="http://www.w3.org/1999/xlink" xlink:href="#linearGradientF8FBFEEDF5FCDEEDFAD4E7F8E2E5E9" id="linearGradientF8FBFEEDF5FCDEEDFAD4E7F8E2E5E9_1823742143" x1="0" y1="500.0" x2="0" y2="606.0" gradientUnits="userSpaceOnUse" xlink:type="simple" xlink:actuate="onLoad" xlink:show="other" /><linearGradient xmlns:xlink="http://www.w3.org/1999/xlink" xlink:href="#linearGradientF8FBFEEDF5FCDEEDFAD4E7F8E2E5E9" id="linearGradientF8FBFEEDF5FCDEEDFAD4E7F8E2E5E9_98242745" x1="0" y1="475.0" x2="0" y2="581.0" gradientUnits="userSpaceOnUse" xlink:type="simple" xlink:actuate="onLoad" xlink:show="other" /><linearGradient xmlns:xlink="http://www.w3.org/1999/xlink" xlink:href="#linearGradientF8FBFEEDF5FCDEEDFAD4E7F8E2E5E9" id="linearGradientF8FBFEEDF5FCDEEDFAD4E7F8E2E5E9_409407981" x1="0" y1="482.0" x2="0" y2="588.0" gradientUnits="userSpaceOnUse" xlink:type="simple" xlink:actuate="onLoad" xlink:show="other" /><linearGradient xmlns:xlink="http://www.w3.org/1999/xlink" xlink:href="#linearGradientF8FBFEEDF5FCDEEDFAD4E7F8E2E5E9" id="linearGradientF8FBFEEDF5FCDEEDFAD4E7F8E2E5E9_1761415974" x1="0" y1="490.0" x2="0" y2="596.0" gradientUnits="userSpaceOnUse" xlink:type="simple" xlink:actuate="onLoad" xlink:show="other" /><linearGradient xmlns:xlink="http://www.w3.org/1999/xlink" xlink:href="#linearGradientFF6666FF9696FFB6B6" id="linearGradientFF6666FF9696FFB6B6_608210790" x1="0" y1="510.0" x2="0" y2="545.0" gradientUnits="userSpaceOnUse" xlink:type="simple" xlink:actuate="onLoad" xlink:show="other" /></defs></svg>
