<?xml version="1.0" encoding="UTF-8"?>
<svg xmlns="http://www.w3.org/2000/svg" style="stroke-dasharray:none; shape-rendering:auto; font-family:'Arial'; text-rendering:auto; fill-opacity:1; color-interpolation:auto; color-rendering:auto; font-size:12; fill:black; stroke:black; image-rendering:auto; stroke-miterlimit:10; stroke-linecap:square; stroke-linejoin:miter; font-style:normal; stroke-width:1; stroke-dashoffset:0; font-weight:normal; stroke-opacity:1;" contentScriptType="text/ecmascript" preserveAspectRatio="xMidYMid meet" zoomAndPan="magnify" version="1.0" contentStyleType="text/css" xml:xlink="http://www.w3.org/1999/xlink" width="1545" height="635"><g sequence="4"><ellipse cx="170" cy="240" rx="17" ry="17" stroke-width="1" style="fill:url(#linearGradient66FF6696FF96B6FFB6_2071925952);" stroke="336633" /></g><g sequence="5"><rect x="463" y="349" width="106" height="66" ry="5" rx="5" style="fill:url(#linearGradientF8FBFEEDF5FCDEEDFAD4E7F8E2E5E9_1975055839);" stroke="191970" /></g><g componentSequence="5"><text x="516" y="371" text-anchor="middle" style="font-weight:bold;font-size:10px;stroke:none; fill:#333399"><tspan dy="14" x="516">Validação</tspan></text></g><rect x="213" y="161" width="105" height="55" ry="5" rx="5" style="stroke:none; fill:#FFFFE0" /><g componentSequence="7"><text x="223" y="174" text-anchor="left" style="font-weight:bold;font-size:10px;stroke:none; fill:#000000"><tspan dy="14" x="223">Início</tspan></text></g><path style="fill:none; stroke-width:1; stroke:#000000;" d="M233.0 161.0 L213.0 161.0 L213.0 216.0 L233.0 216.0" /><g sequence="9"><polygon points=" 793 342 823 312 853 342 823 372 793 342" style="fill:url(#linearGradientFAFBFCFFFFCC_1904705456);" stroke="000000" /></g><g componentSequence="9"><text x="823" y="382" text-anchor="middle" style="font-weight:bold;font-size:10px;stroke:none; fill:#333399"><tspan dy="14" x="823">Toma</tspan><tspan dy="14" x="823">da de</tspan><tspan dy="14" x="823">de...</tspan></text></g><g sequence="11"><rect x="770" y="171" width="106" height="104" ry="5" rx="5" style="fill:url(#linearGradientF8FBFEEDF5FCDEEDFAD4E7F8E2E5E9_881197028);" stroke="191970" /></g><g componentSequence="11"><text x="823" y="186" text-anchor="middle" style="font-weight:bold;font-size:10px;stroke:none; fill:#333399"><tspan dy="14" x="823">Corrigir</tspan><tspan dy="14" x="823">Requisição</tspan></text></g><g sequence="16"><ellipse cx="1159" cy="381" rx="17" ry="17" stroke-width="3" style="fill:url(#linearGradientFF6666FF9696FFB6B6_928986272);" stroke="993333" /></g><g sequence="16"><polygon points=" 1150 377 1155 372 1160 377 1165 372 1170 377 1165 382 1170 387 1165 392 1160 387 1155 392 1150 387 1155 382" style="stroke:none; fill:#993333" /></g><g sequence="17"><ellipse cx="1527" cy="566" rx="17" ry="17" stroke-width="3" style="fill:url(#linearGradientFF6666FF9696FFB6B6_100346265);" stroke="993333" /></g><g sequence="18"><polygon points=" 793 540 823 510 853 540 823 570 793 540" style="fill:url(#linearGradientFAFBFCFFFFCC_1338752105);" stroke="000000" /></g><g componentSequence="18"><text x="823" y="580" text-anchor="middle" style="font-weight:bold;font-size:10px;stroke:none; fill:#333399"><tspan dy="14" x="823">Aprov</tspan><tspan dy="14" x="823">ado</tspan></text></g><g sequence="20"><rect x="940" y="526" width="106" height="85" ry="5" rx="5" style="fill:url(#linearGradientF8FBFEEDF5FCDEEDFAD4E7F8E2E5E9_1420427435);" stroke="191970" /></g><g componentSequence="20"><text x="993" y="541" text-anchor="middle" style="font-weight:bold;font-size:10px;stroke:none; fill:#333399"><tspan dy="14" x="993">RH</tspan><tspan dy="14" x="993">Unidade</tspan></text></g><g sequence="23"><polygon points=" 290 353 320 323 350 353 320 383 290 353" style="fill:url(#linearGradientFAFBFCFFFFCC_446616746);" stroke="000000" /></g><g componentSequence="23"><text x="320" y="393" text-anchor="middle" style="font-weight:bold;font-size:10px;stroke:none; fill:#333399"><tspan dy="14" x="320">Exclu</tspan><tspan dy="14" x="320">sivo</tspan></text></g><g sequence="26"><polygon points=" 486 185 516 155 546 185 516 215 486 185" style="fill:url(#linearGradientFAFBFCFFFFCC_1182105985);" stroke="000000" /></g><g componentSequence="26"><text x="516" y="225" text-anchor="middle" style="font-weight:bold;font-size:10px;stroke:none; fill:#333399"><tspan dy="14" x="516">Corre</tspan><tspan dy="14" x="516">ção</tspan><tspan dy="14" x="516">efe...</tspan></text></g><g sequence="29"><polygon points=" 1130 529 1160 499 1190 529 1160 559 1130 529" style="fill:url(#linearGradientFAFBFCFFFFCC_1422874066);" stroke="000000" /></g><g componentSequence="29"><text x="1160" y="569" text-anchor="middle" style="font-weight:bold;font-size:10px;stroke:none; fill:#333399"><tspan dy="14" x="1160">Inform</tspan><tspan dy="14" x="1160">ativo..</tspan><tspan dy="14" x="1160">.</tspan></text></g><g sequence="31"><rect x="1290" y="526" width="106" height="85" ry="5" rx="5" style="fill:url(#linearGradientF8FBFEEDF5FCDEEDFAD4E7F8E2E5E9_1357166776);" stroke="191970" /></g><g componentSequence="31"><text x="1343" y="541" text-anchor="middle" style="font-weight:bold;font-size:10px;stroke:none; fill:#333399"><tspan dy="14" x="1343">DP</tspan><tspan dy="14" x="1343">Unidade</tspan></text></g><g componentSequence="8"><text x="185" y="189" style="font-size:10px;font-weight:none;stroke:none; fill:#333399" text-anchor="left" /></g><g componentSequence="10"><text x="691" y="381" style="font-size:10px;font-weight:none;stroke:none; fill:#333399" text-anchor="left" /></g><g componentSequence="12"><text x="833" y="293" style="font-size:10px;font-weight:none;stroke:none; fill:#333399" text-anchor="left" /></g><g componentSequence="15"><text x="1007" y="381" style="font-size:10px;font-weight:none;stroke:none; fill:#333399" text-anchor="left" /></g><g componentSequence="19"><text x="833" y="479" style="font-size:10px;font-weight:none;stroke:none; fill:#333399" text-anchor="left" /></g><g componentSequence="21"><text x="906" y="568" style="font-size:10px;font-weight:none;stroke:none; fill:#333399" text-anchor="left" /></g><g componentSequence="24"><text x="180" y="379" style="font-size:10px;font-weight:none;stroke:none; fill:#333399" text-anchor="left" /></g><g componentSequence="25"><text x="416" y="381" style="font-size:10px;font-weight:none;stroke:none; fill:#333399" text-anchor="left" /></g><g componentSequence="27"><text x="526" y="320" style="font-size:10px;font-weight:none;stroke:none; fill:#333399" text-anchor="left" /></g><g componentSequence="28"><text x="668" y="223" style="font-size:10px;font-weight:none;stroke:none; fill:#333399" text-anchor="left" /></g><g componentSequence="30"><text x="1098" y="568" style="font-size:10px;font-weight:none;stroke:none; fill:#333399" text-anchor="left" /></g><g componentSequence="32"><text x="1250" y="568" style="font-size:10px;font-weight:none;stroke:none; fill:#333399" text-anchor="left" /></g><g componentSequence="33"><text x="1463" y="567" style="font-size:10px;font-weight:none;stroke:none; fill:#333399" text-anchor="left" /></g><path style="fill:none; stroke:#000000;stroke-width:1" d="M170.0 258.0 L170.0 381.0 L289.0 381.0" /><polygon style="fill:#000000; stroke:#000000;" points=" 279 376 289 381 279 386 281 381" /><path style="fill:none; stroke:#000000;stroke-dasharray:2" d="M212.0 189.0 L170.0 189.0 L170.0 222.0" /><path style="fill:none; stroke:#000000;stroke-width:1" d="M569.0 381.0 L792.0 380.0" /><polygon style="fill:#000000; stroke:#000000;" points=" 782 375 792 380 782 385 784 380" /><path style="fill:none; stroke:#000000;stroke-width:1" d="M350.0 381.0 L462.0 381.0" /><polygon style="fill:#000000; stroke:#000000;" points=" 452 376 462 381 452 386 454 381" /><path style="fill:none; stroke:#000000;stroke-width:1" d="M516.0 291.0 L516.0 348.0" /><polygon style="fill:#000000; stroke:#000000;" points=" 521 338 516 348 511 338 516 340" /><path style="fill:none; stroke:#000000;stroke-width:1" d="M823.0 311.0 L823.0 275.0" /><polygon style="fill:#000000; stroke:#000000;" points=" 818 285 823 275 828 285 823 283" /><path style="fill:none; stroke:#000000;stroke-width:1" d="M853.0 380.0 L1142.0 381.0" /><polygon style="fill:#000000; stroke:#000000;" points=" 1132 376 1142 381 1132 386 1134 381" /><path style="fill:none; stroke:#000000;stroke-width:1" d="M823.0 448.0 L823.0 509.0" /><polygon style="fill:#000000; stroke:#000000;" points=" 828 499 823 509 818 499 823 501" /><path style="fill:none; stroke:#000000;stroke-width:1" d="M769.0 223.0 L546.0 223.0" /><polygon style="fill:#000000; stroke:#000000;" points=" 556 228 546 223 556 218 554 223" /><path style="fill:none; stroke:#000000;stroke-width:1" d="M1396.0 567.0 L1510.0 566.0" /><polygon style="fill:#000000; stroke:#000000;" points=" 1500 561 1510 566 1500 571 1502 566" /><path style="fill:none; stroke:#000000;stroke-width:1" d="M853.0 568.0 L939.0 568.0" /><polygon style="fill:#000000; stroke:#000000;" points=" 929 563 939 568 929 573 931 568" /><path style="fill:none; stroke:#000000;stroke-width:1" d="M1046.0 568.0 L1129.0 567.0" /><polygon style="fill:#000000; stroke:#000000;" points=" 1119 562 1129 567 1119 572 1121 567" /><path style="fill:none; stroke:#000000;stroke-width:1" d="M1190.0 567.0 L1289.0 568.0" /><polygon style="fill:#000000; stroke:#000000;" points=" 1279 563 1289 568 1279 573 1281 568" /><defs><linearGradient xmlns:xlink="http://www.w3.org/1999/xlink" xlink:href="#linearGradient66FF6696FF96B6FFB6" id="linearGradient66FF6696FF96B6FFB6_2071925952" x1="0" y1="223.0" x2="0" y2="258.0" gradientUnits="userSpaceOnUse" xlink:type="simple" xlink:actuate="onLoad" xlink:show="other" /><linearGradient id="linearGradient66FF6696FF96B6FFB6"><stop style="stop-color:#66FF66;stop-opacity:1;" offset="0.0" id="stop66FF66" /><stop style="stop-color:#96FF96;stop-opacity:1;" offset="0.5" id="stop96FF96" /><stop style="stop-color:#B6FFB6;stop-opacity:1;" offset="1.0" id="stopB6FFB6" /></linearGradient><linearGradient xmlns:xlink="http://www.w3.org/1999/xlink" xlink:href="#linearGradientF8FBFEEDF5FCDEEDFAD4E7F8E2E5E9" id="linearGradientF8FBFEEDF5FCDEEDFAD4E7F8E2E5E9_1975055839" x1="0" y1="349.0" x2="0" y2="455.0" gradientUnits="userSpaceOnUse" xlink:type="simple" xlink:actuate="onLoad" xlink:show="other" /><linearGradient id="linearGradientF8FBFEEDF5FCDEEDFAD4E7F8E2E5E9"><stop style="stop-color:#F8FBFE;stop-opacity:1;" offset="0.0" id="stopF8FBFE" /><stop style="stop-color:#EDF5FC;stop-opacity:1;" offset="0.25" id="stopEDF5FC" /><stop style="stop-color:#DEEDFA;stop-opacity:1;" offset="0.5" id="stopDEEDFA" /><stop style="stop-color:#D4E7F8;stop-opacity:1;" offset="0.75" id="stopD4E7F8" /><stop style="stop-color:#E2E5E9;stop-opacity:1;" offset="1.0" id="stopE2E5E9" /></linearGradient><linearGradient xmlns:xlink="http://www.w3.org/1999/xlink" xlink:href="#linearGradientFAFBFCFFFFCC" id="linearGradientFAFBFCFFFFCC_1904705456" x1="0" y1="312.0" x2="0" y2="372.0" gradientUnits="userSpaceOnUse" xlink:type="simple" xlink:actuate="onLoad" xlink:show="other" /><linearGradient id="linearGradientFAFBFCFFFFCC"><stop style="stop-color:#FAFBFC;stop-opacity:1;" offset="0.0" id="stopFAFBFC" /><stop style="stop-color:#FFFFCC;stop-opacity:1;" offset="1.0" id="stopFFFFCC" /></linearGradient><linearGradient xmlns:xlink="http://www.w3.org/1999/xlink" xlink:href="#linearGradientF8FBFEEDF5FCDEEDFAD4E7F8E2E5E9" id="linearGradientF8FBFEEDF5FCDEEDFAD4E7F8E2E5E9_881197028" x1="0" y1="171.0" x2="0" y2="277.0" gradientUnits="userSpaceOnUse" xlink:type="simple" xlink:actuate="onLoad" xlink:show="other" /><linearGradient xmlns:xlink="http://www.w3.org/1999/xlink" xlink:href="#linearGradientFF6666FF9696FFB6B6" id="linearGradientFF6666FF9696FFB6B6_928986272" x1="0" y1="364.0" x2="0" y2="399.0" gradientUnits="userSpaceOnUse" xlink:type="simple" xlink:actuate="onLoad" xlink:show="other" /><linearGradient id="linearGradientFF6666FF9696FFB6B6"><stop style="stop-color:#FF6666;stop-opacity:1;" offset="0.0" id="stopFF6666" /><stop style="stop-color:#FF9696;stop-opacity:1;" offset="0.5" id="stopFF9696" /><stop style="stop-color:#FFB6B6;stop-opacity:1;" offset="1.0" id="stopFFB6B6" /></linearGradient><linearGradient xmlns:xlink="http://www.w3.org/1999/xlink" xlink:href="#linearGradientFF6666FF9696FFB6B6" id="linearGradientFF6666FF9696FFB6B6_100346265" x1="0" y1="549.0" x2="0" y2="584.0" gradientUnits="userSpaceOnUse" xlink:type="simple" xlink:actuate="onLoad" xlink:show="other" /><linearGradient xmlns:xlink="http://www.w3.org/1999/xlink" xlink:href="#linearGradientFAFBFCFFFFCC" id="linearGradientFAFBFCFFFFCC_1338752105" x1="0" y1="510.0" x2="0" y2="570.0" gradientUnits="userSpaceOnUse" xlink:type="simple" xlink:actuate="onLoad" xlink:show="other" /><linearGradient xmlns:xlink="http://www.w3.org/1999/xlink" xlink:href="#linearGradientF8FBFEEDF5FCDEEDFAD4E7F8E2E5E9" id="linearGradientF8FBFEEDF5FCDEEDFAD4E7F8E2E5E9_1420427435" x1="0" y1="526.0" x2="0" y2="632.0" gradientUnits="userSpaceOnUse" xlink:type="simple" xlink:actuate="onLoad" xlink:show="other" /><linearGradient xmlns:xlink="http://www.w3.org/1999/xlink" xlink:href="#linearGradientFAFBFCFFFFCC" id="linearGradientFAFBFCFFFFCC_446616746" x1="0" y1="323.0" x2="0" y2="383.0" gradientUnits="userSpaceOnUse" xlink:type="simple" xlink:actuate="onLoad" xlink:show="other" /><linearGradient xmlns:xlink="http://www.w3.org/1999/xlink" xlink:href="#linearGradientFAFBFCFFFFCC" id="linearGradientFAFBFCFFFFCC_1182105985" x1="0" y1="155.0" x2="0" y2="215.0" gradientUnits="userSpaceOnUse" xlink:type="simple" xlink:actuate="onLoad" xlink:show="other" /><linearGradient xmlns:xlink="http://www.w3.org/1999/xlink" xlink:href="#linearGradientFAFBFCFFFFCC" id="linearGradientFAFBFCFFFFCC_1422874066" x1="0" y1="499.0" x2="0" y2="559.0" gradientUnits="userSpaceOnUse" xlink:type="simple" xlink:actuate="onLoad" xlink:show="other" /><linearGradient xmlns:xlink="http://www.w3.org/1999/xlink" xlink:href="#linearGradientF8FBFEEDF5FCDEEDFAD4E7F8E2E5E9" id="linearGradientF8FBFEEDF5FCDEEDFAD4E7F8E2E5E9_1357166776" x1="0" y1="526.0" x2="0" y2="632.0" gradientUnits="userSpaceOnUse" xlink:type="simple" xlink:actuate="onLoad" xlink:show="other" /></defs></svg>
