<?xml version="1.0" encoding="UTF-8"?>
<svg xmlns="http://www.w3.org/2000/svg" style="stroke-dasharray:none; shape-rendering:auto; font-family:'Arial'; text-rendering:auto; fill-opacity:1; color-interpolation:auto; color-rendering:auto; font-size:12; fill:black; stroke:black; image-rendering:auto; stroke-miterlimit:10; stroke-linecap:square; stroke-linejoin:miter; font-style:normal; stroke-width:1; stroke-dashoffset:0; font-weight:normal; stroke-opacity:1;" contentScriptType="text/ecmascript" preserveAspectRatio="xMidYMid meet" zoomAndPan="magnify" version="1.0" contentStyleType="text/css" xml:xlink="http://www.w3.org/1999/xlink" width="1040" height="611"><rect x="0" y="10" width="1040" height="601" ry="0" rx="0" style="stroke:#000000; fill:#FFFFFF" /><rect x="30" y="410" width="1010" height="201" ry="0" rx="0" style="stroke:#000000; fill:#ADC9AC" /><g componentSequence="4"><text x="-510" y="39" transform="rotate(270)" text-anchor="middle" style="font-weight:bold;font-size:10px;stroke:none; fill:#434343"><tspan dy="14" x="-510">DP</tspan></text></g><rect x="30" y="210" width="1010" height="200" ry="0" rx="0" style="stroke:#000000; fill:#C0C0C0" /><g componentSequence="3"><text x="-310" y="39" transform="rotate(270)" text-anchor="middle" style="font-weight:bold;font-size:10px;stroke:none; fill:#434343"><tspan dy="14" x="-310">Validação</tspan></text></g><rect x="30" y="10" width="1010" height="200" ry="0" rx="0" style="stroke:#000000; fill:#9F9F9F" /><g componentSequence="2"><text x="-110" y="39" transform="rotate(270)" text-anchor="middle" style="font-weight:bold;font-size:10px;stroke:none; fill:#434343"><tspan dy="14" x="-110">Inicia Solicitação</tspan></text></g><g componentSequence="1"><text x="-310" y="9" transform="rotate(270)" text-anchor="middle" style="font-weight:bold;font-size:10px;stroke:none; fill:#434343"><tspan dy="14" x="-310">Alteração de Salário</tspan></text></g><g sequence="5"><ellipse cx="617" cy="377" rx="17" ry="17" stroke-width="3" style="fill:url(#linearGradientFF6666FF9696FFB6B6_21852116);" stroke="993333" /></g><g sequence="5"><polygon points=" 608 373 613 368 618 373 623 368 628 373 623 378 628 383 623 388 618 383 613 388 608 383 613 378" style="stroke:none; fill:#993333" /></g><rect x="200" y="30" width="105" height="55" ry="5" rx="5" style="stroke:none; fill:#FFFFE0" /><g componentSequence="9"><text x="210" y="43" text-anchor="left" style="font-weight:bold;font-size:10px;stroke:none; fill:#000000"><tspan dy="14" x="210">Início</tspan></text></g><path style="fill:none; stroke-width:1; stroke:#000000;" d="M220.0 30.0 L200.0 30.0 L200.0 85.0 L220.0 85.0" /><g sequence="10"><rect x="340" y="264" width="106" height="85" ry="5" rx="5" style="fill:url(#linearGradientF8FBFEEDF5FCDEEDFAD4E7F8E2E5E9_260739469);" stroke="191970" /></g><g componentSequence="10"><text x="393" y="279" text-anchor="middle" style="font-weight:bold;font-size:10px;stroke:none; fill:#333399"><tspan dy="14" x="393">Valida</tspan><tspan dy="14" x="393">Solicitação</tspan></text></g><g sequence="13"><ellipse cx="157" cy="57" rx="17" ry="17" stroke-width="1" style="fill:url(#linearGradient66FF6696FF96B6FFB6_196412580);" stroke="336633" /></g><rect x="760" y="340" width="161" height="108" ry="5" rx="5" style="stroke:none; fill:#FFFFE0" /><g componentSequence="16"><text x="770" y="363" text-anchor="left" style="font-weight:bold;font-size:10px;stroke:none; fill:#000000"><tspan dy="14" x="770">Solicitação</tspan><tspan dy="14" x="770">reprovada,</tspan><tspan dy="14" x="770">cancela</tspan><tspan dy="14" x="770">solicitação</tspan></text></g><path style="fill:none; stroke-width:1; stroke:#000000;" d="M780.0 340.0 L760.0 340.0 L760.0 448.0 L780.0 448.0" /><g sequence="30"><rect x="530" y="61" width="106" height="104" ry="5" rx="5" style="fill:url(#linearGradientF8FBFEEDF5FCDEEDFAD4E7F8E2E5E9_1320655798);" stroke="191970" /></g><g componentSequence="30"><text x="583" y="76" text-anchor="middle" style="font-weight:bold;font-size:10px;stroke:none; fill:#333399"><tspan dy="14" x="583">Correção</tspan><tspan dy="14" x="583">de</tspan><tspan dy="14" x="583">Solicitação</tspan></text></g><g sequence="38"><polygon points=" 340 110 370 80 400 110 370 140 340 110" style="fill:url(#linearGradientFAFBFCFFFFCC_619609723);" stroke="000000" /></g><ellipse cx="370" cy="110" rx="17" ry="17" stroke-width="1" style="fill:url(#linearGradientFAFBFCFFFFCC_2134087058);" stroke="000000" /><polygon points=" 356 106 366 106 366 96 374 96 374 106 384 106 384 114 374 114 374 124 366 124 366 114 356 114" style="fill:url(#linearGradientFAFBFCFFFFCC_1551904500);" stroke="000000" /><g componentSequence="38"><text x="370" y="150" text-anchor="middle" style="font-weight:bold;font-size:10px;stroke:none; fill:#333399"><tspan dy="14" x="370">Event</tspan><tspan dy="14" x="370">o</tspan><tspan dy="14" x="370">Pa...</tspan></text></g><g sequence="42"><polygon points=" 590 244 620 214 650 244 620 274 590 244" style="fill:url(#linearGradientFAFBFCFFFFCC_781739257);" stroke="000000" /></g><path style="fill:none; stroke-width:6; stroke:#000000;" d="M610.0 244.0 L630.0 244.0" /><path style="fill:none; stroke-width:6; stroke:#000000;" d="M620.0 234.0 L620.0 254.0" /><g componentSequence="42"><text x="620" y="282" text-anchor="middle" style="font-weight:bold;font-size:10px;stroke:none; fill:#333399"><tspan dy="14" x="620">Join</tspan></text></g><g componentSequence="21"><text x="197" y="57" style="font-size:10px;font-weight:none;stroke:none; fill:#333399" text-anchor="left" /></g><g componentSequence="29"><text x="707" y="383" style="font-size:10px;font-weight:none;stroke:none; fill:#333399" text-anchor="left" /></g><g componentSequence="39"><text x="267" y="100" style="font-size:10px;font-weight:none;stroke:none; fill:#333399" text-anchor="left" /></g><g componentSequence="40"><text x="475" y="132" style="font-size:10px;font-weight:none;stroke:none; fill:#333399" text-anchor="left" /></g><g componentSequence="41"><text x="394" y="240" style="font-size:10px;font-weight:none;stroke:none; fill:#333399" text-anchor="left" /></g><g componentSequence="43"><text x="528" y="282" style="font-size:10px;font-weight:none;stroke:none; fill:#333399" text-anchor="left" /></g><g componentSequence="44"><text x="612" y="189" style="font-size:10px;font-weight:none;stroke:none; fill:#333399" text-anchor="left" /></g><g componentSequence="45"><text x="628" y="336" style="font-size:10px;font-weight:none;stroke:none; fill:#333399" text-anchor="left" /></g><path style="fill:none; stroke:#000000;stroke-dasharray:2" d="M759.0 388.0 L634.0 378.0" /><path style="fill:none; stroke:#000000;stroke-width:1" d="M618.0 312.0 L617.0 360.0" /><polygon style="fill:#000000; stroke:#000000;" points=" 622 350 617 360 612 350 617 352" /><path style="fill:none; stroke:#000000;stroke-dasharray:2" d="M199.0 57.0 L175.0 57.0" /><path style="fill:none; stroke:#000000;stroke-width:1" d="M446.0 296.0 L589.0 268.0" /><polygon style="fill:#000000; stroke:#000000;" points=" 578 265 589 268 580 275 581 270" /><path style="fill:none; stroke:#000000;stroke-width:1" d="M380.0 216.0 L386.0 263.0" /><polygon style="fill:#000000; stroke:#000000;" points=" 390 252 386 263 380 254 385 255" /><path style="fill:none; stroke:#000000;stroke-width:1" d="M173.0 64.0 L339.0 135.0" /><polygon style="fill:#000000; stroke:#000000;" points=" 332 126 339 135 328 136 332 132" /><path style="fill:none; stroke:#000000;stroke-width:1" d="M596.0 165.0 L607.0 213.0" /><polygon style="fill:#000000; stroke:#000000;" points=" 610 202 607 213 600 204 605 205" /><path style="fill:none; stroke:#000000;stroke-width:1" d="M400.0 143.0 L529.0 121.0" /><polygon style="fill:#000000; stroke:#000000;" points=" 518 118 529 121 520 128 521 122" /><defs><linearGradient xmlns:xlink="http://www.w3.org/1999/xlink" xlink:href="#linearGradientFF6666FF9696FFB6B6" id="linearGradientFF6666FF9696FFB6B6_21852116" x1="0" y1="360.0" x2="0" y2="395.0" gradientUnits="userSpaceOnUse" xlink:type="simple" xlink:actuate="onLoad" xlink:show="other" /><linearGradient id="linearGradientFF6666FF9696FFB6B6"><stop style="stop-color:#FF6666;stop-opacity:1;" offset="0.0" id="stopFF6666" /><stop style="stop-color:#FF9696;stop-opacity:1;" offset="0.5" id="stopFF9696" /><stop style="stop-color:#FFB6B6;stop-opacity:1;" offset="1.0" id="stopFFB6B6" /></linearGradient><linearGradient xmlns:xlink="http://www.w3.org/1999/xlink" xlink:href="#linearGradientF8FBFEEDF5FCDEEDFAD4E7F8E2E5E9" id="linearGradientF8FBFEEDF5FCDEEDFAD4E7F8E2E5E9_260739469" x1="0" y1="264.0" x2="0" y2="370.0" gradientUnits="userSpaceOnUse" xlink:type="simple" xlink:actuate="onLoad" xlink:show="other" /><linearGradient id="linearGradientF8FBFEEDF5FCDEEDFAD4E7F8E2E5E9"><stop style="stop-color:#F8FBFE;stop-opacity:1;" offset="0.0" id="stopF8FBFE" /><stop style="stop-color:#EDF5FC;stop-opacity:1;" offset="0.25" id="stopEDF5FC" /><stop style="stop-color:#DEEDFA;stop-opacity:1;" offset="0.5" id="stopDEEDFA" /><stop style="stop-color:#D4E7F8;stop-opacity:1;" offset="0.75" id="stopD4E7F8" /><stop style="stop-color:#E2E5E9;stop-opacity:1;" offset="1.0" id="stopE2E5E9" /></linearGradient><linearGradient xmlns:xlink="http://www.w3.org/1999/xlink" xlink:href="#linearGradient66FF6696FF96B6FFB6" id="linearGradient66FF6696FF96B6FFB6_196412580" x1="0" y1="40.0" x2="0" y2="75.0" gradientUnits="userSpaceOnUse" xlink:type="simple" xlink:actuate="onLoad" xlink:show="other" /><linearGradient id="linearGradient66FF6696FF96B6FFB6"><stop style="stop-color:#66FF66;stop-opacity:1;" offset="0.0" id="stop66FF66" /><stop style="stop-color:#96FF96;stop-opacity:1;" offset="0.5" id="stop96FF96" /><stop style="stop-color:#B6FFB6;stop-opacity:1;" offset="1.0" id="stopB6FFB6" /></linearGradient><linearGradient xmlns:xlink="http://www.w3.org/1999/xlink" xlink:href="#linearGradientF8FBFEEDF5FCDEEDFAD4E7F8E2E5E9" id="linearGradientF8FBFEEDF5FCDEEDFAD4E7F8E2E5E9_1320655798" x1="0" y1="61.0" x2="0" y2="167.0" gradientUnits="userSpaceOnUse" xlink:type="simple" xlink:actuate="onLoad" xlink:show="other" /><linearGradient xmlns:xlink="http://www.w3.org/1999/xlink" xlink:href="#linearGradientFAFBFCFFFFCC" id="linearGradientFAFBFCFFFFCC_619609723" x1="0" y1="80.0" x2="0" y2="140.0" gradientUnits="userSpaceOnUse" xlink:type="simple" xlink:actuate="onLoad" xlink:show="other" /><linearGradient id="linearGradientFAFBFCFFFFCC"><stop style="stop-color:#FAFBFC;stop-opacity:1;" offset="0.0" id="stopFAFBFC" /><stop style="stop-color:#FFFFCC;stop-opacity:1;" offset="1.0" id="stopFFFFCC" /></linearGradient><linearGradient xmlns:xlink="http://www.w3.org/1999/xlink" xlink:href="#linearGradientFAFBFCFFFFCC" id="linearGradientFAFBFCFFFFCC_2134087058" x1="0" y1="93.0" x2="0" y2="128.0" gradientUnits="userSpaceOnUse" xlink:type="simple" xlink:actuate="onLoad" xlink:show="other" /><linearGradient xmlns:xlink="http://www.w3.org/1999/xlink" xlink:href="#linearGradientFAFBFCFFFFCC" id="linearGradientFAFBFCFFFFCC_1551904500" x1="0" y1="93.0" x2="0" y2="128.0" gradientUnits="userSpaceOnUse" xlink:type="simple" xlink:actuate="onLoad" xlink:show="other" /><linearGradient xmlns:xlink="http://www.w3.org/1999/xlink" xlink:href="#linearGradientFAFBFCFFFFCC" id="linearGradientFAFBFCFFFFCC_781739257" x1="0" y1="214.0" x2="0" y2="274.0" gradientUnits="userSpaceOnUse" xlink:type="simple" xlink:actuate="onLoad" xlink:show="other" /></defs></svg>
